<svg width="180" height="80" viewBox="0 0 180 80" fill="none" xmlns="http://www.w3.org/2000/svg">
<g filter="url(#filter0_ii_13448_10970)">
<path fill-rule="evenodd" clip-rule="evenodd" d="M155.541 36.3118C156.193 36.3118 156.657 36.1201 157.121 35.6413C157.491 35.2582 157.77 34.6834 157.77 34.1086C157.77 33.438 157.491 32.9589 157.121 32.4801C156.657 32.097 156.193 31.8096 155.541 31.8096C154.983 31.8096 154.429 32.097 154.056 32.4801C153.592 32.9589 153.407 33.438 153.407 34.1086C153.407 34.6834 153.592 35.2582 154.056 35.6413C154.429 36.1201 154.983 36.3118 155.541 36.3118ZM153.686 34.1086C153.686 33.5337 153.871 33.0549 154.241 32.7675C154.614 32.3844 155.077 32.1927 155.541 32.1927C156.099 32.1927 156.563 32.3844 156.936 32.7675C157.306 33.0549 157.4 33.5337 157.4 34.1086C157.4 34.5874 157.306 35.0665 156.936 35.4496C156.563 35.8327 156.099 36.0244 155.541 36.0244C155.077 36.0244 154.614 35.8327 154.241 35.4496C153.871 35.0665 153.686 34.5874 153.686 34.1086ZM156.193 32.9588C156.005 32.8631 155.82 32.8631 155.541 32.8631H154.708V35.3538H155.078V34.3002H155.451C155.558 34.3002 155.666 34.3328 155.756 34.3599C155.82 34.3793 155.875 34.3959 155.914 34.3959C156.099 34.4915 156.099 34.6832 156.099 34.9707V35.162L156.193 35.2581V35.3537H156.563V35.2581V35.162C156.563 35.1142 156.541 35.0902 156.518 35.0663C156.495 35.0424 156.472 35.0185 156.472 34.9707V34.779C156.472 34.6833 156.472 34.4915 156.378 34.3959L156.373 34.3909C156.281 34.2968 156.19 34.2041 156.005 34.2041C156.052 34.1566 156.099 34.1327 156.145 34.1089C156.192 34.0848 156.238 34.0609 156.284 34.0127C156.472 33.9167 156.563 33.821 156.563 33.5336C156.563 33.2462 156.472 33.0548 156.193 32.9588ZM155.451 33.1507C155.726 33.1507 155.914 33.1507 156.005 33.2463L156.005 33.2464C156.099 33.3424 156.099 33.4381 156.099 33.6298C156.099 33.8212 156.099 33.9169 155.914 34.0129H155.541H155.077V33.1507H155.45H155.451ZM40.8517 36.5992V34.1086H25.7128C23.391 34.1086 22.2301 35.3061 22.2301 37.3175V44.9804C22.2301 46.992 23.391 48.1894 25.7128 48.1894H40.8517V45.6989H24.8305V36.5992H40.8517ZM50.9276 34.1086V39.8559H64.7192V34.1086H67.2738V48.1894H64.7192V42.3463H50.9276V48.1894H48.3746V34.1086H50.9276ZM92.3019 34.1086V45.6989H78.7422V34.1086H76.1422V44.9804C76.1422 46.992 77.349 48.1894 79.6716 48.1894H91.3741C93.6951 48.1894 94.9019 46.992 94.9019 44.9804V34.1086H92.3019ZM123.322 45.2202C123.322 47.0881 122.16 48.1896 119.606 48.1896H103.772V34.1089H119.606C122.16 34.1089 123.322 35.2105 123.322 37.0784V38.515C123.322 39.042 123.182 39.2814 122.811 39.6166L121.139 41.0534L122.811 42.4903C123.182 42.8255 123.322 43.0651 123.322 43.5918V45.2202ZM106.373 45.7952H120.722V42.2991H106.373V45.7952ZM106.373 36.5037H120.722V39.9041H106.373V36.5037ZM151.044 45.2202C151.044 47.0881 149.883 48.1896 147.375 48.1896H131.495V34.1089H147.375C149.883 34.1089 151.044 35.2105 151.044 37.0784V38.515C151.044 39.042 150.905 39.2814 150.533 39.6166L148.861 41.0534L150.533 42.4903C150.905 42.8255 151.044 43.0651 151.044 43.5918V45.2202ZM134.095 45.7952H148.443V42.2991H134.095V45.7952ZM134.095 36.5037H148.443V39.9041H134.095V36.5037Z" fill="#808080"/>
</g>
<defs>
<filter id="filter0_ii_13448_10970" x="0" y="0" width="180" height="80" filterUnits="userSpaceOnUse" color-interpolation-filters="sRGB">
<feFlood flood-opacity="0" result="BackgroundImageFix"/>
<feBlend mode="normal" in="SourceGraphic" in2="BackgroundImageFix" result="shape"/>
<feColorMatrix in="SourceAlpha" type="matrix" values="0 0 0 0 0 0 0 0 0 0 0 0 0 0 0 0 0 0 127 0" result="hardAlpha"/>
<feOffset dy="-1"/>
<feComposite in2="hardAlpha" operator="arithmetic" k2="-1" k3="1"/>
<feColorMatrix type="matrix" values="0 0 0 0 0.533333 0 0 0 0 0.521569 0 0 0 0 0.521569 0 0 0 0.5 0"/>
<feBlend mode="normal" in2="shape" result="effect1_innerShadow_13448_10970"/>
<feColorMatrix in="SourceAlpha" type="matrix" values="0 0 0 0 0 0 0 0 0 0 0 0 0 0 0 0 0 0 127 0" result="hardAlpha"/>
<feOffset dx="-1"/>
<feComposite in2="hardAlpha" operator="arithmetic" k2="-1" k3="1"/>
<feColorMatrix type="matrix" values="0 0 0 0 0.533333 0 0 0 0 0.527729 0 0 0 0 0.522222 0 0 0 0.5 0"/>
<feBlend mode="normal" in2="effect1_innerShadow_13448_10970" result="effect2_innerShadow_13448_10970"/>
</filter>
</defs>
</svg>
