<svg width="180" height="80" viewBox="0 0 180 80" fill="none" xmlns="http://www.w3.org/2000/svg">
<g filter="url(#filter0_ii_13448_11045)">
<g clip-path="url(#clip0_13448_11045)">
<path d="M47.6217 54.6328H64.1012V56.9918H47.6217V54.6328Z" fill="#808080"/>
<path d="M47.6217 50.1074H64.1012V52.4748H47.6217V50.1074Z" fill="#808080"/>
<path d="M52.323 45.5908H59.3916V47.9582H52.323V45.5908Z" fill="#808080"/>
<path d="M52.323 41.0742H59.3916V43.4416H52.323V41.0742Z" fill="#808080"/>
<path d="M52.323 36.5586H59.3916V38.926H52.323V36.5586Z" fill="#808080"/>
<path d="M52.323 32.0332H59.3916V34.4006H52.323V32.0332Z" fill="#808080"/>
<path d="M64.1012 27.5166H47.6217V29.884H64.1012V27.5166Z" fill="#808080"/>
<path d="M64.1012 23H47.6217V25.3674H64.1012V23Z" fill="#808080"/>
<path d="M66.4518 52.4748H91.7965C92.2246 51.7445 92.5436 50.9469 92.7368 50.1074H66.4518V52.4748Z" fill="#808080"/>
<path d="M89.8237 41.0742H71.1615V43.4416H91.7966C91.2592 42.5349 90.596 41.7374 89.8237 41.0742Z" fill="#808080"/>
<path d="M71.1615 36.5586V38.926H89.8237C90.6129 38.2628 91.276 37.4652 91.7966 36.5586H71.1615Z" fill="#808080"/>
<path d="M91.7966 27.5166H66.4518V29.884H92.7368C92.5186 29.0445 92.1995 28.247 91.7966 27.5166Z" fill="#808080"/>
<path d="M84.0059 23H66.4518V25.3674H90.0587C88.4805 23.9066 86.3398 23 84.0059 23Z" fill="#808080"/>
<path d="M78.2217 32.0332H71.1615V34.4006H78.2217V32.0332Z" fill="#808080"/>
<path d="M85.2903 34.4006H92.678C92.8878 33.6451 92.997 32.8475 92.997 32.0332H85.2903V34.4006Z" fill="#808080"/>
<path d="M71.1615 45.5908H78.2217V47.9582H71.1615V45.5908Z" fill="#808080"/>
<path d="M85.2903 45.5908V47.9582H92.997C92.997 47.1439 92.8878 46.3464 92.678 45.5908H85.2903Z" fill="#808080"/>
<path d="M66.4518 56.9751L84.0059 57.0002C86.3566 57.0002 88.4805 56.0936 90.0671 54.6328H66.4518V56.9751Z" fill="#808080"/>
<path d="M94.7097 54.6328H106.479V56.9918H94.7097V54.6328Z" fill="#808080"/>
<path d="M94.7097 50.1074H106.479V52.4748H94.7097V50.1074Z" fill="#808080"/>
<path d="M99.4109 45.5908H106.479V47.9582H99.4109V45.5908Z" fill="#808080"/>
<path d="M99.4108 41.0742H106.479V43.4416H99.4108V41.0742Z" fill="#808080"/>
<path d="M109.754 27.5166H94.7097V29.884H110.568L109.754 27.5166Z" fill="#808080"/>
<path d="M108.192 23H94.7097V25.3674H109.006L108.192 23Z" fill="#808080"/>
<path d="M120.6 54.6328H132.378V56.9918H120.6V54.6328Z" fill="#808080"/>
<path d="M120.6 50.1074H132.378V52.4748H120.6V50.1074Z" fill="#808080"/>
<path d="M120.6 45.5908H127.669V47.9582H120.6V45.5908Z" fill="#808080"/>
<path d="M120.6 41.0742H127.669V43.4416H120.6V41.0742Z" fill="#808080"/>
<path d="M120.6 38.926H127.669V36.5586H120.6H114.203L113.54 38.4727L112.877 36.5586H106.479H99.4108V38.926H106.479V36.7517L107.227 38.926H119.853L120.6 36.7517V38.926Z" fill="#808080"/>
<path d="M127.669 32.0332H115.764L114.95 34.4006H127.669V32.0332Z" fill="#808080"/>
<path d="M118.896 23L118.081 25.3674H132.378V23H118.896Z" fill="#808080"/>
<path d="M113.54 56.9751L114.354 54.6328H112.725L113.54 56.9751Z" fill="#808080"/>
<path d="M111.978 52.4748H115.101L115.941 50.1074H111.147L111.978 52.4748Z" fill="#808080"/>
<path d="M110.392 47.9582H116.688L117.519 45.5908H109.56L110.392 47.9582Z" fill="#808080"/>
<path d="M108.813 43.4416H118.275L119.08 41.0742H107.999L108.813 43.4416Z" fill="#808080"/>
<path d="M99.4108 34.4006H112.129L111.315 32.0332H99.4108V34.4006Z" fill="#808080"/>
<path d="M116.52 29.884H132.378V27.5166H117.326L116.52 29.884Z" fill="#808080"/>
</g>
</g>
<defs>
<filter id="filter0_ii_13448_11045" x="0" y="0" width="180" height="80" filterUnits="userSpaceOnUse" color-interpolation-filters="sRGB">
<feFlood flood-opacity="0" result="BackgroundImageFix"/>
<feBlend mode="normal" in="SourceGraphic" in2="BackgroundImageFix" result="shape"/>
<feColorMatrix in="SourceAlpha" type="matrix" values="0 0 0 0 0 0 0 0 0 0 0 0 0 0 0 0 0 0 127 0" result="hardAlpha"/>
<feOffset dy="-1"/>
<feComposite in2="hardAlpha" operator="arithmetic" k2="-1" k3="1"/>
<feColorMatrix type="matrix" values="0 0 0 0 0.533333 0 0 0 0 0.521569 0 0 0 0 0.521569 0 0 0 0.5 0"/>
<feBlend mode="normal" in2="shape" result="effect1_innerShadow_13448_11045"/>
<feColorMatrix in="SourceAlpha" type="matrix" values="0 0 0 0 0 0 0 0 0 0 0 0 0 0 0 0 0 0 127 0" result="hardAlpha"/>
<feOffset dx="-1"/>
<feComposite in2="hardAlpha" operator="arithmetic" k2="-1" k3="1"/>
<feColorMatrix type="matrix" values="0 0 0 0 0.533333 0 0 0 0 0.527729 0 0 0 0 0.522222 0 0 0 0.5 0"/>
<feBlend mode="normal" in2="effect1_innerShadow_13448_11045" result="effect2_innerShadow_13448_11045"/>
</filter>
<clipPath id="clip0_13448_11045">
<rect width="84.7565" height="34" fill="white" transform="translate(47.6217 23)"/>
</clipPath>
</defs>
</svg>
