<svg width="180" height="80" viewBox="0 0 180 80" fill="none" xmlns="http://www.w3.org/2000/svg">
<g filter="url(#filter0_i_13448_11019)">
<g clip-path="url(#clip0_13448_11019)">
<path fill-rule="evenodd" clip-rule="evenodd" d="M113.787 38.7276C115.157 38.3361 114.57 43.5568 114.374 44.4704C114.113 45.9714 113.33 48.9733 111.699 48.5818C109.219 47.9944 111.96 39.2497 113.787 38.7276ZM102.432 37.1614C104.129 36.4436 102.823 41.8601 101.322 42.3822C99.7563 42.9695 100.866 37.8793 102.432 37.1614ZM88.5317 33.1806C90.5547 33.1154 93.3609 35.3342 92.7083 37.553C92.1862 39.4455 89.4453 40.4244 87.1613 40.6202L88.5317 33.1806ZM89.0538 29.7219C88.2707 29.5261 87.6181 29.2651 86.7697 29.3303C85.6603 29.3303 85.595 29.6566 85.2688 30.5702C83.7025 30.8313 82.5279 30.8965 81.4837 31.8102C80.8964 32.3322 80.7659 32.5933 81.2227 33.3111C81.549 33.8332 81.9405 34.4205 82.3321 34.6816C82.7889 34.0942 83.572 33.5722 84.6162 33.3111C84.1593 36.3783 81.2879 49.4301 81.549 50.8006C82.2016 50.9311 82.8542 51.0616 83.5068 51.1269C83.8331 51.1921 84.7467 51.2574 85.073 51.1269C85.3993 50.9964 85.334 50.9964 85.3993 50.8658C85.4645 50.7353 85.9213 47.6681 85.9866 47.1461C86.1171 46.4282 86.3782 43.9484 86.6392 43.4916L88.5317 45.5798C89.5759 46.8198 91.5336 48.8428 92.8388 50.2132C93.0998 50.4743 93.8177 51.3879 94.2093 51.3227C94.8618 51.1921 96.6238 49.5607 97.0154 49.1038C98.1901 50.2132 99.43 51.2574 101.453 51.3227C104.259 51.4532 105.238 49.8869 106.086 49.2996C105.956 50.8658 105.63 52.6278 105.369 54.194C105.238 54.8466 105.173 54.9119 105.499 55.2382C106.217 55.8908 107.392 56.3476 108.436 56.4781L109.61 49.4954C109.871 49.6259 109.871 49.6912 110.132 49.8869C110.72 50.3438 111.568 50.8006 112.351 50.8658C115.679 51.1921 117.246 46.5587 117.833 43.8179C118.42 41.2727 118.225 38.7276 116.854 37.0309C115.549 35.4647 113.004 35.3342 111.242 37.2919C111.046 35.6605 109.806 35.5299 108.175 35.3994L106.804 44.862L105.369 44.3399C105.108 44.6662 104.977 45.3841 104.781 45.7756C104.585 46.2324 104.259 46.6893 103.998 47.0155C103.476 47.6681 102.758 48.2555 101.649 48.5818C98.5163 49.4954 98.9079 45.3188 99.3647 43.8179C100.409 44.3399 101.779 45.123 103.28 44.5357C104.324 44.1441 105.042 43.0347 105.434 41.7296C107.587 34.3553 99.8215 32.9196 97.2764 39.576C96.1018 42.6432 95.645 44.601 96.2975 47.7334C95.5144 47.4724 90.8158 43.8831 90.4895 42.3822C91.0116 41.9906 97.3417 40.5549 96.167 35.8562C95.3839 32.6585 91.7294 31.3534 88.9233 30.7008L89.0538 29.7219ZM137.28 39.1192C139.369 38.2708 138.194 48.3207 135.845 48.5165C133.234 48.7123 135.453 39.9023 137.28 39.1192ZM134.474 28.6777H133.561C132.321 34.29 130.493 40.6854 131.081 46.5587C131.146 47.5376 129.319 50.0175 128.927 45.123C128.797 43.6221 128.927 42.1211 129.123 40.6854C129.319 39.3802 129.645 38.1403 129.906 36.9004C128.797 36.4436 127.948 35.6605 126.251 35.791C125.925 38.2708 124.881 43.1653 124.163 45.7104C124.033 46.2324 123.837 46.7545 123.641 47.2113C123.445 47.7334 123.315 48.1902 122.662 48.1902C121.422 46.4282 123.576 38.9887 123.902 36.7046C122.858 36.3783 121.944 36.1825 120.704 36.1825C120.509 37.0309 120.052 37.9445 119.791 38.7929C119.008 41.4685 118.094 45.1883 118.877 47.9292C119.465 49.8869 121.227 50.9964 122.923 50.8658C125.468 50.6701 125.795 47.6681 126.317 47.0808C127.622 52.6931 131.342 49.5607 131.929 49.4301C132.386 49.9522 132.386 50.0827 133.038 50.409C134.474 51.0616 136.758 50.9311 138.129 50.0827C141.261 48.1902 142.958 41.2727 141.196 37.9445C139.564 34.9426 136.562 36.8351 135.453 37.2267C135.649 35.2689 136.497 31.3534 137.084 29.6566C135.975 29.1345 134.67 28.743 134.474 28.6777ZM60.2093 31.2228C60.2745 30.7008 60.3398 30.5702 59.9482 30.3745C59.2304 29.9829 57.5336 30.244 56.881 30.3745C56.1632 30.505 56.0327 30.505 55.7064 31.0271C54.2707 33.3764 53.1613 36.052 52.2476 38.7276C51.5298 40.7507 49.2457 48.8428 49.2457 50.6048C50.1594 51.3226 51.6603 51.91 52.9002 52.3668C53.2265 51.2574 53.4876 49.6259 53.7486 48.4512C54.0749 47.1461 54.4012 45.8409 54.6622 44.601L56.62 37.3572C56.6853 37.2267 56.6853 37.2267 56.7505 37.1614C56.8158 38.7929 56.881 47.0808 57.4684 48.2555C57.8599 49.0386 59.2304 49.2996 60.405 49.0386C61.8407 44.3399 63.668 39.7065 65.691 35.2689C65.7563 35.1384 65.8215 34.9426 65.8868 34.8121L66.1478 34.4205L65.6258 47.5376C65.5605 50.148 65.3647 50.9311 67.0615 51.3879C67.8446 51.6489 69.0845 51.7795 69.9981 51.7142C69.2803 46.9503 69.1498 37.3572 69.2803 32.0059C69.4108 29.4608 69.8676 29.5261 67.2572 29.004C66.0173 28.743 65.7563 29.1998 65.2995 29.9177C64.1248 31.8102 62.4933 35.8562 61.7102 38.075C61.5144 38.5971 60.3398 42.1211 60.144 42.3169C59.7524 41.2075 59.8177 38.9887 59.8177 37.7488L60.2093 31.2228ZM151.05 48.4512C149.288 46.2324 152.225 38.3361 152.159 37.3572C151.246 36.8351 149.941 36.5741 148.701 36.5088C147.656 39.7065 146.873 43.4916 147.069 47.1461C147.2 49.1691 147.591 50.3438 149.679 50.6701C151.898 50.9964 153.203 49.4954 154.052 49.0386C155.227 51.7142 161.948 51.5184 163.841 47.0808C164.298 46.1019 164.232 45.7756 163.58 45.2535C163.253 44.9925 162.405 44.4704 161.948 44.2747C161.557 45.9714 160.056 48.647 157.902 48.125C154.639 47.3418 155.879 40.0328 158.163 38.3361C158.555 38.0098 159.142 37.9445 159.273 38.5319C159.534 39.576 158.489 41.2727 158.555 41.6643C158.62 42.1211 160.643 43.0347 161.23 42.7737C161.948 42.5127 162.144 40.6854 162.013 39.6413C161.426 34.9426 156.923 35.5299 155.031 37.2919C151.703 40.3591 152.942 46.1019 152.877 46.4935C152.812 46.7545 152.29 47.5376 152.094 47.7334C151.703 48.386 151.507 48.5165 151.05 48.4512ZM78.8734 57.0002H79.0691C79.5912 53.7372 79.9175 50.2785 80.3743 47.0155C80.5701 45.3841 80.8311 43.7526 81.0269 42.1211C81.2227 40.5549 81.6142 38.8582 81.81 37.2919C80.6354 36.8351 80.1133 36.4436 78.5471 36.3131C78.2208 38.9887 76.9808 46.363 75.6104 47.9292C74.6315 49.0386 74.24 47.6681 74.24 46.5587C74.24 45.5146 74.4357 44.4052 74.6315 43.4263C74.8273 42.4474 76.002 37.9445 75.9367 37.553C75.0883 37.0309 73.5221 36.7046 72.2169 36.7046C71.3033 38.9887 70.2592 43.9484 70.5202 46.6893C70.716 48.5818 71.3686 49.6912 72.6737 50.3438C74.6968 51.3879 76.3283 49.4954 76.8503 49.2344C76.7198 50.8658 76.3283 52.6931 76.0672 54.2593C76.002 54.7161 75.8062 55.1077 76.0672 55.434C76.3935 55.8908 77.1766 56.4129 77.764 56.6086C77.9597 56.6739 78.1555 56.7392 78.3513 56.8044C78.5471 56.8697 78.4818 56.8044 78.6776 56.8697C78.8734 57.0002 78.8081 57.0002 78.8734 57.0002ZM145.894 28.6777H145.111C144.459 32.0712 143.676 35.3342 143.154 38.7929C142.827 40.8812 141.848 47.7987 141.914 49.5607C142.762 50.148 144.067 50.6701 145.372 50.6048C145.568 49.8869 145.568 48.5818 145.633 47.7987C146.025 43.4263 146.612 38.9887 147.395 34.6816C147.526 33.8985 148.374 30.1134 148.374 29.7871C147.722 29.1998 146.612 29.0693 145.894 28.6777ZM150.071 31.6144C147.33 32.267 148.309 36.3131 151.05 35.6605C152.029 35.4647 152.942 34.3553 152.616 33.1154C152.29 32.1365 151.311 31.2881 150.071 31.6144ZM164.493 38.7929V36.5088H163.71V36.052H165.864V36.5088H165.081V38.7929H164.493ZM166.19 38.7929V36.052H167.038L167.56 37.9445L168.017 36.052H168.866V38.7929H168.344V36.6393L167.822 38.7929H167.299L166.777 36.6393V38.7929H166.19Z" fill="#808080"/>
<path fill-rule="evenodd" clip-rule="evenodd" d="M17.0729 40.8158C17.595 38.9233 18.1171 36.9655 18.6391 35.073C16.8119 33.7025 13.6795 34.6162 11.7869 37.2918C10.6775 38.6622 11.1343 39.9022 12.4395 39.3148C14.5278 38.2707 16.094 38.7275 17.0729 40.8158Z" fill="#5A5959"/>
<path fill-rule="evenodd" clip-rule="evenodd" d="M25.6871 47.6678C27.3839 46.6236 29.0806 45.6447 30.7773 44.6006C32.6046 45.971 32.6046 49.234 30.5163 51.8443C29.5374 53.2801 28.2322 53.2148 28.3628 51.7791C28.8848 49.4298 28.0365 47.9941 25.6871 47.6678Z" fill="#5A5959"/>
<path fill-rule="evenodd" clip-rule="evenodd" d="M15.5067 48.0594C14.9194 48.2552 14.2668 48.451 13.6794 48.6468C14.6583 45.5796 15.3762 43.165 16.5508 39.5105C17.7255 35.856 19.7485 32.0057 21.6411 29.069C25.9482 22.8694 35.476 20.9116 39.1305 25.6103C41.6756 29.7869 41.023 34.8118 38.5432 38.7926C35.0844 44.0786 25.0998 48.7773 18.9002 52.4318C18.8349 51.9097 18.8349 51.3224 18.7697 50.8003C17.3992 51.4529 15.9635 52.1708 14.5931 52.8234C14.8541 51.2571 15.1804 49.6257 15.5067 48.0594Z" fill="#808080"/>
<path fill-rule="evenodd" clip-rule="evenodd" d="M17.334 37.1612C18.5086 34.2245 20.0749 31.3531 21.5758 29.069C25.9482 22.8694 35.476 20.9116 39.1305 25.6103C39.9789 26.9807 40.4357 28.4164 40.6315 29.9174C39.261 32.2015 37.3685 34.4855 35.0192 36.4433C28.3628 41.9903 20.7927 43.0997 18.1171 38.8579C17.7908 38.4011 17.5298 37.8138 17.334 37.1612Z" fill="#5A5959"/>
<path fill-rule="evenodd" clip-rule="evenodd" d="M22.2936 28.1554C26.8618 22.6737 35.6718 21.1727 39.1305 25.6756C39.9789 27.046 40.4357 28.4817 40.6315 29.9827C38.5432 31.4836 35.2802 32.5278 31.7562 32.5278C27.0576 32.4625 23.2725 30.6353 22.2936 28.1554Z" fill="#808080"/>
<path fill-rule="evenodd" clip-rule="evenodd" d="M15.5067 48.0597C14.9194 48.2555 14.2668 48.4513 13.6794 48.647C14.5278 46.0367 15.1804 43.8831 16.094 41.0117C18.3128 44.2747 22.0326 47.8639 25.6219 48.7123C23.2725 50.0827 20.9232 51.3227 18.9654 52.4321C18.9002 51.91 18.9002 51.3227 18.8349 50.8006L15.3109 52.4973L14.7888 52.171L15.5067 48.0597Z" fill="#6D6D6C"/>
<path fill-rule="evenodd" clip-rule="evenodd" d="M15.5067 48.0597C14.9194 48.2555 14.2668 48.4513 13.6794 48.6471C14.332 46.4935 14.9194 44.6662 15.572 42.5127C17.6602 45.4494 20.3359 47.7334 23.7946 49.7565C22.0326 50.7353 20.4011 51.649 18.9002 52.4973C18.8349 51.9753 18.8349 51.3879 18.7697 50.8659C17.3992 51.5185 15.9635 52.2363 14.5931 52.8889C14.8541 51.2574 15.1804 49.6259 15.5067 48.0597Z" fill="#808080"/>
<path fill-rule="evenodd" clip-rule="evenodd" d="M16.7466 44.0791C18.2476 45.8411 20.0096 47.3421 22.0326 48.6472L20.3359 49.6914V48.3209L16.7466 49.8872L17.3992 45.7758L16.0941 46.1674L16.7466 44.0791Z" fill="#5A5959"/>
<path fill-rule="evenodd" clip-rule="evenodd" d="M29.6679 23.4563C33.3877 22.4775 37.1727 23.0648 39.1305 25.6099C40.5662 27.9592 41.023 30.6348 40.6314 33.2452C35.6717 32.2011 30.9731 27.3719 29.6679 23.4563Z" fill="#808080"/>
<path fill-rule="evenodd" clip-rule="evenodd" d="M29.6679 23.4563C33.3877 22.4775 37.1727 23.0648 39.1305 25.6099C39.9789 26.9803 40.4357 28.416 40.6314 29.917C40.1094 30.8306 39.4568 31.7443 38.7389 32.6579C34.5623 30.9611 30.8426 26.8498 29.6679 23.4563Z" fill="#808080"/>
<path fill-rule="evenodd" clip-rule="evenodd" d="M29.6679 23.4563C33.3877 22.4775 37.1727 23.0648 39.1305 25.6099C39.9789 26.9803 40.4357 28.416 40.6314 29.917C39.5873 30.6348 38.2821 31.2874 36.8464 31.7443C33.4529 29.7212 30.6468 26.3277 29.6679 23.4563Z" fill="#808080"/>
<path fill-rule="evenodd" clip-rule="evenodd" d="M31.0384 23.1961C34.3013 22.674 37.3685 23.3919 39.1305 25.676C40.3052 27.6337 40.8273 29.722 40.762 31.8756C36.0633 30.8967 32.1478 27.0464 31.0384 23.1961Z" fill="#808080"/>
<path fill-rule="evenodd" clip-rule="evenodd" d="M31.0384 23.1961C34.3013 22.674 37.3685 23.3919 39.1305 25.676C39.9789 27.0464 40.4357 28.4821 40.6315 29.9831C40.3052 30.5051 39.9789 31.0272 39.5873 31.5493C35.476 30.2441 32.0825 26.7201 31.0384 23.1961Z" fill="#808080"/>
<path fill-rule="evenodd" clip-rule="evenodd" d="M21.38 46.1672C18.9655 48.5165 17.6603 47.0808 18.7697 45.3188C19.8138 43.6874 20.858 42.1211 21.8369 40.4897C23.4031 38.1403 26.6008 40.2939 24.8388 42.5127C23.7294 44.0137 22.62 45.1231 21.38 46.1672Z" fill="#808080"/>
<path fill-rule="evenodd" clip-rule="evenodd" d="M34.2361 23.7172C35.476 23.7825 36.4549 24.2393 36.4549 24.6308C36.4549 25.0224 35.476 25.2834 34.2361 25.2182C32.9962 25.1529 32.0173 24.6961 32.0173 24.3045C32.0173 23.8477 32.9962 23.5867 34.2361 23.7172Z" fill="#5A5959"/>
<path fill-rule="evenodd" clip-rule="evenodd" d="M29.4069 30.6348C31.8215 30.6348 33.714 32.5925 33.714 34.9419C33.714 37.3565 31.7562 39.249 29.4069 39.249C27.0576 39.249 25.0998 37.2912 25.0998 34.9419C25.0345 32.5925 26.9923 30.6348 29.4069 30.6348Z" fill="#6D6D6C"/>
<path fill-rule="evenodd" clip-rule="evenodd" d="M29.4069 31.6143C31.2994 31.6143 32.8004 33.1152 32.8004 35.0077C32.8004 36.9002 31.2994 38.4012 29.4069 38.4012C27.5144 38.4012 26.0134 36.9002 26.0134 35.0077C26.0134 33.1152 27.5144 31.6143 29.4069 31.6143Z" fill="#5A5959"/>
<path fill-rule="evenodd" clip-rule="evenodd" d="M29.4722 35.53C30.7121 35.3995 31.7562 35.7911 31.8215 36.3784C31.8868 36.9657 30.9079 37.6183 29.7332 37.7488C28.4933 37.8794 27.4491 37.4878 27.3839 36.9005C27.2534 36.2479 28.2323 35.6606 29.4722 35.53Z" fill="#808080"/>
</g>
</g>
<defs>
<filter id="filter0_i_13448_11019" x="0" y="0" width="180" height="80" filterUnits="userSpaceOnUse" color-interpolation-filters="sRGB">
<feFlood flood-opacity="0" result="BackgroundImageFix"/>
<feBlend mode="normal" in="SourceGraphic" in2="BackgroundImageFix" result="shape"/>
<feColorMatrix in="SourceAlpha" type="matrix" values="0 0 0 0 0 0 0 0 0 0 0 0 0 0 0 0 0 0 127 0" result="hardAlpha"/>
<feOffset dy="-1"/>
<feComposite in2="hardAlpha" operator="arithmetic" k2="-1" k3="1"/>
<feColorMatrix type="matrix" values="0 0 0 0 0.533333 0 0 0 0 0.521569 0 0 0 0 0.521569 0 0 0 0.5 0"/>
<feBlend mode="normal" in2="shape" result="effect1_innerShadow_13448_11019"/>
</filter>
<clipPath id="clip0_13448_11019">
<rect width="157.731" height="34" fill="white" transform="translate(11.1343 23)"/>
</clipPath>
</defs>
</svg>
