<svg width="180" height="80" viewBox="0 0 180 80" fill="none" xmlns="http://www.w3.org/2000/svg">
<g filter="url(#filter0_ii_1063_28954)">
<g clip-path="url(#clip0_1063_28954)">
<path fill-rule="evenodd" clip-rule="evenodd" d="M139.759 30.0486C139.678 30.4491 139.598 30.8896 139.478 31.3301C139.278 32.2512 139.238 32.051 139.879 32.6917C140.159 32.972 140.479 33.2524 140.76 33.5728C140.84 33.6528 140.84 33.7329 140.88 33.813C140.8 33.8531 140.72 33.8931 140.64 33.8931C140.079 33.9732 139.518 34.0133 138.958 34.0934C138.717 34.1334 138.557 34.2135 138.477 34.4137C138.237 34.9344 137.956 35.455 137.716 35.9756C137.676 36.0557 137.596 36.0957 137.516 36.1758C137.476 36.0957 137.396 36.0557 137.356 35.9756C137.115 35.455 136.875 34.9344 136.635 34.4137C136.555 34.1735 136.395 34.0934 136.154 34.0533C135.594 33.9732 134.993 33.8931 134.432 33.813C134.352 33.813 134.272 33.7329 134.272 33.6929C134.272 33.6128 134.312 33.5327 134.352 33.4927C134.793 33.0922 135.233 32.6917 135.674 32.2912C135.834 32.1311 135.914 31.9709 135.874 31.7706C135.754 31.1699 135.674 30.6093 135.554 30.0086C135.554 29.9285 135.554 29.8083 135.594 29.8083C135.674 29.7683 135.754 29.8083 135.834 29.8083C136.355 30.0887 136.835 30.369 137.356 30.6894C137.556 30.8095 137.716 30.8095 137.916 30.6894C138.437 30.409 138.958 30.1287 139.478 29.8884C139.678 29.8083 139.719 29.8484 139.759 30.0486Z" fill="#808080"/>
<path fill-rule="evenodd" clip-rule="evenodd" d="M133.711 31.1697C133.631 31.1297 133.551 31.0896 133.471 31.0896C129.547 29.0472 125.462 27.4854 121.177 26.4442C119.335 26.0036 117.492 25.6432 115.61 25.4029C112.807 25.0425 110.004 24.8423 107.16 24.9624C105.558 25.0025 103.956 25.1627 102.355 25.3228C99.9918 25.5631 97.6691 26.0837 95.4264 26.8046C93.0637 27.5655 90.8611 28.6067 88.8988 30.1285C86.4559 32.0508 84.854 34.4936 84.3734 37.5773C83.8528 40.741 84.4535 43.7045 86.3758 46.3476C87.0566 47.2687 87.8976 48.0296 88.8587 48.6703C88.9388 48.7104 89.0189 48.7504 89.099 48.8305C89.139 48.7104 89.1791 48.6303 89.2191 48.5502C90.7009 44.6255 92.1426 40.7009 93.6243 36.7763C93.7044 36.5761 93.7845 36.496 94.0248 36.496C94.5855 36.536 95.1461 36.496 95.6667 36.496C95.867 36.496 95.9871 36.5761 96.0271 36.7763C97.3487 40.3806 98.6703 43.9848 99.9518 47.589C100.112 47.9895 100.232 48.3499 100.392 48.7904C102.274 47.589 103.516 45.9471 104.357 43.9047C104.397 43.9047 104.397 43.9447 104.437 43.9447C104.437 44.0649 104.437 44.185 104.437 44.2651C104.037 46.3075 102.955 47.9495 101.353 49.271C101.193 49.3912 101.033 49.5113 100.913 49.6314C100.793 49.7115 100.793 49.7916 100.833 49.9118C101.393 51.4336 101.954 52.9553 102.515 54.4371C102.595 54.6774 102.715 54.8776 102.835 55.0778C103.115 55.5184 103.516 55.6786 104.037 55.7586C104.197 55.7586 104.357 55.7987 104.557 55.7987C104.838 55.7586 104.878 55.8788 104.878 56.1191C104.878 56.3994 104.878 56.6397 104.878 56.92C102.275 56.92 99.6714 56.92 97.0283 56.92C97.0283 56.5596 97.0283 56.2392 97.0283 55.9188C97.0283 55.8788 97.1485 55.7987 97.2286 55.7987C97.5489 55.7586 97.8693 55.7987 98.1897 55.7186C99.1108 55.5584 99.5513 54.9977 99.311 54.0767C99.0707 53.0354 98.6703 51.9942 98.3098 50.953C95.5466 51.8741 92.8234 51.9141 90.1002 51.0331C90.0601 51.0331 90.0601 51.0731 90.0601 51.0731C89.6997 52.0743 89.2191 53.0354 89.059 54.1167C88.9388 54.8776 89.2992 55.4783 90.0601 55.6385C90.4606 55.7186 90.9011 55.7186 91.3416 55.7586C91.5419 55.7586 91.622 55.8387 91.622 56.039C91.622 56.2392 91.622 56.4394 91.622 56.6397C91.622 56.88 91.5819 56.9601 91.3416 56.9601C90.0601 56.9601 88.7786 56.9601 87.4971 56.9601C86.6561 56.9601 85.8151 56.9601 84.9741 56.9601C84.894 56.9601 84.7739 56.9601 84.6538 56.9601C84.6538 56.5996 84.6538 56.2793 84.6538 55.9188C84.6538 55.8788 84.7739 55.7987 84.854 55.7987C85.1343 55.7586 85.4147 55.7586 85.695 55.7186C86.0554 55.6786 86.3758 55.4783 86.536 55.1579C86.8163 54.7174 87.0566 54.2369 87.2568 53.7563C87.6974 52.675 88.0578 51.5937 88.4582 50.5125C88.4582 50.4724 88.4983 50.4324 88.4983 50.3523C88.1379 50.112 87.7374 49.9118 87.417 49.6715C84.9341 47.9495 83.3723 45.5466 82.6915 42.6232C81.8104 38.8988 82.291 35.3346 84.3334 32.0107C85.5749 30.0484 87.2568 28.5667 89.1791 27.3252C91.3416 25.9636 93.6644 25.0826 96.1072 24.4018C97.9094 23.9212 99.7115 23.5608 101.554 23.3205C104.077 23.0001 106.64 22.88 109.163 22.9601C111.165 23.0001 113.127 23.2404 115.09 23.5608C119.535 24.3217 123.78 25.6032 127.865 27.5254C129.867 28.4465 131.749 29.5278 133.551 30.8493C133.631 30.8894 133.671 30.9695 133.752 31.0496C133.792 31.1297 133.752 31.1697 133.711 31.1697ZM90.6208 49.5513C91.9423 50.4724 96.7079 50.6326 97.9094 49.8717C96.7079 46.4677 95.5065 43.0637 94.3051 39.6197C94.2651 39.6197 94.2651 39.6197 94.225 39.6197C93.0236 42.9035 91.8222 46.2274 90.6208 49.5513Z" fill="#808080"/>
<path fill-rule="evenodd" clip-rule="evenodd" d="M14.3711 38.4983C14.3711 38.5784 14.3711 38.6585 14.3711 38.7386C14.3711 43.7845 14.3711 48.8304 14.3711 53.8363C14.3711 54.0366 14.3711 54.2368 14.4111 54.437C14.4912 55.0778 14.8516 55.3982 15.5324 55.4382C15.6526 55.4382 15.7327 55.4382 15.8929 55.4382C15.8929 55.8387 15.8929 56.1991 15.8929 56.5996C15.8128 56.5996 15.7327 56.5996 15.6526 56.5996C14.2509 56.5996 12.8493 56.5996 11.4076 56.5996C11.2074 56.6396 11.1273 56.5595 11.1273 56.3593C11.1273 56.119 11.1273 55.8787 11.1273 55.6385C11.1273 55.5183 11.1673 55.4382 11.3275 55.4382C11.4076 55.4382 11.5277 55.4382 11.6078 55.4382C12.3287 55.3181 12.649 54.9977 12.649 54.2769C12.649 53.1956 12.649 52.1143 12.649 51.0731C12.649 46.9883 12.649 42.9435 12.649 38.8587C12.649 38.6585 12.649 38.4582 12.609 38.258C12.5289 37.7374 12.2486 37.4971 11.768 37.417C11.6879 37.417 11.6078 37.377 11.5277 37.377C11.1273 37.3369 11.1273 37.3369 11.1273 36.9365C11.1273 36.6962 11.0872 36.3758 11.2074 36.2557C11.3275 36.1355 11.6479 36.2156 11.8882 36.2156C13.3298 36.2156 14.7715 36.2156 16.1732 36.2156C16.3734 36.2156 16.4936 36.2557 16.5737 36.4959C18.4559 41.7822 20.3781 47.0283 22.3004 52.3145C22.3404 52.3946 22.3805 52.4747 22.4205 52.6349C22.5006 52.4747 22.5407 52.3946 22.5407 52.2745C24.4229 47.0283 26.3051 41.7421 28.1873 36.4959C28.2674 36.2957 28.3475 36.2557 28.5478 36.2557C30.0695 36.2557 31.5913 36.2557 33.1532 36.2557C33.2333 36.2557 33.3134 36.2557 33.4335 36.2557C33.4335 36.6561 33.4335 37.0165 33.4335 37.417C33.2333 37.4571 33.0731 37.4571 32.8728 37.4971C32.3122 37.5772 31.9918 37.8976 31.9518 38.4582C31.9518 38.6585 31.9117 38.8587 31.9117 39.059C31.9117 44.0248 31.9117 48.9906 31.9117 53.9565C31.9117 54.1567 31.9117 54.357 31.9518 54.5972C32.0319 55.1979 32.3923 55.5183 33.0731 55.5584C33.1932 55.5584 33.3134 55.5584 33.4335 55.5584C33.4335 55.9588 33.4335 56.3193 33.4335 56.7197C33.3534 56.7197 33.2733 56.7197 33.1532 56.7197C31.4311 56.7197 29.7091 56.7197 27.947 56.7197C27.7068 56.7197 27.6267 56.6797 27.6667 56.4394C27.6667 56.1991 27.6667 55.9588 27.6667 55.7586C27.6667 55.6385 27.7068 55.5584 27.867 55.5584C27.947 55.5584 28.0672 55.5584 28.1473 55.5584C28.8681 55.4382 29.1485 55.1178 29.1885 54.397C29.1885 54.0366 29.1885 53.6762 29.1885 53.3558C29.1885 48.5101 29.1885 43.7044 29.1885 38.8587C29.1885 38.7786 29.1885 38.6585 29.1885 38.5784H29.1485C29.1084 38.6585 29.1084 38.6985 29.0684 38.7786C26.9459 44.7056 24.8234 50.5925 22.7009 56.5195C22.6208 56.5595 22.5407 56.6396 22.3404 56.6396C22.0201 56.6396 21.6596 56.6396 21.3393 56.6396C21.139 56.6396 21.0589 56.5996 20.9788 56.3994C20.3781 54.7574 19.8175 53.1555 19.2168 51.5136C17.6549 47.2286 16.0931 42.9836 14.5713 38.6985C14.5313 38.6184 14.5313 38.5784 14.4912 38.4983C14.4111 38.4983 14.4111 38.4983 14.3711 38.4983Z" fill="#808080"/>
<path fill-rule="evenodd" clip-rule="evenodd" d="M135.393 36.4961C135.393 36.8165 135.393 37.1369 135.393 37.4572C135.393 37.4973 135.313 37.6174 135.273 37.6174C134.592 37.6975 134.192 38.098 133.952 38.6987C133.671 39.4996 133.391 40.3406 133.151 41.1416C131.669 46.2276 130.227 51.2735 128.786 56.3595C128.746 56.5197 128.666 56.5998 128.465 56.5998C127.784 56.5998 127.104 56.5998 126.423 56.5998C126.223 56.5998 126.183 56.5597 126.102 56.3595C124.621 51.2334 123.139 46.1475 121.657 41.0615C121.617 40.9814 121.617 40.9013 121.577 40.7812C121.537 40.9413 121.497 41.0214 121.457 41.1416C120.095 46.1875 118.694 51.2735 117.332 56.3194C117.252 56.5597 117.172 56.6398 116.932 56.6398C116.291 56.6398 115.61 56.6398 114.969 56.6398C114.729 56.6398 114.649 56.5597 114.569 56.3595C113.167 51.6339 111.806 46.9084 110.404 42.2228C110.124 41.2617 109.843 40.2605 109.523 39.2994C109.483 39.2193 109.483 39.0992 109.443 39.0191C109.082 37.9779 108.642 37.6575 107.561 37.6174C107.481 37.6174 107.36 37.6174 107.28 37.6174C107.2 37.5774 107.12 37.5373 107.12 37.4572C107.12 37.1369 107.12 36.8165 107.12 36.4961C109.723 36.4961 112.286 36.4961 114.889 36.4961C114.889 36.8165 114.889 37.1769 114.889 37.5373C114.889 37.5774 114.769 37.6174 114.689 37.6174C114.329 37.6575 113.968 37.6174 113.648 37.6975C112.807 37.8577 112.366 38.4985 112.607 39.3395C113.007 40.8212 113.408 42.343 113.848 43.8247C114.729 46.9484 115.61 50.0721 116.491 53.1958C116.531 53.3159 116.571 53.396 116.651 53.5161C116.772 53.1157 116.892 52.7152 116.972 52.3147C118.373 47.1887 119.735 42.0627 121.097 36.8966C121.137 36.7364 121.217 36.6563 121.377 36.6563C121.898 36.6563 122.418 36.6563 122.979 36.6563C123.139 36.6563 123.219 36.7364 123.259 36.8565C124.26 40.3406 125.262 43.8247 126.263 47.3088C126.783 49.151 127.304 50.9932 127.865 52.7953C127.865 52.8754 127.905 52.9154 127.945 53.0356C127.985 52.9154 128.025 52.8353 128.025 52.7953C129.226 48.6704 130.428 44.5856 131.629 40.4608C131.749 40.0603 131.829 39.6999 131.909 39.2994C132.07 38.2982 131.549 37.6975 130.548 37.6174C130.267 37.6174 129.987 37.5774 129.667 37.5774C129.506 37.5774 129.426 37.5373 129.426 37.3371C129.426 37.0968 129.426 36.8565 129.426 36.5762C129.426 36.4561 129.466 36.416 129.587 36.416C131.509 36.416 133.471 36.416 135.393 36.416C135.353 36.4561 135.353 36.4961 135.393 36.4961Z" fill="#808080"/>
<path fill-rule="evenodd" clip-rule="evenodd" d="M157.7 34.894C157.7 37.7374 157.7 40.5407 157.7 43.4241C157.78 43.3039 157.82 43.2639 157.82 43.2238C158.501 41.9824 159.582 41.3016 160.944 41.1013C162.025 40.9412 163.146 40.9812 164.187 41.3817C165.549 41.9023 166.31 42.9035 166.71 44.3051C166.911 45.066 166.991 45.8269 166.991 46.5878C166.991 49.0307 166.991 51.4735 166.991 53.8764C166.991 54.1167 167.031 54.397 167.071 54.6373C167.271 55.4382 167.832 55.8787 168.673 55.9188C168.713 55.9188 168.753 55.9188 168.833 55.9188C168.753 56.2392 168.552 56.4394 168.352 56.6396C167.912 56.96 167.431 57.0801 166.911 57.0401C166.15 57.0001 165.429 56.7998 164.908 56.1991C164.508 55.7185 164.307 55.1579 164.307 54.5572C164.307 51.9541 164.307 49.311 164.307 46.7079C164.307 46.1873 164.227 45.6267 164.107 45.1061C163.787 43.7044 162.946 43.0236 161.504 42.9035C160.103 42.7833 159.101 43.344 158.421 44.5454C158.18 45.026 157.98 45.5466 157.86 46.0672C157.74 46.6278 157.66 47.2286 157.66 47.8293C157.62 49.9518 157.66 52.0743 157.66 54.2368C157.66 54.397 157.7 54.5972 157.7 54.7574C157.78 55.238 158.14 55.5183 158.781 55.5584C158.861 55.5584 158.941 55.5584 158.981 55.5584C159.101 55.5584 159.141 55.5984 159.141 55.7185C159.141 55.9989 159.141 56.2792 159.141 56.5595C159.141 56.6797 159.101 56.7598 158.941 56.7197C158.901 56.7197 158.821 56.7197 158.781 56.7197C157.099 56.7197 155.417 56.7197 153.775 56.7197C153.655 56.7197 153.575 56.7197 153.455 56.7197C153.455 56.3193 153.455 55.9588 153.455 55.5584C153.655 55.5183 153.895 55.5183 154.095 55.4783C154.616 55.3982 154.896 55.0778 154.936 54.5572C154.977 54.3169 154.977 54.0366 154.977 53.7963C154.977 48.3899 154.977 43.0236 154.977 37.6172C154.977 37.417 154.977 37.2168 154.936 36.9765C154.856 36.4158 154.496 36.1355 153.855 36.0955C153.455 36.0554 153.455 36.0554 153.455 35.6549C153.455 35.4147 153.455 35.1744 153.455 34.9341C154.896 34.894 156.298 34.894 157.7 34.894Z" fill="#808080"/>
<path fill-rule="evenodd" clip-rule="evenodd" d="M53.2168 49.1508C53.2568 49.0707 53.2568 48.9906 53.3369 48.9506C54.8587 47.2686 56.4205 45.5866 57.9423 43.9046C58.1025 43.7044 58.2627 43.4641 58.3828 43.2238C58.543 42.9035 58.4229 42.7032 58.1025 42.5831C57.8622 42.503 57.6219 42.503 57.3817 42.4629C57.3016 42.4629 57.2215 42.3428 57.2215 42.3028C57.2215 42.0224 57.2215 41.7421 57.2215 41.4618C57.2215 41.3416 57.2615 41.3016 57.3817 41.3016C59.1838 41.3016 60.9859 41.3016 62.788 41.3016C62.8281 41.3016 62.8281 41.3016 62.8681 41.3416C62.8681 41.7021 62.8681 42.1025 62.8681 42.503C61.6667 42.543 60.8257 43.2238 60.0248 43.9847C59.6644 44.3051 59.344 44.6655 59.0236 45.026C58.3428 45.7869 57.702 46.5478 57.0212 47.2686C56.9011 47.3887 56.9011 47.5089 56.9812 47.6691C58.3028 49.6314 59.6243 51.5937 60.9459 53.5159C61.2662 53.9965 61.6667 54.397 62.0672 54.7975C62.5477 55.278 63.1084 55.5183 63.7892 55.5183C63.8293 55.5183 63.8693 55.5183 63.9494 55.5183C63.8293 56.079 63.5089 56.4794 63.0283 56.7598C62.5077 57.0401 61.947 57 61.4264 56.96C60.5454 56.8799 59.9447 56.3192 59.4241 55.6785C58.4229 54.5572 57.662 53.2757 56.8611 52.0342C56.3004 51.1932 55.7798 50.3923 55.2592 49.5513C55.2191 49.5112 55.1791 49.4712 55.099 49.311C55.0589 49.3911 55.0189 49.4712 54.9788 49.5513C54.4582 50.152 53.8976 50.7527 53.377 51.3534C53.2969 51.4335 53.2568 51.5937 53.2568 51.6738C53.2568 52.4747 53.2568 53.2757 53.2568 54.0766C53.2568 54.2768 53.2969 54.437 53.2969 54.6373C53.417 55.1579 53.7774 55.4382 54.4182 55.4783C54.5383 55.4783 54.6585 55.4783 54.7786 55.4783C54.7786 55.6785 54.7786 55.8787 54.7786 56.079C54.7786 56.2792 54.7786 56.4394 54.7786 56.6396C54.6985 56.6396 54.5784 56.6396 54.4983 56.6396C52.7762 56.6396 51.0542 56.6396 49.3322 56.6396C49.132 56.6396 49.0118 56.5996 49.0519 56.3593C49.0519 56.119 49.0519 55.8787 49.0519 55.6785C49.0519 55.5183 49.0919 55.4382 49.2521 55.4783C49.3322 55.4783 49.4123 55.4783 49.5324 55.4783C50.2533 55.3982 50.5336 55.0778 50.5737 54.3569C50.5737 54.1968 50.5737 54.0766 50.5737 53.9164C50.5737 48.47 50.5737 43.0637 50.5737 37.6172C50.5737 37.417 50.5737 37.1767 50.5336 36.9765C50.4535 36.4158 50.1331 36.1355 49.5725 36.0955C49.0519 36.0554 49.0519 36.0554 49.0519 35.5348C49.0519 34.894 49.0519 34.894 49.6926 34.894C50.7338 34.894 51.8151 34.894 52.8563 34.894C53.2568 34.894 53.2568 34.894 53.2568 35.2545C53.2568 39.7798 53.2568 44.3051 53.2568 48.7904C53.2568 48.9105 53.2568 48.9906 53.2568 49.1108C53.1367 49.1108 53.1767 49.1508 53.2168 49.1508Z" fill="#808080"/>
<path fill-rule="evenodd" clip-rule="evenodd" d="M43.6455 54.1568C43.5654 54.317 43.5254 54.3971 43.4453 54.4772C42.7645 55.8789 41.6031 56.5597 40.1214 56.8C39.2804 56.9201 38.3993 56.9201 37.5583 56.7199C35.9164 56.3194 34.9553 55.1981 34.6349 53.5962C34.4747 52.7552 34.4747 51.9543 34.6349 51.1133C34.9152 49.9519 35.6361 49.151 36.6773 48.6303C37.6785 48.1097 38.7598 47.8694 39.841 47.7894C40.9223 47.7093 42.0436 47.7093 43.1249 47.6692C43.205 47.6692 43.2851 47.6692 43.4052 47.6692C43.4052 47.5491 43.4453 47.469 43.4453 47.3889C43.4052 46.4678 43.4052 45.5467 43.3652 44.6657C43.3251 44.3053 43.245 43.9849 43.1249 43.6645C42.8045 42.8636 42.0837 42.5031 41.2827 42.423C40.8422 42.383 40.3616 42.383 39.9211 42.5031C38.96 42.7034 38.3593 43.3842 38.2391 44.3854C38.1991 44.7458 38.1591 45.1462 38.119 45.5067C37.5584 45.5067 37.0377 45.4666 36.5171 45.1863C36.0366 44.946 35.8363 44.5455 35.7562 44.065C35.6361 43.1038 35.9965 42.383 36.7975 41.8624C37.4783 41.4219 38.1991 41.2216 39 41.1415C40.1214 40.9813 41.2026 40.9413 42.324 41.1015C43.2851 41.2216 44.1661 41.502 44.927 42.1828C45.5678 42.7835 45.8881 43.5844 46.0483 44.4654C46.1284 45.0261 46.1685 45.5868 46.1685 46.1474C46.1685 48.5903 46.1685 51.0332 46.1685 53.476C46.1685 53.8365 46.2085 54.2369 46.2886 54.5974C46.4889 55.3182 47.0095 55.6386 47.7704 55.5184C47.8505 55.5184 47.9305 55.5184 48.0106 55.4784C48.0507 55.7988 47.9305 56.0791 47.7303 56.3194C47.3699 56.7599 46.8893 56.84 46.3687 56.88C45.2874 56.9601 44.6066 56.3995 44.1661 55.4784C44.0059 55.118 43.8858 54.7175 43.7656 54.317C43.6856 54.317 43.6856 54.277 43.6455 54.1568ZM43.4853 50.1521C43.4453 50.1521 43.4453 50.1521 43.4052 50.1521C43.4052 49.9519 43.4052 49.7116 43.4052 49.5114C43.4052 48.9107 43.4052 48.9107 42.8446 48.9107C41.6832 48.9107 40.5619 48.9107 39.4406 49.231C38.4794 49.5114 37.7185 50.072 37.4382 51.1133C37.1979 51.9142 37.1579 52.7552 37.3581 53.5962C37.5583 54.3971 38.0389 54.9177 38.8399 55.118C39.1602 55.1981 39.4406 55.1981 39.7609 55.1981C41.483 55.158 42.8446 54.1568 43.205 52.4749C43.4052 51.714 43.4052 50.913 43.4853 50.1521Z" fill="#808080"/>
<path fill-rule="evenodd" clip-rule="evenodd" d="M75.7233 49.1509C75.6031 49.1509 75.483 49.1509 75.4029 49.1509C72.4394 49.1509 69.4759 49.1509 66.5125 49.1509C66.1921 49.1509 66.152 49.1509 66.1921 49.4713C66.2321 50.5526 66.3523 51.6338 66.7527 52.6751C67.5136 54.5973 68.9553 55.2381 70.7574 55.158C71.9989 55.1179 73.0802 54.6774 74.0013 53.8364C74.2015 53.6362 74.4017 53.3959 74.642 53.1556C74.9223 53.3158 75.0825 53.5561 75.1226 53.8765C75.2027 54.4772 74.9624 54.9577 74.5619 55.3983C74.0013 56.039 73.2404 56.3994 72.4394 56.5997C70.8776 57.0402 69.3558 57.0402 67.794 56.5596C65.8317 55.9189 64.6302 54.5172 63.9895 52.595C63.549 51.2734 63.4689 49.8718 63.4689 48.4701C63.5089 47.2687 63.6691 46.0673 64.0696 44.9059C64.8305 42.7834 66.3122 41.4619 68.5549 41.1014C69.8364 40.9012 71.0778 40.9813 72.2792 41.4218C74.0013 42.1026 74.9223 43.4242 75.4029 45.1061C75.7633 46.4277 75.7233 47.7493 75.7233 49.1509ZM72.7998 47.6291C72.7998 47.3087 72.7998 47.0284 72.7998 46.7481C72.7598 45.827 72.5996 44.946 72.2392 44.105C71.9188 43.4642 71.4783 42.9036 70.7574 42.6633C69.3558 42.1827 67.794 42.5832 67.0331 44.145C66.5525 45.0661 66.3523 46.0272 66.2722 47.0284C66.2722 47.1886 66.2321 47.3888 66.2321 47.5891C68.4347 47.6291 70.6373 47.6291 72.7998 47.6291Z" fill="#808080"/>
<path fill-rule="evenodd" clip-rule="evenodd" d="M143.643 51.9542C143.683 52.3546 143.723 52.7952 143.803 53.1956C144.084 54.6373 145.085 55.4783 146.446 55.5584C147.247 55.5985 148.048 55.5184 148.769 55.1179C149.931 54.4771 150.211 53.0755 149.81 52.0743C149.69 51.794 149.45 51.5137 149.21 51.2734C148.529 50.7127 147.728 50.3923 146.967 50.0319C146.006 49.5914 145.085 49.1509 144.164 48.6303C143.323 48.1497 142.602 47.4689 142.362 46.5078C141.961 45.0661 142.041 43.7045 143.123 42.5431C143.763 41.8623 144.604 41.4618 145.525 41.2616C146.887 40.9412 148.289 40.9012 149.61 41.3417C150.371 41.582 151.052 41.9424 151.452 42.6632C151.933 43.5443 151.733 44.5455 150.972 45.026C150.611 45.2663 150.211 45.3464 149.81 45.3464C149.69 45.3464 149.65 45.3064 149.65 45.1862C149.61 44.7857 149.57 44.3853 149.49 44.0249C149.17 42.9035 148.489 42.3829 147.368 42.3429C146.807 42.3028 146.206 42.3829 145.686 42.6232C144.885 42.9836 144.524 43.6244 144.484 44.4654C144.404 45.4265 144.805 46.1473 145.646 46.5879C146.366 46.9883 147.127 47.3087 147.888 47.6291C148.849 48.0296 149.77 48.4701 150.651 49.0307C151.933 49.9118 152.413 51.1132 152.373 52.635C152.333 54.1167 151.693 55.2781 150.451 56.039C149.891 56.3994 149.25 56.5996 148.569 56.7198C147.167 56.9601 145.766 56.9601 144.404 56.5996C143.763 56.4395 143.203 56.1191 142.722 55.6385C142.041 54.9177 141.841 53.6762 142.282 52.8352C142.442 52.2746 143.083 51.8741 143.643 51.9542Z" fill="#808080"/>
<path fill-rule="evenodd" clip-rule="evenodd" d="M134.993 56.5998C134.993 56.1993 134.993 55.8389 134.993 55.4784C135.193 55.4384 135.393 55.4384 135.594 55.3984C136.154 55.2782 136.395 54.9979 136.475 54.4372C136.515 54.237 136.515 53.9967 136.515 53.7965C136.515 50.5927 136.515 47.3489 136.515 44.1451C136.515 43.8648 136.515 43.5845 136.435 43.3442C136.355 42.8236 136.074 42.5833 135.514 42.5032C135.353 42.4631 135.153 42.4631 134.953 42.4231C135.073 42.0627 135.153 41.7022 135.273 41.3418C135.273 41.3018 135.353 41.2617 135.433 41.2617C136.635 41.2617 137.876 41.2617 139.118 41.2617C139.118 41.3819 139.118 41.502 139.118 41.5821C139.118 45.6669 139.118 49.7517 139.118 53.8766C139.118 54.1168 139.118 54.3171 139.158 54.5574C139.238 55.118 139.598 55.3983 140.279 55.4384C140.399 55.4384 140.519 55.4384 140.64 55.4384C140.64 55.8389 140.64 56.1993 140.64 56.5998C138.797 56.5998 136.915 56.5998 134.993 56.5998Z" fill="#808080"/>
<path fill-rule="evenodd" clip-rule="evenodd" d="M80.3287 49.1106C79.8882 49.1106 79.4476 49.1106 79.0071 49.1106C78.6867 49.1106 78.5266 48.9504 78.5266 48.63C78.5266 48.5099 78.5266 48.4298 78.5266 48.3097C78.5266 48.0694 78.6867 47.9092 78.927 47.9092C79.8481 47.9092 80.7692 47.9092 81.7303 47.9092C81.9706 47.9092 82.0907 48.0694 82.1308 48.3097C82.1708 49.0305 82.0907 49.0705 81.3699 49.0705C81.0095 49.1106 80.6891 49.1106 80.3287 49.1106Z" fill="#808080"/>
<path fill-rule="evenodd" clip-rule="evenodd" d="M107 47.9492C107.441 47.9492 107.881 47.9492 108.362 47.9492C108.682 47.9492 108.802 48.0694 108.802 48.3897C108.842 49.0705 108.762 49.1106 108.081 49.1106C107.28 49.1106 106.519 49.1106 105.719 49.1106C105.358 49.1106 105.198 48.9905 105.198 48.59C105.198 48.5099 105.198 48.4298 105.198 48.3497C105.198 48.0694 105.358 47.9092 105.638 47.9092C106.119 47.9492 106.56 47.9492 107 47.9492Z" fill="#808080"/>
</g>
</g>
<defs>
<filter id="filter0_ii_1063_28954" x="0" y="0" width="180" height="80" filterUnits="userSpaceOnUse" color-interpolation-filters="sRGB">
<feFlood flood-opacity="0" result="BackgroundImageFix"/>
<feBlend mode="normal" in="SourceGraphic" in2="BackgroundImageFix" result="shape"/>
<feColorMatrix in="SourceAlpha" type="matrix" values="0 0 0 0 0 0 0 0 0 0 0 0 0 0 0 0 0 0 127 0" result="hardAlpha"/>
<feOffset dy="-1"/>
<feComposite in2="hardAlpha" operator="arithmetic" k2="-1" k3="1"/>
<feColorMatrix type="matrix" values="0 0 0 0 0.533333 0 0 0 0 0.521569 0 0 0 0 0.521569 0 0 0 0.5 0"/>
<feBlend mode="normal" in2="shape" result="effect1_innerShadow_1063_28954"/>
<feColorMatrix in="SourceAlpha" type="matrix" values="0 0 0 0 0 0 0 0 0 0 0 0 0 0 0 0 0 0 127 0" result="hardAlpha"/>
<feOffset dx="-1"/>
<feComposite in2="hardAlpha" operator="arithmetic" k2="-1" k3="1"/>
<feColorMatrix type="matrix" values="0 0 0 0 0.533333 0 0 0 0 0.527729 0 0 0 0 0.522222 0 0 0 0.5 0"/>
<feBlend mode="normal" in2="effect1_innerShadow_1063_28954" result="effect2_innerShadow_1063_28954"/>
</filter>
<clipPath id="clip0_1063_28954">
<rect width="157.746" height="34" fill="white" transform="translate(11.1272 23)"/>
</clipPath>
</defs>
</svg>
