<svg width="180" height="80" viewBox="0 0 180 80" fill="none" xmlns="http://www.w3.org/2000/svg">
<g filter="url(#filter0_ii_13448_11042)">
<g clip-path="url(#clip0_13448_11042)">
<path fill-rule="evenodd" clip-rule="evenodd" d="M65.2714 51.7719C61.8842 54.9916 57.3729 56.7603 52.7 56.7005C48.0039 56.7714 43.4663 55.0025 40.0572 51.7719C38.4531 50.2165 37.1778 48.3547 36.3069 46.297C35.436 44.2393 34.9872 42.0277 34.9872 39.7933C34.9872 37.559 35.436 35.3474 36.3069 33.2897C37.1778 31.232 38.4531 29.3702 40.0572 27.8148C43.4619 24.565 48.0081 22.7845 52.7143 22.8576C57.3872 22.7978 61.8985 24.5665 65.2857 27.7862C66.8916 29.3406 68.1684 31.2021 69.0405 33.2599C69.9125 35.3177 70.3619 37.5298 70.3619 39.7648C70.3619 41.9997 69.9125 44.2119 69.0405 46.2697C68.1684 48.3275 66.8916 50.1889 65.2857 51.7434L65.2714 51.7719ZM52.7143 28.3719C51.2227 28.3575 49.7436 28.6454 48.3664 29.2183C46.9891 29.7912 45.7422 30.6372 44.7009 31.7052C43.6595 32.7733 42.8454 34.0412 42.3075 35.4325C41.7697 36.8239 41.5193 38.3097 41.5714 39.8005C41.5714 41.26 41.8589 42.7053 42.4175 44.0537C42.976 45.4022 43.7947 46.6274 44.8267 47.6595C45.8588 48.6915 47.084 49.5102 48.4325 50.0688C49.7809 50.6273 51.2262 50.9148 52.6857 50.9148C54.1453 50.9148 55.5905 50.6273 56.939 50.0688C58.2874 49.5102 59.5127 48.6915 60.5447 47.6595C61.5768 46.6274 62.3954 45.4022 62.954 44.0537C63.5125 42.7053 63.8 41.26 63.8 39.8005C63.852 38.3146 63.6033 36.8335 63.069 35.446C62.5346 34.0585 61.7256 32.7932 60.6904 31.726C59.6552 30.6588 58.4151 29.8116 57.0445 29.2352C55.674 28.6589 54.2011 28.3652 52.7143 28.3719ZM107 26.8433L93.4143 57.1434L92.6429 57.0005C88.7572 56.3005 87.9714 55.3291 86.1572 51.3862L75.9714 29.2005H72.1429V23.8148H86.6143V29.2005H83.1572L91.3429 47.5576L99.2857 29.2005H95V23.8148H107V26.8433ZM139.857 51.7719C136.426 54.9405 131.927 56.7001 127.257 56.7001C122.587 56.7001 118.088 54.9405 114.657 51.7719C113.053 50.2165 111.778 48.3547 110.907 46.297C110.036 44.2393 109.587 42.0277 109.587 39.7933C109.587 37.559 110.036 35.3474 110.907 33.2897C111.778 31.232 113.053 29.3702 114.657 27.8148C118.088 24.6462 122.587 22.8866 127.257 22.8866C131.927 22.8866 136.426 24.6462 139.857 27.8148C141.467 29.3672 142.747 31.2279 143.621 33.286C144.495 35.3441 144.946 37.5573 144.946 39.7933C144.946 42.0294 144.495 44.2426 143.621 46.3007C142.747 48.3588 141.467 50.2195 139.857 51.7719ZM127.357 28.3719C125.865 28.3576 124.385 28.6454 123.007 29.2182C121.629 29.7909 120.381 30.6367 119.339 31.7045C118.296 32.7723 117.481 34.0401 116.942 35.4315C116.402 36.8229 116.15 38.309 116.2 39.8005C116.2 41.26 116.488 42.7053 117.046 44.0537C117.605 45.4022 118.423 46.6274 119.455 47.6595C120.487 48.6915 121.713 49.5102 123.061 50.0688C124.41 50.6273 125.855 50.9148 127.314 50.9148C128.774 50.9148 130.219 50.6273 131.568 50.0688C132.916 49.5102 134.141 48.6915 135.173 47.6595C136.205 46.6274 137.024 45.4022 137.583 44.0537C138.141 42.7053 138.429 41.26 138.429 39.8005C138.483 38.3153 138.236 36.8345 137.703 35.4471C137.17 34.0596 136.363 32.7942 135.328 31.7268C134.294 30.6593 133.055 29.8119 131.685 29.2354C130.316 28.6589 128.843 28.3652 127.357 28.3719Z" fill="#808080"/>
</g>
</g>
<defs>
<filter id="filter0_ii_13448_11042" x="0" y="0" width="180" height="80" filterUnits="userSpaceOnUse" color-interpolation-filters="sRGB">
<feFlood flood-opacity="0" result="BackgroundImageFix"/>
<feBlend mode="normal" in="SourceGraphic" in2="BackgroundImageFix" result="shape"/>
<feColorMatrix in="SourceAlpha" type="matrix" values="0 0 0 0 0 0 0 0 0 0 0 0 0 0 0 0 0 0 127 0" result="hardAlpha"/>
<feOffset dy="-1"/>
<feComposite in2="hardAlpha" operator="arithmetic" k2="-1" k3="1"/>
<feColorMatrix type="matrix" values="0 0 0 0 0.533333 0 0 0 0 0.521569 0 0 0 0 0.521569 0 0 0 0.5 0"/>
<feBlend mode="normal" in2="shape" result="effect1_innerShadow_13448_11042"/>
<feColorMatrix in="SourceAlpha" type="matrix" values="0 0 0 0 0 0 0 0 0 0 0 0 0 0 0 0 0 0 127 0" result="hardAlpha"/>
<feOffset dx="-1"/>
<feComposite in2="hardAlpha" operator="arithmetic" k2="-1" k3="1"/>
<feColorMatrix type="matrix" values="0 0 0 0 0.533333 0 0 0 0 0.527729 0 0 0 0 0.522222 0 0 0 0.5 0"/>
<feBlend mode="normal" in2="effect1_innerShadow_13448_11042" result="effect2_innerShadow_13448_11042"/>
</filter>
<clipPath id="clip0_13448_11042">
<rect width="110" height="34.2857" fill="white" transform="translate(35 22.8574)"/>
</clipPath>
</defs>
</svg>
