<svg width="180" height="80" viewBox="0 0 180 80" fill="none" xmlns="http://www.w3.org/2000/svg">
<g filter="url(#filter0_ii_13448_10989)">
<path d="M129.168 2.46358C134.546 2.93616 139.362 9.21471 141.95 13.2879C145.978 19.6339 148.701 27.1727 148.836 34.7565C148.836 34.8915 148.948 34.914 149.038 34.869C149.218 34.734 149.398 34.6214 149.556 34.4864C149.758 34.3289 149.984 34.1489 150.186 33.9913C150.321 33.8788 150.479 33.7438 150.614 33.6313C150.704 33.5413 150.771 33.4062 150.771 33.1812C150.546 24.9673 148.048 16.7535 142.917 10.2724C140.374 7.05435 135.739 2.59861 131.08 1.69846C131.08 1.69846 130.743 1.63095 130.18 1.58594H128.988C127.277 1.69846 124.847 2.35107 123.317 4.984L123.744 5.88415C124.532 2.01351 129.168 2.46358 129.168 2.46358Z" fill="#50504F"/>
<path d="M155.111 28.4742C155.201 28.3167 155.381 27.9792 155.381 27.9792C155.448 27.8666 155.786 27.124 155.943 26.8315V26.7865C148.81 26.4714 141.991 23.3434 135.893 19.8553C132.63 17.965 129.164 16.0072 126.621 13.1717C124.866 11.2139 123.425 8.51342 123.831 5.88048C124.101 4.73279 125.091 3.49508 126.486 3C125.743 3.22504 125.023 3.56259 124.281 4.05768C124.168 4.17019 124.056 4.26021 123.943 4.37273C121.625 7.25321 122.345 11.2589 124.371 14.3194C126.779 17.9425 130.942 20.8455 134.677 22.9608C138.661 25.2112 142.959 26.9215 147.392 28.0017C149.485 28.4968 151.353 28.6093 153.49 28.7668C153.648 28.7668 153.806 28.7893 153.963 28.7893H154.661C154.886 28.7443 155.021 28.6318 155.111 28.4742Z" fill="#50504F"/>
<path d="M29.4311 75.0832C29.4311 75.6008 29.4536 76.1184 29.5436 76.546H28.5309L28.4409 75.7808H28.3959C28.0584 76.2534 27.4058 76.681 26.5281 76.681C25.2904 76.681 24.6828 75.8258 24.6828 74.9482C24.6828 73.4854 25.988 72.6753 28.3284 72.6978V72.5628C28.3284 72.0677 28.1934 71.1676 26.9557 71.1676C26.3931 71.1676 25.808 71.3476 25.3804 71.6176L25.1329 70.8975C25.628 70.5825 26.3706 70.3574 27.1357 70.3574C28.981 70.3574 29.4311 71.6176 29.4311 72.8328V75.0832ZM28.3734 73.4629C27.1582 73.4404 25.808 73.643 25.808 74.8357C25.808 75.5558 26.2806 75.8933 26.8432 75.8933C27.6308 75.8933 28.1259 75.3983 28.3059 74.8807C28.3509 74.7682 28.3734 74.6331 28.3734 74.5206V73.4629Z" fill="#808080"/>
<path d="M32.3573 68.7816C32.3798 69.1642 32.0872 69.4567 31.6597 69.4567C31.2771 69.4567 30.9846 69.1417 30.9846 68.7816C30.9846 68.399 31.2771 68.084 31.6822 68.084C32.0872 68.084 32.3573 68.3765 32.3573 68.7816ZM31.1196 70.4694H32.2223V76.5454H31.1196V70.4694Z" fill="#808080"/>
<path d="M34.2024 72.3593C34.2024 71.6392 34.1799 71.0316 34.1574 70.469H35.1251L35.1701 71.6617H35.2151C35.4851 70.8516 36.1602 70.334 36.9029 70.334C37.0379 70.334 37.1279 70.3565 37.2179 70.379V71.4142C37.1054 71.3917 36.9929 71.3692 36.8354 71.3692C36.0477 71.3692 35.5076 71.9543 35.3501 72.7869C35.3276 72.9444 35.3051 73.1245 35.3051 73.3045V76.545H34.2024V72.3593Z" fill="#808080"/>
<path d="M38.4328 72.4728C38.4328 71.6851 38.4103 71.0775 38.3878 70.4924H39.378L39.423 71.5276H39.4455C39.8956 70.785 40.6157 70.3574 41.6059 70.3574C43.0686 70.3574 44.1713 71.5951 44.1713 73.4404C44.1713 75.6233 42.8436 76.7035 41.4033 76.7035C40.5932 76.7035 39.8956 76.3434 39.5355 75.7583H39.513V79.0664H38.4103V72.4728H38.4328ZM39.513 74.0705C39.513 74.2281 39.5355 74.3856 39.558 74.5206C39.7605 75.2857 40.4132 75.8033 41.2233 75.8033C42.3935 75.8033 43.0686 74.8582 43.0686 73.4629C43.0686 72.2477 42.4385 71.2126 41.2683 71.2126C40.5257 71.2126 39.8056 71.7527 39.603 72.5853C39.558 72.7203 39.5355 72.8778 39.5355 73.0354L39.513 74.0705Z" fill="#808080"/>
<path d="M50.9226 73.462C50.9226 75.7124 49.3698 76.68 47.9071 76.68C46.2643 76.68 45.0041 75.4873 45.0041 73.552C45.0041 71.5267 46.3318 70.334 48.0196 70.334C49.7524 70.334 50.9226 71.6167 50.9226 73.462ZM46.1068 73.5295C46.1068 74.8572 46.8719 75.8699 47.9521 75.8699C49.0098 75.8699 49.7974 74.8797 49.7974 73.507C49.7974 72.4718 49.2798 71.1891 47.9746 71.1891C46.6694 71.1666 46.1068 72.3818 46.1068 73.5295Z" fill="#808080"/>
<path d="M52.138 72.3593C52.138 71.6392 52.1155 71.0316 52.093 70.469H53.0606L53.1056 71.6617H53.1506C53.4207 70.8516 54.0958 70.334 54.8384 70.334C54.9734 70.334 55.0635 70.3565 55.1535 70.379V71.4142C55.041 71.3917 54.9284 71.3692 54.7709 71.3692C53.9833 71.3692 53.4432 71.9543 53.2857 72.7869C53.2632 72.9444 53.2406 73.1245 53.2406 73.3045V76.545H52.1605L52.138 72.3593Z" fill="#808080"/>
<path d="M58.1691 69.0293V70.492H59.7443V71.3247H58.1691V74.6102C58.1691 75.3528 58.3941 75.7804 59.0017 75.7804C59.2943 75.7804 59.4743 75.7579 59.6318 75.7129L59.6768 76.5455C59.4743 76.6356 59.1367 76.7031 58.7092 76.7031C58.1916 76.7031 57.7865 76.523 57.5165 76.2305C57.2014 75.9154 57.0889 75.3754 57.0889 74.6552V71.3472H56.1437V70.5145H57.0889V69.3894L58.1691 69.0293Z" fill="#808080"/>
<path d="M150.164 44.0953C149.039 44.9055 147.846 45.6481 146.563 46.2557C146.361 46.3457 146.271 46.5933 146.271 46.7733V62.751H150.726V44.4779C150.749 43.5778 150.164 44.0953 150.164 44.0953Z" fill="#808080"/>
<path d="M41.2008 54.6494L41.0658 54.8519C39.153 57.9799 37.0376 59.3076 34.0896 59.3076C29.9489 59.3076 27.0009 56.4722 26.9784 52.534C26.9784 48.5733 29.9489 45.7379 34.0896 45.7154C36.8576 45.7154 38.9729 46.9756 40.5032 49.496L40.6382 49.6985L44.3738 47.2906L44.2163 47.0881C41.6959 43.6225 38.2528 41.8447 34.0896 41.8447C27.406 41.8672 22.5227 46.3455 22.5002 52.5115C22.5227 58.655 27.406 63.1333 34.0896 63.1333H34.1121C38.6354 63.1333 42.3035 61.0629 44.6439 57.1923L44.7564 57.0123L41.2008 54.6494Z" fill="#808080"/>
<path d="M62.9394 42.2949V49.6987H62.8944H52.6552H52.6327V49.6762V42.2949H48.1769V62.7058H52.6327V53.5243H62.9394V62.7058H67.3276V42.2949H62.9394Z" fill="#808080"/>
<path d="M93.9043 62.3458L83.53 42.2949H80.3345L69.8928 62.6833H74.506L77.094 57.665V57.6425H86.8156V57.665L89.471 62.6833H94.0843L93.9043 62.3458ZM81.9323 48.2359L81.9548 48.2584L84.8352 53.7493L84.8578 53.7943H79.0743L79.0968 53.7493L81.9323 48.2584V48.2359Z" fill="#808080"/>
<path d="M111.345 42.3174V54.897L111.3 54.8295L99.3051 42.3174H96.6271V62.7058H101.038V50.1037L101.105 50.1712L113.122 62.7058H115.755V42.3174H111.345Z" fill="#808080"/>
<path d="M131.599 55.1443H137.225V55.1893V56.5396C135.762 58.4299 133.872 59.33 131.396 59.33C127.256 59.33 124.308 56.4945 124.308 52.5564C124.308 48.5957 127.278 45.7603 131.396 45.7603C134.164 45.7603 136.28 47.0205 137.81 49.5409L137.922 49.7434L141.658 47.358L141.523 47.1555C139.003 43.6899 135.559 41.9121 131.396 41.9121C124.713 41.9346 119.829 46.4129 119.807 52.5789C119.807 58.7224 124.713 63.2007 131.396 63.2007C135.784 63.2007 139.34 61.3329 141.613 57.8223L141.658 57.7548V51.3187H131.621L131.599 55.1443Z" fill="#808080"/>
<path d="M63.6374 75.5559C63.9975 75.7584 64.5826 75.9834 65.1452 75.9834C65.9553 75.9834 66.3379 75.5784 66.3379 75.0608C66.3379 74.5207 66.0228 74.2281 65.1902 73.9131C64.065 73.508 63.5249 72.9004 63.5249 72.1353C63.5249 71.1226 64.3575 70.3125 65.6853 70.3125C66.3154 70.3125 66.878 70.47 67.2155 70.6951L66.9455 71.5052C66.6979 71.3702 66.2479 71.1451 65.6628 71.1451C64.9876 71.1451 64.6276 71.5277 64.6276 72.0003C64.6276 72.5179 64.9876 72.7654 65.7978 73.0805C66.878 73.4855 67.4406 74.0256 67.4406 74.9708C67.4406 76.0735 66.5629 76.8611 65.1227 76.8611C64.4476 76.8611 63.7949 76.6811 63.3674 76.411L63.6374 75.5559Z" fill="#808080"/>
<path d="M69.3531 69.2997C68.9255 69.2997 68.633 68.9621 68.633 68.557C68.633 68.152 68.9256 67.8369 69.3756 67.8369C69.8032 67.8369 70.0958 68.152 70.0958 68.557C70.0958 68.9846 69.8032 69.2997 69.3531 69.2997ZM68.813 70.4699H69.9607V76.7259H68.813V70.4699Z" fill="#808080"/>
<path d="M71.7161 72.1578C71.7161 71.5052 71.6936 70.9876 71.6711 70.47H72.6838L72.7513 71.4827H72.7738C73.0888 70.8976 73.8089 70.3125 74.8441 70.3125C75.6993 70.3125 77.0495 70.8301 77.0495 72.9679V76.7036H75.9018V73.103C75.9018 72.0903 75.5192 71.2352 74.4615 71.2352C73.7189 71.2352 73.1338 71.7752 72.9313 72.4054C72.8863 72.5404 72.8638 72.7429 72.8638 72.9229V76.7036H71.7161V72.1578Z" fill="#808080"/>
<path d="M84.1381 75.8024C84.1381 77.2426 83.8455 78.1203 83.2379 78.6829C82.6078 79.2455 81.7302 79.4255 80.9426 79.4255C80.1999 79.4255 79.3673 79.2455 78.8722 78.9079L79.1648 78.0303C79.5698 78.3003 80.2224 78.5253 81.0101 78.5253C82.1803 78.5253 83.0354 77.9178 83.0354 76.32V75.6449H83.0129C82.6753 76.23 82.0002 76.7025 81.0326 76.7025C79.4798 76.7025 78.3771 75.3748 78.3771 73.642C78.3771 71.5267 79.7499 70.334 81.2126 70.334C82.2928 70.334 82.8779 70.8966 83.1704 71.4142H83.1929L83.2379 70.4915H84.2506C84.2056 70.9416 84.2056 71.4367 84.2056 72.2018V75.8024H84.1381ZM82.9904 72.9219C82.9904 72.7419 82.9679 72.5844 82.9229 72.4268C82.7204 71.7517 82.1803 71.2116 81.3251 71.2116C80.2449 71.2116 79.4573 72.1343 79.4573 73.597C79.4573 74.8122 80.0874 75.8474 81.3026 75.8474C82.0002 75.8474 82.6528 75.4198 82.8779 74.6772C82.9454 74.4972 82.9679 74.2721 82.9679 74.0696L82.9904 72.9219Z" fill="#808080"/>
<path d="M90.3044 75.2173C90.3044 75.7574 90.327 76.2975 90.3945 76.725H89.3818L89.2693 75.9374H89.2243C88.8867 76.4325 88.2116 76.8601 87.3114 76.8601C86.0512 76.8601 85.3986 75.9599 85.3986 75.0598C85.3986 73.552 86.7489 72.7194 89.1568 72.7419V72.6069C89.1568 72.0893 89.0217 71.1441 87.739 71.1666C87.1539 71.1666 86.5463 71.3467 86.0962 71.6392L85.8487 70.8741C86.3663 70.559 87.1314 70.334 87.919 70.334C89.8544 70.334 90.3044 71.6392 90.3044 72.8994V75.2173ZM89.2018 73.5295C87.9641 73.507 86.5463 73.732 86.5463 74.9473C86.5463 75.6899 87.0414 76.0274 87.604 76.0274C88.4366 76.0274 88.9542 75.5098 89.1342 74.9923C89.1793 74.8797 89.1793 74.7447 89.1793 74.6322L89.2018 73.5295Z" fill="#808080"/>
<path d="M92.0364 72.4954C92.0364 71.6852 92.0139 71.0551 91.9914 70.4475H93.0041L93.0716 71.5277H93.0941C93.5442 70.7626 94.2868 70.3125 95.2994 70.3125C96.8297 70.3125 97.9549 71.5952 97.9549 73.4855C97.9549 75.7359 96.5821 76.8386 95.1194 76.8386C94.2868 76.8386 93.5667 76.4785 93.1841 75.8484H93.1616V79.2465H92.0139V72.4954H92.0364ZM93.1616 74.1606C93.1616 74.3182 93.1841 74.4757 93.2066 74.6332C93.4091 75.4208 94.1067 75.9609 94.8944 75.9609C96.0871 75.9609 96.7847 74.9708 96.7847 73.553C96.7847 72.2928 96.1321 71.2352 94.9394 71.2352C94.1517 71.2352 93.4316 71.7752 93.2066 72.6304C93.1841 72.7879 93.1391 72.9454 93.1391 73.103V74.1606H93.1616Z" fill="#808080"/>
<path d="M101.826 76.8601C100.138 76.8601 98.8332 75.6224 98.8332 73.642C98.8332 71.5492 100.206 70.334 101.939 70.334C103.739 70.334 104.954 71.6392 104.954 73.5295C104.954 75.8474 103.334 76.8601 101.826 76.8601ZM101.871 76.0049C102.951 76.0049 103.761 74.9923 103.761 73.552C103.761 72.4943 103.221 71.1666 101.894 71.1666C100.566 71.1666 99.9809 72.4043 99.9809 73.597C99.9809 74.9698 100.769 76.0049 101.871 76.0049Z" fill="#808080"/>
<path d="M106.282 72.4054C106.282 71.6627 106.259 71.0326 106.237 70.4475H107.227L107.272 71.6852H107.317C107.609 70.8526 108.307 70.3125 109.049 70.3125C109.162 70.3125 109.252 70.335 109.365 70.3575V71.4152C109.23 71.3927 109.117 71.3927 108.959 71.3927C108.149 71.3927 107.587 72.0003 107.429 72.8329C107.407 72.9904 107.384 73.1705 107.384 73.373V76.7036H106.237L106.282 72.4054Z" fill="#808080"/>
<path d="M110.962 73.7771C110.985 75.3073 111.952 75.9599 113.1 75.9599C113.91 75.9599 114.428 75.8249 114.833 75.6449L115.035 76.455C114.63 76.635 113.933 76.8601 112.943 76.8601C111.03 76.8601 109.86 75.5774 109.86 73.7095C109.86 71.8192 110.985 70.334 112.808 70.334C114.855 70.334 115.373 72.1343 115.373 73.282C115.373 73.507 115.35 73.687 115.328 73.8221L110.962 73.7771ZM114.293 72.9669C114.315 72.2468 114 71.1216 112.74 71.1216C111.57 71.1216 111.075 72.1793 110.985 72.9669H114.293Z" fill="#808080"/>
<path d="M117.758 17.0235C117.871 17.091 118.186 16.911 118.388 16.7984C118.546 16.7084 119.086 16.4384 119.558 16.2358C121.066 15.5832 122.776 15.0432 124.554 14.6606C124.464 14.5031 124.329 14.368 124.239 14.2105C123.519 13.1303 122.956 11.8701 122.641 10.6774C121.381 11.4876 120.189 12.4552 119.063 13.6029C123.902 2.62108 145.753 -4.71514 156.6 13.6929C156.712 13.873 156.825 13.873 156.825 13.7154C156.825 13.6479 156.802 13.5579 156.802 13.4679C156.78 13.4004 156.757 13.3104 156.735 13.2429C156.622 12.8828 156.24 11.8926 155.947 11.2625C152.369 3.9263 145.46 0.573242 138.417 0.573242C133.556 0.573242 128.627 2.17101 124.712 5.1415L124.667 5.18651C124.667 5.18651 122.236 6.9418 120.549 9.3047C118.861 11.6676 118.141 13.8955 117.871 15.2007C117.781 15.6733 117.713 16.0333 117.691 16.3034V16.956C117.713 16.9785 117.736 17.001 117.758 17.0235Z" fill="#808080"/>
<path d="M156.577 16.5734C151.851 11.3075 143.322 7.25684 134.884 7.25684C131.238 7.25684 127.637 7.99946 124.329 9.70974C124.847 10.9249 125.635 12.0726 126.49 13.0178C126.85 13.4229 127.277 13.8504 127.637 14.1655C138.124 13.0178 150.861 16.8659 154.777 28.5454C154.889 28.4779 154.979 28.3879 155.024 28.2978C156.465 25.6874 157.365 22.7169 157.5 19.5664V18.3287C157.41 17.8786 157.095 17.2035 156.577 16.5734Z" fill="#808080"/>
<path d="M145.415 36.7589C133.083 37.0064 122.236 29.2651 117.893 20.8037H117.803C117.758 20.8712 117.758 21.0287 117.781 21.2088C119.041 31.0204 127.412 38.5817 137.584 38.5817C140.329 38.5817 142.917 38.0416 145.303 37.0289C145.595 36.8939 145.573 36.8039 145.415 36.7589Z" fill="#808080"/>
</g>
<defs>
<filter id="filter0_ii_13448_10989" x="0" y="0" width="180" height="80" filterUnits="userSpaceOnUse" color-interpolation-filters="sRGB">
<feFlood flood-opacity="0" result="BackgroundImageFix"/>
<feBlend mode="normal" in="SourceGraphic" in2="BackgroundImageFix" result="shape"/>
<feColorMatrix in="SourceAlpha" type="matrix" values="0 0 0 0 0 0 0 0 0 0 0 0 0 0 0 0 0 0 127 0" result="hardAlpha"/>
<feOffset dy="-1"/>
<feComposite in2="hardAlpha" operator="arithmetic" k2="-1" k3="1"/>
<feColorMatrix type="matrix" values="0 0 0 0 0.533333 0 0 0 0 0.521569 0 0 0 0 0.521569 0 0 0 0.5 0"/>
<feBlend mode="normal" in2="shape" result="effect1_innerShadow_13448_10989"/>
<feColorMatrix in="SourceAlpha" type="matrix" values="0 0 0 0 0 0 0 0 0 0 0 0 0 0 0 0 0 0 127 0" result="hardAlpha"/>
<feOffset dx="-1"/>
<feComposite in2="hardAlpha" operator="arithmetic" k2="-1" k3="1"/>
<feColorMatrix type="matrix" values="0 0 0 0 0.533333 0 0 0 0 0.527729 0 0 0 0 0.522222 0 0 0 0.5 0"/>
<feBlend mode="normal" in2="effect1_innerShadow_13448_10989" result="effect2_innerShadow_13448_10989"/>
</filter>
</defs>
</svg>
