<svg width="180" height="80" viewBox="0 0 180 80" fill="none" xmlns="http://www.w3.org/2000/svg">
<g filter="url(#filter0_ii_1063_28983)">
<g clip-path="url(#clip0_1063_28983)">
<path d="M63.2088 42.7895C62.8285 42.6039 62.8021 42.5066 62.8021 41.8081C62.8021 40.5083 62.9081 39.4739 62.9347 39.0581C62.9611 38.7753 63.0142 38.6426 63.1557 38.6426C63.3236 38.6426 63.3414 38.7222 63.3414 38.9343C63.3414 39.1643 63.3414 39.5268 63.4209 39.8894C63.8277 41.8081 65.6226 42.533 67.453 42.533C70.0614 42.533 71.3434 40.7383 71.3434 39.0848C71.3434 37.2987 70.5564 36.2552 68.2133 34.4162L66.9842 33.4523C64.1017 31.1976 63.4474 29.5884 63.4474 27.8289C63.4474 25.0525 65.6226 23.1602 69.0798 23.1602C70.1409 23.1602 70.9279 23.2663 71.6089 23.4166C72.1216 23.5228 72.3424 23.5492 72.5635 23.5492C72.7755 23.5492 72.838 23.6023 72.838 23.7261C72.838 23.8588 72.7314 24.7165 72.7314 26.476C72.7314 26.8917 72.6785 27.0684 72.5459 27.0684C72.3776 27.0684 72.36 26.9358 72.3247 26.7324C72.2983 26.4229 71.9709 25.4327 71.9709 25.4327C71.9709 25.4327 71.0781 24.0621 68.5669 24.0621C66.6925 24.0621 65.2159 25.1763 65.2159 27.0684C65.2159 28.545 65.9762 29.4293 68.5405 31.4186L69.3008 31.9934C72.5195 34.4072 73.28 36.0076 73.28 38.0856C73.28 39.1467 72.8468 41.1183 70.9631 42.3916C69.7961 43.1697 68.3193 43.4793 66.8516 43.4793C65.5783 43.4881 64.3229 43.3112 63.2088 42.7895Z" fill="#808080"/>
<path d="M99.0102 40.0569C99.1162 40.9942 99.3105 42.4443 100.478 42.8069C101.274 43.0455 101.972 43.0455 102.246 43.0455C102.379 43.0455 102.459 43.0722 102.459 43.1694C102.459 43.3286 102.211 43.4082 101.884 43.4082C101.283 43.4082 98.3468 43.3286 97.339 43.2489C96.711 43.2048 96.5785 43.1251 96.5785 42.9925C96.5785 42.8865 96.6316 42.8334 96.7641 42.8069C96.9059 42.7803 96.9235 42.3383 96.8704 41.8695L95.5619 28.4917H95.482L88.8065 41.9757C88.2313 43.1163 88.152 43.3551 87.9046 43.3551C87.7186 43.3551 87.5774 43.0986 87.0647 42.1614C86.3571 40.8882 84.0141 36.4051 83.8811 36.1489C83.6339 35.6801 80.5835 29.4554 80.2826 28.7568H80.1766L79.0889 40.7908C79.0625 41.2065 79.0625 41.6751 79.0625 42.1171C79.0625 42.5062 79.3632 42.8422 79.7699 42.9217C80.2297 43.0279 80.6364 43.0544 80.8043 43.0544C80.9103 43.0544 81.0255 43.1075 81.0255 43.1782C81.0255 43.3639 80.8572 43.417 80.5304 43.417C79.5221 43.417 78.2136 43.3375 78.0016 43.3375C77.7626 43.3375 76.4541 43.417 75.7201 43.417C75.4462 43.417 75.2514 43.3639 75.2514 43.1782C75.2514 43.0986 75.3933 43.0544 75.5257 43.0544C75.7377 43.0544 75.9324 43.0544 76.3393 42.9748C77.2411 42.8157 77.3206 41.8078 77.4266 40.8174L79.3897 23.9115C79.4428 23.6284 79.5221 23.4429 79.6904 23.4429C79.8583 23.4429 79.9643 23.5489 80.0967 23.8318L88.4263 40.1455L96.4284 23.8584C96.5344 23.6284 96.6492 23.4429 96.8352 23.4429C97.0295 23.4429 97.1089 23.6462 97.1619 24.1413L99.0102 40.0569Z" fill="#808080"/>
<path d="M103.847 31.047C103.847 26.9973 103.847 26.2723 103.794 25.4412C103.741 24.5571 103.519 24.1413 102.627 23.9646C102.405 23.9115 101.945 23.8849 101.698 23.8849C101.583 23.8849 101.477 23.8318 101.477 23.7258C101.477 23.5756 101.619 23.5225 101.91 23.5225C103.139 23.5225 104.802 23.602 105.041 23.602C105.288 23.602 106.915 23.5225 107.737 23.5225C108.038 23.5225 108.17 23.5756 108.17 23.7258C108.17 23.8318 108.064 23.8849 107.95 23.8849C107.755 23.8849 107.596 23.9115 107.269 23.9646C106.535 24.0706 106.314 24.5304 106.261 25.4412C106.207 26.2723 106.207 26.9973 106.207 31.047V34.6811C106.207 38.4212 107.083 40.0216 108.25 41.0915C109.585 42.2852 110.814 42.515 112.362 42.515C114.024 42.515 115.66 41.7635 116.632 40.6493C117.888 39.1728 118.215 36.9623 118.215 34.292V31.047C118.215 26.9973 118.215 26.2723 118.162 25.4412C118.109 24.5571 117.888 24.1413 116.995 23.9646C116.774 23.9115 116.314 23.8849 116.066 23.8849C115.96 23.8849 115.845 23.8318 115.845 23.7258C115.845 23.5756 115.978 23.5225 116.279 23.5225C117.508 23.5225 119.002 23.602 119.161 23.602C119.356 23.602 120.638 23.5225 121.451 23.5225C121.752 23.5225 121.884 23.5756 121.884 23.7258C121.884 23.8318 121.778 23.8849 121.672 23.8849C121.478 23.8849 121.319 23.8849 120.991 23.9646C120.257 24.0973 120.037 24.5304 119.983 25.4412C119.93 26.2723 119.93 26.9973 119.93 31.047V33.8146C119.93 36.6175 119.603 39.7297 117.428 41.5689C115.465 43.2312 113.422 43.4877 111.814 43.4877C110.894 43.4877 108.144 43.3815 106.208 41.6485C104.881 40.4283 103.847 38.6158 103.847 34.8314V31.047Z" fill="#808080"/>
<path d="M48.0535 43.4259L42.6067 38.439H42.5979L37.1424 43.4259L42.5979 41.6662H42.6067L48.0535 43.4259Z" fill="#808080"/>
<path d="M42.6068 38.43L44.4017 33.4962L48.4161 33.0098L42.6068 38.43Z" fill="#808080"/>
<path d="M52.4656 34.6192L48.4161 33.0098L48.3011 26.3784L52.4656 34.6192Z" fill="#808080"/>
<path d="M49.2913 23.3901H53.3411L48.3011 26.3876L49.2913 23.3901Z" fill="#808080"/>
<path d="M42.5979 38.43L40.803 33.4962L36.7888 33.0098L42.5979 38.43Z" fill="#5A5959"/>
<path d="M32.7391 34.6192L36.7888 33.0098L36.9038 26.3784L32.7391 34.6192Z" fill="#5A5959"/>
<path d="M35.9135 23.3901H31.8638L36.9038 26.3876L35.9135 23.3901Z" fill="#5A5959"/>
<path d="M56.4888 13.478C52.8723 16.8822 50.3878 15.3882 49.1145 15.1139C48.4426 14.8396 47.6025 14.6807 46.6829 14.6807C44.4724 14.6807 42.6863 15.6178 42.6863 16.785C42.6863 17.2007 42.9251 17.5984 43.323 17.9168C43.7385 17.5365 44.3753 17.2272 45.1444 17.0413C45.9226 16.9088 47.2489 16.8028 48.8138 17.2007C48.9555 17.236 49.1057 17.2801 49.2648 17.3244C49.4505 17.3861 49.6272 17.4215 49.7689 17.448C49.8396 17.4658 49.8927 17.4746 49.9634 17.4834C54.0572 18.3942 56.5153 16.3342 56.5153 16.3342L56.4888 13.478Z" fill="#5A5959"/>
<path d="M42.2355 49.253C42.2355 49.253 39.9542 49.2442 38.84 48.7048C36.8153 47.7323 36.435 44.7349 36.1786 42.259C36.1521 41.9849 34.2688 41.3925 33.3756 40.5702C31.9169 39.2351 32.1467 35.0882 32.1467 34.8229C32.1467 34.5577 29.7858 33.3993 29.7858 30.8263C29.7858 29.7387 29.8036 23.6642 29.8036 23.6642C28.2651 21.7543 27.2924 21.7278 26.0632 22.1081C24.5426 22.5943 24.1004 23.7173 22.5176 23.9471C22.5176 24.2919 22.5 42.4094 22.5 42.4094C22.5 47.9886 23.5258 51.8437 29.2464 56.1322C34.5517 60.1112 38.6545 60.0138 42.2355 66.5216C42.2973 66.6364 42.2532 49.253 42.2355 49.253Z" fill="#808080"/>
<path d="M62.9169 53.8505C62.8197 53.8062 62.7931 53.7707 62.7931 53.6381C62.7931 53.2933 62.8197 52.922 62.8285 52.8247C62.8373 52.7275 62.855 52.6656 62.9081 52.6656C62.9611 52.6656 62.97 52.7187 62.97 52.7716C62.97 52.8513 62.9964 52.9837 63.023 53.0899C63.1645 53.5497 63.5359 53.7176 63.9248 53.7176C64.4908 53.7176 64.7648 53.3376 64.7648 53.0104C64.7648 52.7097 64.6675 52.418 64.146 52.0201L63.8541 51.7991C63.1645 51.2685 62.9257 50.8352 62.9257 50.3313C62.9257 49.6505 63.5093 49.1641 64.3758 49.1641C64.7825 49.1641 65.0477 49.226 65.2158 49.2702C65.2777 49.2791 65.3042 49.2967 65.3042 49.3498C65.3042 49.4293 65.2777 49.6062 65.2777 50.0925C65.2777 50.2251 65.2601 50.2782 65.207 50.2782C65.1627 50.2782 65.1451 50.2428 65.1451 50.1632C65.1451 50.1101 65.1096 49.9156 64.977 49.7565C64.8798 49.6415 64.7029 49.4558 64.2874 49.4558C63.8188 49.4558 63.5359 49.7212 63.5359 50.0925C63.5359 50.3754 63.6862 50.5966 64.2079 50.9856L64.3846 51.1183C65.1451 51.6929 65.4192 52.1084 65.4192 52.692C65.4192 53.0547 65.2777 53.479 64.8267 53.7707C64.5084 53.9653 64.1636 54.0272 63.8276 54.0272C63.465 54.0095 63.1821 53.9653 62.9169 53.8505Z" fill="#808080"/>
<path d="M66.9489 51.039C66.9489 50.1018 66.9489 49.9251 66.9401 49.7306C66.9223 49.5182 66.8606 49.4122 66.7279 49.3856C66.657 49.3679 66.5775 49.3591 66.4979 49.3591C66.436 49.3591 66.4008 49.3503 66.4008 49.2972C66.4008 49.2619 66.4538 49.2529 66.551 49.2529C66.7896 49.2529 67.1877 49.2708 67.3644 49.2708C67.5235 49.2708 67.895 49.2529 68.1338 49.2529C68.2133 49.2529 68.2664 49.2619 68.2664 49.2972C68.2664 49.3503 68.231 49.3591 68.1691 49.3591C68.1071 49.3591 68.0542 49.3679 67.9833 49.3767C67.8154 49.4122 67.7623 49.5182 67.7535 49.7306C67.7447 49.9251 67.7447 50.1018 67.7447 51.039V52.1267C67.7447 52.728 67.7447 53.2142 67.7712 53.4795C67.7888 53.6474 67.8331 53.7624 68.0188 53.7802C68.1071 53.789 68.2486 53.8067 68.3371 53.8067C68.4079 53.8067 68.4343 53.8243 68.4343 53.851C68.4343 53.895 68.3812 53.9129 68.3105 53.9129C67.895 53.9129 67.4971 53.895 67.329 53.895C67.1877 53.895 66.7896 53.9129 66.5422 53.9129C66.4627 53.9129 66.4184 53.895 66.4184 53.851C66.4184 53.8243 66.4448 53.8067 66.5156 53.8067C66.6129 53.8067 66.6837 53.7979 66.7456 53.7802C66.8694 53.7536 66.9135 53.6474 66.9311 53.4707C66.9665 53.2142 66.9665 52.728 66.9665 52.1267V51.039H66.9489Z" fill="#808080"/>
<path d="M70.1762 53.0818C70.1938 53.568 70.2735 53.7273 70.3973 53.7626C70.5033 53.798 70.6183 53.8069 70.7245 53.8069C70.7952 53.8069 70.8305 53.8157 70.8305 53.8511C70.8305 53.904 70.7774 53.913 70.6891 53.913C70.2823 53.913 70.0259 53.8952 69.9111 53.8952C69.858 53.8952 69.5573 53.913 69.2301 53.913C69.1506 53.913 69.0887 53.904 69.0887 53.8511C69.0887 53.8157 69.1241 53.8069 69.1858 53.8069C69.2656 53.8069 69.3804 53.798 69.4689 53.7714C69.6368 53.7183 69.6544 53.5416 69.6635 53.0022L69.7164 49.3416C69.7164 49.2178 69.7342 49.1294 69.7961 49.1294C69.8668 49.1294 69.9197 49.2089 70.0259 49.3239C70.1054 49.4035 71.0603 50.4115 71.9803 51.3133C72.4041 51.7378 73.2529 52.622 73.3595 52.7282H73.3948L73.3331 49.9517C73.3241 49.5714 73.2712 49.4564 73.1205 49.3947C73.0233 49.3592 72.8733 49.3592 72.7843 49.3592C72.705 49.3592 72.6873 49.3416 72.6873 49.3061C72.6873 49.253 72.7579 49.253 72.8551 49.253C73.1824 49.253 73.4831 49.2708 73.6156 49.2708C73.6863 49.2708 73.9251 49.253 74.2348 49.253C74.3144 49.253 74.3761 49.262 74.3761 49.3061C74.3761 49.3416 74.3408 49.3592 74.2613 49.3592C74.1996 49.3592 74.1465 49.3592 74.0754 49.3768C73.8987 49.4299 73.8546 49.5537 73.8458 49.9074L73.775 53.8157C73.775 53.9483 73.7486 54.0102 73.6955 54.0102C73.6244 54.0102 73.5539 53.9395 73.4831 53.8688C73.0852 53.4973 72.2804 52.6839 71.6265 52.0472C70.9367 51.3752 70.2381 50.606 70.1321 50.491H70.1143L70.1762 53.0818Z" fill="#808080"/>
<path d="M79.6016 53.5147C79.6016 53.6828 79.5928 53.6916 79.5221 53.7359C79.1154 53.9481 78.4967 54.0188 78.0104 54.0188C76.4717 54.0188 75.1013 53.3026 75.1013 51.5962C75.1013 50.6058 75.6229 49.916 76.1975 49.5712C76.7989 49.2176 77.3647 49.1733 77.8862 49.1733C78.3196 49.1733 78.8769 49.2441 79.0006 49.2707C79.133 49.2972 79.3544 49.3326 79.4956 49.3414C79.5752 49.3502 79.584 49.3679 79.584 49.4122C79.584 49.4829 79.5399 49.651 79.5399 50.4289C79.5399 50.5263 79.5221 50.5616 79.4692 50.5616C79.4251 50.5616 79.4073 50.5263 79.4073 50.482C79.3896 50.3406 79.3632 50.1372 79.1949 49.9691C79.0094 49.7746 78.5055 49.4829 77.7891 49.4829C77.4443 49.4829 76.9845 49.5093 76.5425 49.8631C76.1887 50.1549 75.959 50.6147 75.959 51.375C75.959 52.7013 76.8256 53.7005 78.1517 53.7005C78.3196 53.7005 78.532 53.7005 78.6822 53.6297C78.7794 53.5856 78.8058 53.5059 78.8058 53.3999V52.8163C78.8058 52.5068 78.8058 52.2681 78.797 52.0912C78.7882 51.8791 78.7351 51.7819 78.532 51.7376C78.4791 51.7288 78.3725 51.72 78.2843 51.72C78.2224 51.72 78.1871 51.711 78.1871 51.6669C78.1871 51.6138 78.2312 51.605 78.3196 51.605C78.6468 51.605 79.0448 51.6226 79.2302 51.6226C79.4251 51.6226 79.7611 51.605 79.9643 51.605C80.0438 51.605 80.0879 51.6138 80.0879 51.6669C80.0879 51.7022 80.0526 51.72 80.0083 51.72C79.9554 51.72 79.9112 51.7288 79.8406 51.7376C79.6727 51.7641 79.6104 51.8702 79.6016 52.0912C79.5928 52.277 79.5928 52.5246 79.5928 52.8339V53.5147H79.6016Z" fill="#808080"/>
<path d="M82.9265 52.0026C82.9529 52.0026 82.9617 51.9849 82.9529 51.9671L82.3871 50.4374C82.3783 50.411 82.3783 50.3845 82.3519 50.3845C82.3342 50.3845 82.3166 50.4198 82.3166 50.4374L81.7414 51.9583C81.7326 51.9849 81.7414 52.0026 81.768 52.0026H82.9265ZM81.6354 52.3121C81.6001 52.3121 81.5913 52.3209 81.5825 52.365L81.2375 53.2493C81.1758 53.3996 81.1403 53.5499 81.1403 53.6294C81.1403 53.7444 81.1934 53.8239 81.3882 53.8239H81.4853C81.5649 53.8239 81.5825 53.8328 81.5825 53.8682C81.5825 53.9213 81.5472 53.9301 81.4765 53.9301C81.2728 53.9301 81.0079 53.9125 80.8132 53.9125C80.7424 53.9125 80.3974 53.9301 80.0703 53.9301C79.9907 53.9301 79.9467 53.9213 79.9467 53.8682C79.9467 53.8328 79.9731 53.8239 80.0262 53.8239C80.0791 53.8239 80.1678 53.8151 80.2209 53.8151C80.5123 53.7799 80.6276 53.5675 80.7513 53.2582L82.3254 49.3676C82.4048 49.1908 82.4402 49.1201 82.5019 49.1201C82.5638 49.1201 82.5991 49.173 82.661 49.3145C82.8117 49.6506 83.8194 52.1793 84.2173 53.1167C84.4563 53.6737 84.6417 53.762 84.7743 53.7887C84.8719 53.8063 84.9602 53.8151 85.0398 53.8151C85.0927 53.8151 85.1191 53.8239 85.1191 53.8594C85.1191 53.9125 85.0662 53.9213 84.8272 53.9213C84.5976 53.9213 84.1466 53.9213 83.6427 53.9125C83.5275 53.9035 83.448 53.9035 83.448 53.8594C83.448 53.8239 83.4744 53.8151 83.5363 53.8063C83.581 53.7975 83.6251 53.7356 83.5898 53.6649L83.0854 52.3562C83.0765 52.3297 83.0501 52.3121 83.0236 52.3121H81.6354Z" fill="#808080"/>
<path d="M85.8179 51.0391C85.8179 50.1018 85.8179 49.9251 85.8091 49.7306C85.8003 49.5182 85.7472 49.421 85.5348 49.3767C85.4817 49.3679 85.3757 49.3591 85.2874 49.3591C85.2163 49.3591 85.181 49.3503 85.181 49.306C85.181 49.2619 85.2251 49.2529 85.314 49.2529C85.6496 49.2529 86.0475 49.2708 86.2246 49.2708C86.4807 49.2708 86.8433 49.2529 87.1352 49.2529C87.9224 49.2529 88.2049 49.5094 88.3026 49.6067C88.4439 49.7394 88.6204 50.0135 88.6204 50.3406C88.6204 51.216 87.9665 51.8348 87.0735 51.8348C87.047 51.8348 86.9763 51.8348 86.9411 51.826C86.9052 51.8172 86.8609 51.8172 86.8609 51.7729C86.8609 51.72 86.9052 51.7022 87.038 51.7022C87.3915 51.7022 87.8781 51.3131 87.8781 50.6854C87.8781 50.4821 87.8605 50.0665 87.5067 49.757C87.2767 49.5537 87.0204 49.5182 86.8786 49.5182C86.7816 49.5182 86.6932 49.5272 86.6313 49.5448C86.5961 49.5537 86.5784 49.5979 86.5784 49.6596V52.1356C86.5784 52.7014 86.5784 53.1966 86.6049 53.4619C86.6225 53.6386 86.6668 53.7712 86.8521 53.7979C86.9411 53.8067 87.0823 53.8243 87.1707 53.8243C87.2412 53.8243 87.2678 53.842 87.2678 53.8686C87.2678 53.9129 87.2148 53.9305 87.153 53.9305C86.7373 53.9305 86.3394 53.9129 86.1805 53.9129C86.0387 53.9129 85.6408 53.9305 85.3845 53.9305C85.3052 53.9305 85.2605 53.9129 85.2605 53.8686C85.2605 53.842 85.2874 53.8243 85.3581 53.8243C85.4553 53.8243 85.526 53.8155 85.5877 53.7979C85.7119 53.7712 85.7472 53.6386 85.7736 53.4531C85.8091 53.1966 85.8091 52.7014 85.8091 52.1356V51.0391H85.8179Z" fill="#808080"/>
<path d="M93.5457 51.7017C93.5457 50.3137 92.7321 49.4558 91.7067 49.4558C90.9815 49.4558 90.1593 49.8539 90.1593 51.3924C90.1593 52.6832 90.8843 53.7 92.0864 53.7C92.5289 53.7 93.5457 53.4878 93.5457 51.7017ZM89.284 51.5867C89.284 50.5258 89.9914 49.1641 91.8832 49.1641C93.4485 49.1641 94.421 50.0572 94.421 51.4807C94.421 52.8954 93.4132 54.0183 91.8215 54.0183C90.0178 54.0095 89.284 52.6832 89.284 51.5867Z" fill="#808080"/>
<path d="M96.5168 51.5343C96.5168 51.605 96.5256 51.6227 96.5697 51.6493C96.7021 51.6934 96.8881 51.711 97.0471 51.711C97.3038 51.711 97.3833 51.6846 97.4981 51.605C97.6835 51.4724 97.8694 51.1895 97.8694 50.6766C97.8694 49.8013 97.2773 49.5448 96.9059 49.5448C96.7464 49.5448 96.6316 49.5537 96.5697 49.5713C96.5256 49.5801 96.5168 49.6067 96.5168 49.6598V51.5343ZM95.7739 51.0391C95.7739 50.1018 95.7739 49.9251 95.7651 49.7306C95.7473 49.5182 95.7032 49.421 95.4908 49.3767C95.4377 49.3679 95.3317 49.3591 95.2434 49.3591C95.1728 49.3591 95.1374 49.3503 95.1374 49.306C95.1374 49.2619 95.1817 49.2529 95.2788 49.2529C95.6148 49.2529 96.0127 49.2708 96.1365 49.2708C96.3483 49.2708 96.8263 49.2529 97.0207 49.2529C97.4186 49.2529 97.8429 49.2884 98.1791 49.5182C98.3556 49.6332 98.6035 49.9515 98.6035 50.3671C98.6035 50.8269 98.4087 51.2424 97.7724 51.7553C98.3292 52.4449 98.7714 53.0021 99.134 53.3823C99.4876 53.7448 99.7439 53.7802 99.8414 53.8067C99.9121 53.8155 99.965 53.8243 100.018 53.8243C100.071 53.8243 100.097 53.842 100.097 53.8686C100.097 53.9217 100.053 53.9305 99.9739 53.9305H99.3724C99.0192 53.9305 98.8685 53.9039 98.7006 53.8155C98.4264 53.6741 98.1879 53.3821 97.8341 52.9047C97.5863 52.5599 97.2944 52.1444 97.2154 52.047C97.1796 52.0117 97.1443 52.0029 97.1 52.0029L96.5521 51.9941C96.5168 51.9941 96.499 52.0029 96.499 52.0382V52.1267C96.499 52.7014 96.499 53.1878 96.5256 53.4531C96.5433 53.6298 96.5873 53.7712 96.7729 53.7979C96.8704 53.8067 97.0031 53.8243 97.0824 53.8243C97.1355 53.8243 97.1619 53.842 97.1619 53.8686C97.1619 53.9127 97.1179 53.9305 97.0383 53.9305C96.6757 53.9305 96.2071 53.9127 96.1099 53.9127C95.9951 53.9127 95.5972 53.9305 95.3406 53.9305C95.2612 53.9305 95.2169 53.9127 95.2169 53.8686C95.2169 53.842 95.2434 53.8243 95.3141 53.8243C95.4113 53.8243 95.482 53.8155 95.5355 53.7979C95.6591 53.7712 95.6944 53.6386 95.7208 53.4531C95.7563 53.1966 95.7563 52.7014 95.7563 52.1356V51.0391H95.7739Z" fill="#808080"/>
<path d="M100.557 51.0387C100.557 50.1015 100.557 49.9248 100.549 49.7302C100.54 49.5179 100.487 49.4207 100.275 49.3764C100.222 49.3676 100.115 49.3588 100.027 49.3588C99.9564 49.3588 99.9211 49.35 99.9211 49.3057C99.9211 49.2616 99.9652 49.2526 100.062 49.2526C100.23 49.2526 100.416 49.2616 100.566 49.2616C100.735 49.2704 100.876 49.2704 100.964 49.2704C101.168 49.2704 102.423 49.2704 102.538 49.2616C102.653 49.2526 102.759 49.235 102.812 49.2262C102.848 49.2173 102.883 49.1997 102.91 49.1997C102.936 49.1997 102.945 49.2262 102.945 49.2526C102.945 49.2969 102.918 49.3676 102.892 49.6507C102.883 49.7124 102.874 49.9865 102.857 50.0574C102.848 50.0927 102.838 50.1281 102.794 50.1281C102.75 50.1281 102.741 50.1015 102.741 50.0396C102.741 49.9955 102.733 49.8893 102.706 49.8186C102.662 49.7036 102.6 49.6329 102.282 49.5976C102.176 49.5886 101.512 49.571 101.389 49.571C101.362 49.571 101.344 49.5886 101.344 49.6329V51.198C101.344 51.2421 101.353 51.2687 101.389 51.2687C101.53 51.2687 102.255 51.2687 102.397 51.2599C102.547 51.2421 102.644 51.2333 102.697 51.1625C102.741 51.1095 102.768 51.083 102.794 51.083C102.821 51.083 102.838 51.0918 102.838 51.1361C102.838 51.1714 102.803 51.2687 102.785 51.5871C102.777 51.7107 102.759 51.9583 102.759 52.0026C102.759 52.0557 102.759 52.1176 102.706 52.1176C102.662 52.1176 102.644 52.091 102.644 52.0645C102.635 52.0026 102.635 51.9231 102.618 51.8433C102.591 51.7197 102.503 51.6312 102.264 51.6047C102.14 51.5959 101.522 51.5871 101.371 51.5871C101.336 51.5871 101.336 51.6135 101.336 51.649V52.1352C101.336 52.3474 101.327 52.9132 101.336 53.0989C101.344 53.5235 101.45 53.6206 102.096 53.6206C102.255 53.6206 102.521 53.6206 102.688 53.5499C102.857 53.4792 102.927 53.3466 102.971 53.0901C102.98 53.0194 102.998 53.0018 103.042 53.0018C103.095 53.0018 103.095 53.0548 103.095 53.1168C103.095 53.2582 103.042 53.6825 103.016 53.8064C102.971 53.9654 102.918 53.9654 102.679 53.9654C102.211 53.9654 101.866 53.9566 101.592 53.9478C101.318 53.939 101.124 53.9302 100.938 53.9302C100.867 53.9302 100.726 53.939 100.584 53.939C100.443 53.9478 100.275 53.9478 100.151 53.9478C100.071 53.9478 100.027 53.9302 100.027 53.8859C100.027 53.8595 100.054 53.8416 100.124 53.8416C100.222 53.8416 100.293 53.8328 100.354 53.8152C100.478 53.7887 100.513 53.6561 100.54 53.4704C100.575 53.2139 100.575 52.7189 100.575 52.1529V51.0387H100.557Z" fill="#808080"/>
<path d="M106.712 49.2706C106.729 49.1644 106.765 49.1113 106.818 49.1113C106.871 49.1113 106.906 49.138 106.986 49.3059L108.701 52.7986L110.416 49.2618C110.46 49.1644 110.496 49.1113 110.558 49.1113C110.611 49.1113 110.655 49.1732 110.673 49.3059L111.247 53.1257C111.309 53.5148 111.371 53.6915 111.557 53.7534C111.742 53.8065 111.866 53.8153 111.946 53.8153C111.999 53.8153 112.043 53.8242 112.043 53.8596C112.043 53.9127 111.963 53.9303 111.884 53.9303C111.725 53.9303 110.858 53.9127 110.611 53.8949C110.469 53.8861 110.425 53.8684 110.425 53.8242C110.425 53.7889 110.451 53.7711 110.496 53.7534C110.531 53.7446 110.558 53.6651 110.531 53.4882L110.151 50.7648H110.125L108.754 53.5765C108.613 53.8684 108.577 53.9215 108.524 53.9215C108.471 53.9215 108.401 53.7977 108.303 53.612C108.153 53.3291 107.658 52.383 107.578 52.2061C107.525 52.0735 107.145 51.2953 106.924 50.8355H106.897L106.57 53.3025C106.561 53.4175 106.552 53.497 106.552 53.5944C106.552 53.7094 106.632 53.7711 106.738 53.7889C106.853 53.8153 106.941 53.8242 107.003 53.8242C107.056 53.8242 107.101 53.833 107.101 53.8684C107.101 53.9215 107.047 53.9392 106.95 53.9392C106.685 53.9392 106.402 53.9215 106.287 53.9215C106.172 53.9215 105.863 53.9392 105.668 53.9392C105.606 53.9392 105.553 53.9303 105.553 53.8684C105.553 53.842 105.589 53.8242 105.651 53.8242C105.703 53.8242 105.748 53.8242 105.836 53.8065C106.013 53.7711 106.066 53.5236 106.093 53.3203L106.712 49.2706Z" fill="#808080"/>
<path d="M114.669 52.0026C114.705 52.0026 114.705 51.9849 114.705 51.9671L114.139 50.4374C114.13 50.411 114.121 50.3845 114.104 50.3845C114.086 50.3845 114.068 50.4198 114.068 50.4374L113.493 51.9583C113.484 51.9849 113.493 52.0026 113.52 52.0026H114.669ZM113.387 52.3121C113.352 52.3121 113.343 52.3209 113.325 52.365L112.989 53.2493C112.927 53.3996 112.892 53.5499 112.892 53.6294C112.892 53.7444 112.945 53.8239 113.14 53.8239H113.228C113.308 53.8239 113.325 53.8328 113.325 53.8682C113.325 53.9213 113.29 53.9301 113.219 53.9301C113.024 53.9301 112.751 53.9125 112.556 53.9125C112.485 53.9125 112.14 53.9301 111.814 53.9301C111.734 53.9301 111.689 53.9213 111.689 53.8682C111.689 53.8328 111.716 53.8239 111.769 53.8239C111.831 53.8239 111.911 53.8151 111.964 53.8151C112.255 53.7799 112.371 53.5675 112.494 53.2582L114.068 49.3676C114.148 49.1908 114.183 49.1201 114.245 49.1201C114.298 49.1201 114.342 49.173 114.404 49.3145C114.554 49.6506 115.562 52.1793 115.96 53.1167C116.199 53.6737 116.385 53.762 116.517 53.7887C116.615 53.8063 116.703 53.8151 116.782 53.8151C116.836 53.8151 116.862 53.8239 116.862 53.8594C116.862 53.9125 116.8 53.9213 116.57 53.9213C116.34 53.9213 115.889 53.9213 115.386 53.9125C115.271 53.9035 115.191 53.9035 115.191 53.8594C115.191 53.8239 115.217 53.8151 115.28 53.8063C115.324 53.7975 115.368 53.7356 115.332 53.6649L114.829 52.3562C114.819 52.3297 114.793 52.3121 114.766 52.3121H113.387Z" fill="#808080"/>
<path d="M117.914 53.0818C117.923 53.568 118.012 53.7273 118.135 53.7626C118.241 53.798 118.357 53.8069 118.463 53.8069C118.533 53.8069 118.569 53.8157 118.569 53.8511C118.569 53.904 118.515 53.913 118.427 53.913C118.02 53.913 117.764 53.8952 117.649 53.8952C117.587 53.8952 117.295 53.913 116.968 53.913C116.888 53.913 116.827 53.904 116.827 53.8511C116.827 53.8157 116.862 53.8069 116.924 53.8069C117.004 53.8069 117.119 53.798 117.207 53.7714C117.375 53.7183 117.393 53.5416 117.402 53.0022L117.464 49.3416C117.464 49.2178 117.481 49.1294 117.543 49.1294C117.614 49.1294 117.667 49.2089 117.781 49.3239C117.853 49.4035 118.816 50.4115 119.727 51.3133C120.151 51.7378 121.009 52.622 121.115 52.7282H121.15L121.089 49.9517C121.08 49.5714 121.027 49.4564 120.877 49.3947C120.779 49.3592 120.629 49.3592 120.54 49.3592C120.461 49.3592 120.443 49.3416 120.443 49.3061C120.443 49.253 120.514 49.253 120.611 49.253C120.938 49.253 121.239 49.2708 121.372 49.2708C121.442 49.2708 121.681 49.253 121.99 49.253C122.07 49.253 122.132 49.262 122.132 49.3061C122.132 49.3416 122.097 49.3592 122.017 49.3592C121.955 49.3592 121.902 49.3592 121.831 49.3768C121.655 49.4299 121.601 49.5537 121.592 49.9074L121.522 53.8157C121.522 53.9483 121.495 54.0102 121.442 54.0102C121.372 54.0102 121.292 53.9395 121.23 53.8688C120.832 53.4973 120.028 52.6839 119.373 52.0472C118.683 51.3752 117.985 50.606 117.879 50.491H117.862L117.914 53.0818Z" fill="#808080"/>
<path d="M125.086 52.0026C125.121 52.0026 125.121 51.9849 125.121 51.9671L124.555 50.4374C124.546 50.411 124.546 50.3845 124.519 50.3845C124.502 50.3845 124.484 50.4198 124.484 50.4374L123.901 51.9583C123.892 51.9849 123.901 52.0026 123.927 52.0026H125.086ZM123.803 52.3121C123.767 52.3121 123.759 52.3209 123.75 52.365L123.414 53.2493C123.353 53.3996 123.317 53.5499 123.317 53.6294C123.317 53.7444 123.37 53.8239 123.565 53.8239H123.661C123.741 53.8239 123.759 53.8328 123.759 53.8682C123.759 53.9213 123.723 53.9301 123.653 53.9301C123.45 53.9301 123.184 53.9125 122.99 53.9125C122.919 53.9125 122.574 53.9301 122.247 53.9301C122.167 53.9301 122.132 53.9213 122.132 53.8682C122.132 53.8328 122.159 53.8239 122.203 53.8239C122.265 53.8239 122.344 53.8151 122.397 53.8151C122.689 53.7799 122.804 53.5675 122.928 53.2582L124.51 49.3676C124.581 49.1908 124.625 49.1201 124.687 49.1201C124.741 49.1201 124.785 49.173 124.847 49.3145C124.997 49.6506 126.005 52.1793 126.403 53.1167C126.641 53.6737 126.827 53.762 126.96 53.7887C127.057 53.8063 127.145 53.8151 127.225 53.8151C127.278 53.8151 127.305 53.8239 127.305 53.8594C127.305 53.9125 127.243 53.9213 127.013 53.9213C126.792 53.9213 126.332 53.9213 125.828 53.9125C125.713 53.9035 125.642 53.9035 125.642 53.8594C125.642 53.8239 125.669 53.8151 125.731 53.8063C125.775 53.7975 125.819 53.7356 125.784 53.6649L125.28 52.3562C125.262 52.3297 125.244 52.3121 125.218 52.3121H123.803Z" fill="#808080"/>
<path d="M131.805 53.5147C131.805 53.6828 131.796 53.6916 131.726 53.7359C131.319 53.9481 130.7 54.0188 130.205 54.0188C128.666 54.0188 127.296 53.3026 127.296 51.5962C127.296 50.6058 127.818 49.916 128.392 49.5712C128.994 49.2176 129.559 49.1733 130.09 49.1733C130.523 49.1733 131.072 49.2441 131.204 49.2707C131.336 49.2972 131.558 49.3326 131.699 49.3414C131.779 49.3502 131.787 49.3679 131.787 49.4122C131.787 49.4829 131.743 49.651 131.743 50.4289C131.743 50.5263 131.726 50.5616 131.673 50.5616C131.628 50.5616 131.611 50.5263 131.611 50.482C131.593 50.3406 131.558 50.1372 131.398 49.9691C131.213 49.7746 130.708 49.4829 129.993 49.4829C129.648 49.4829 129.188 49.5093 128.746 49.8631C128.392 50.1549 128.171 50.6147 128.171 51.375C128.171 52.7013 129.029 53.7005 130.355 53.7005C130.523 53.7005 130.735 53.7005 130.886 53.6297C130.983 53.5856 131 53.5059 131 53.3999V52.8163C131 52.5068 131 52.2681 130.991 52.0912C130.983 51.8791 130.93 51.7819 130.718 51.7376C130.664 51.7288 130.558 51.72 130.47 51.72C130.417 51.72 130.373 51.711 130.373 51.6669C130.373 51.6138 130.417 51.605 130.505 51.605C130.833 51.605 131.231 51.6226 131.416 51.6226C131.611 51.6226 131.947 51.605 132.15 51.605C132.229 51.605 132.274 51.6138 132.274 51.6669C132.274 51.7022 132.238 51.72 132.194 51.72C132.141 51.72 132.097 51.7288 132.026 51.7376C131.858 51.7641 131.796 51.8702 131.787 52.0912C131.779 52.277 131.779 52.5246 131.779 52.8339V53.5147H131.805Z" fill="#808080"/>
<path d="M133.591 51.0387C133.591 50.1015 133.591 49.9248 133.582 49.7302C133.573 49.5179 133.521 49.4207 133.309 49.3764C133.255 49.3676 133.149 49.3588 133.061 49.3588C132.99 49.3588 132.955 49.35 132.955 49.3057C132.955 49.2616 132.999 49.2526 133.096 49.2526C133.264 49.2526 133.45 49.2616 133.6 49.2616C133.768 49.2704 133.91 49.2704 133.998 49.2704C134.201 49.2704 135.448 49.2704 135.572 49.2616C135.696 49.2526 135.793 49.235 135.846 49.2262C135.873 49.2173 135.917 49.1997 135.943 49.1997C135.979 49.1997 135.979 49.2262 135.979 49.2526C135.979 49.2969 135.943 49.3676 135.926 49.6507C135.917 49.7124 135.908 49.9865 135.89 50.0574C135.881 50.0927 135.873 50.1281 135.828 50.1281C135.784 50.1281 135.775 50.1015 135.775 50.0396C135.775 49.9955 135.766 49.8893 135.74 49.8186C135.696 49.7036 135.634 49.6329 135.315 49.5976C135.209 49.5886 134.546 49.571 134.422 49.571C134.396 49.571 134.378 49.5886 134.378 49.6329V51.198C134.378 51.2421 134.387 51.2687 134.422 51.2687C134.564 51.2687 135.289 51.2687 135.431 51.2599C135.581 51.2421 135.678 51.2333 135.731 51.1625C135.775 51.1095 135.802 51.083 135.828 51.083C135.855 51.083 135.873 51.0918 135.873 51.1361C135.873 51.1714 135.837 51.2687 135.819 51.5871C135.811 51.7107 135.793 51.9583 135.793 52.0026C135.793 52.0557 135.793 52.1176 135.74 52.1176C135.696 52.1176 135.687 52.091 135.687 52.0645C135.678 52.0026 135.678 51.9231 135.66 51.8433C135.634 51.7197 135.545 51.6312 135.306 51.6047C135.192 51.5959 134.564 51.5871 134.413 51.5871C134.387 51.5871 134.378 51.6135 134.378 51.649V52.1352C134.378 52.3474 134.369 52.9132 134.378 53.0989C134.396 53.5235 134.493 53.6206 135.13 53.6206C135.298 53.6206 135.554 53.6206 135.722 53.5499C135.881 53.4792 135.961 53.3466 136.005 53.0901C136.023 53.0194 136.032 53.0018 136.076 53.0018C136.129 53.0018 136.129 53.0548 136.129 53.1168C136.129 53.2582 136.076 53.6825 136.049 53.8064C136.005 53.9654 135.952 53.9654 135.713 53.9654C135.245 53.9654 134.891 53.9566 134.626 53.9478C134.36 53.939 134.166 53.9302 133.971 53.9302C133.901 53.9302 133.759 53.939 133.609 53.939C133.467 53.9478 133.3 53.9478 133.176 53.9478C133.096 53.9478 133.052 53.9302 133.052 53.8859C133.052 53.8595 133.078 53.8416 133.149 53.8416C133.247 53.8416 133.317 53.8328 133.379 53.8152C133.503 53.7887 133.538 53.6561 133.565 53.4704C133.6 53.2139 133.6 52.7189 133.6 52.1529V51.0387H133.591Z" fill="#808080"/>
<path d="M137.826 49.2706C137.844 49.1644 137.888 49.1113 137.933 49.1113C137.986 49.1113 138.021 49.138 138.101 49.3059L139.816 52.7986L141.532 49.2618C141.576 49.1644 141.611 49.1113 141.673 49.1113C141.734 49.1113 141.77 49.1732 141.788 49.3059L142.363 53.1257C142.424 53.5148 142.486 53.6915 142.672 53.7534C142.858 53.8065 142.981 53.8153 143.061 53.8153C143.114 53.8153 143.159 53.8242 143.159 53.8596C143.159 53.9127 143.078 53.9303 142.999 53.9303C142.84 53.9303 141.973 53.9127 141.717 53.8949C141.576 53.8861 141.532 53.8684 141.532 53.8242C141.532 53.7889 141.558 53.7711 141.602 53.7534C141.637 53.7446 141.664 53.6651 141.637 53.4882L141.257 50.7648H141.231L139.86 53.5765C139.71 53.8684 139.684 53.9215 139.621 53.9215C139.568 53.9215 139.507 53.7977 139.401 53.612C139.25 53.3291 138.755 52.383 138.675 52.2061C138.622 52.0735 138.242 51.2953 138.021 50.8355H137.995L137.668 53.3025C137.65 53.4175 137.65 53.497 137.65 53.5944C137.65 53.7094 137.729 53.7711 137.835 53.7889C137.95 53.8153 138.039 53.8242 138.101 53.8242C138.154 53.8242 138.198 53.833 138.198 53.8684C138.198 53.9215 138.136 53.9392 138.048 53.9392C137.782 53.9392 137.5 53.9215 137.384 53.9215C137.261 53.9215 136.96 53.9392 136.757 53.9392C136.694 53.9392 136.642 53.9303 136.642 53.8684C136.642 53.842 136.677 53.8242 136.739 53.8242C136.792 53.8242 136.836 53.8242 136.925 53.8065C137.102 53.7711 137.155 53.5236 137.181 53.3203L137.826 49.2706Z" fill="#808080"/>
<path d="M144.193 51.0387C144.193 50.1015 144.193 49.9248 144.175 49.7302C144.166 49.5179 144.113 49.4207 143.91 49.3764C143.857 49.3676 143.751 49.3588 143.662 49.3588C143.592 49.3588 143.556 49.35 143.556 49.3057C143.556 49.2616 143.601 49.2526 143.698 49.2526C143.866 49.2526 144.052 49.2616 144.21 49.2616C144.369 49.2704 144.52 49.2704 144.608 49.2704C144.812 49.2704 146.058 49.2704 146.182 49.2616C146.297 49.2526 146.403 49.235 146.456 49.2262C146.483 49.2173 146.527 49.1997 146.554 49.1997C146.58 49.1997 146.589 49.2262 146.589 49.2526C146.589 49.2969 146.554 49.3676 146.536 49.6507C146.527 49.7124 146.518 49.9865 146.509 50.0574C146.5 50.0927 146.492 50.1281 146.447 50.1281C146.403 50.1281 146.386 50.1015 146.386 50.0396C146.386 49.9955 146.377 49.8893 146.35 49.8186C146.306 49.7036 146.244 49.6329 145.926 49.5976C145.82 49.5886 145.156 49.571 145.033 49.571C144.997 49.571 144.989 49.5886 144.989 49.6329V51.198C144.989 51.2421 144.997 51.2687 145.033 51.2687C145.175 51.2687 145.899 51.2687 146.041 51.2599C146.191 51.2421 146.288 51.2333 146.341 51.1625C146.386 51.1095 146.412 51.083 146.439 51.083C146.465 51.083 146.483 51.0918 146.483 51.1361C146.483 51.1714 146.456 51.2687 146.43 51.5871C146.421 51.7107 146.403 51.9583 146.403 52.0026C146.403 52.0557 146.403 52.1176 146.35 52.1176C146.306 52.1176 146.297 52.091 146.297 52.0645C146.288 52.0026 146.288 51.9231 146.271 51.8433C146.235 51.7197 146.147 51.6312 145.917 51.6047C145.802 51.5959 145.175 51.5871 145.024 51.5871C144.989 51.5871 144.989 51.6135 144.989 51.649V52.1352C144.989 52.3474 144.98 52.9132 144.989 53.0989C144.997 53.5235 145.103 53.6206 145.74 53.6206C145.899 53.6206 146.165 53.6206 146.333 53.5499C146.501 53.4792 146.572 53.3466 146.616 53.0901C146.624 53.0194 146.642 53.0018 146.686 53.0018C146.739 53.0018 146.739 53.0548 146.739 53.1168C146.739 53.2582 146.686 53.6825 146.66 53.8064C146.616 53.9654 146.563 53.9654 146.315 53.9654C145.846 53.9654 145.501 53.9566 145.228 53.9478C144.953 53.939 144.759 53.9302 144.573 53.9302C144.502 53.9302 144.37 53.939 144.219 53.939C144.078 53.9478 143.91 53.9478 143.786 53.9478C143.707 53.9478 143.662 53.9302 143.662 53.8859C143.662 53.8595 143.689 53.8416 143.76 53.8416C143.857 53.8416 143.927 53.8328 143.99 53.8152C144.113 53.7887 144.149 53.6561 144.175 53.4704C144.21 53.2139 144.21 52.7189 144.21 52.1529V51.0387H144.193Z" fill="#808080"/>
<path d="M148.552 53.0818C148.569 53.568 148.65 53.7273 148.773 53.7626C148.879 53.798 149.003 53.8069 149.1 53.8069C149.171 53.8069 149.206 53.8157 149.206 53.8511C149.206 53.904 149.145 53.913 149.056 53.913C148.65 53.913 148.393 53.8952 148.278 53.8952C148.225 53.8952 147.924 53.913 147.597 53.913C147.518 53.913 147.456 53.904 147.456 53.8511C147.456 53.8157 147.491 53.8069 147.553 53.8069C147.632 53.8069 147.747 53.798 147.836 53.7714C147.995 53.7183 148.021 53.5416 148.03 53.0022L148.092 49.3416C148.092 49.2178 148.11 49.1294 148.172 49.1294C148.243 49.1294 148.296 49.2089 148.402 49.3239C148.481 49.4035 149.436 50.4115 150.356 51.3133C150.78 51.7378 151.629 52.622 151.735 52.7282H151.771L151.709 49.9517C151.7 49.5714 151.646 49.4564 151.496 49.3947C151.399 49.3592 151.249 49.3592 151.16 49.3592C151.081 49.3592 151.063 49.3416 151.063 49.3061C151.063 49.253 151.134 49.253 151.231 49.253C151.558 49.253 151.859 49.2708 151.991 49.2708C152.062 49.2708 152.301 49.253 152.602 49.253C152.681 49.253 152.743 49.262 152.743 49.3061C152.743 49.3416 152.708 49.3592 152.628 49.3592C152.566 49.3592 152.513 49.3592 152.442 49.3768C152.266 49.4299 152.213 49.5537 152.204 49.9074L152.133 53.8157C152.133 53.9483 152.106 54.0102 152.053 54.0102C151.983 54.0102 151.912 53.9395 151.841 53.8688C151.443 53.4973 150.639 52.6839 149.984 52.0472C149.295 51.3752 148.605 50.606 148.49 50.491H148.472L148.552 53.0818Z" fill="#808080"/>
<path d="M155.025 49.5974L154.087 49.6239C153.724 49.6327 153.574 49.6681 153.477 49.8008C153.415 49.8891 153.389 49.9687 153.371 50.0129C153.362 50.066 153.336 50.0925 153.3 50.0925C153.256 50.0925 153.238 50.0572 153.238 49.9953C153.238 49.8979 153.353 49.3322 153.371 49.2791C153.389 49.1995 153.406 49.1641 153.451 49.1641C153.504 49.1641 153.565 49.226 153.724 49.2348C153.91 49.2524 154.149 49.2614 154.352 49.2614H156.846C157.049 49.2614 157.191 49.2436 157.279 49.2348C157.376 49.2172 157.42 49.2083 157.447 49.2083C157.491 49.2083 157.5 49.2436 157.5 49.341C157.5 49.4736 157.482 49.8979 157.482 50.0572C157.474 50.1189 157.465 50.1544 157.429 50.1544C157.376 50.1544 157.368 50.1189 157.359 50.0306L157.35 49.9599C157.341 49.8008 157.164 49.6239 156.607 49.615L155.811 49.5974V52.1351C155.811 52.7008 155.811 53.1961 155.847 53.4614C155.864 53.6381 155.908 53.7707 156.094 53.7974C156.183 53.8062 156.324 53.8238 156.413 53.8238C156.483 53.8238 156.51 53.8414 156.51 53.8681C156.51 53.9124 156.466 53.93 156.386 53.93C155.971 53.93 155.573 53.9124 155.404 53.9124C155.254 53.9124 154.856 53.93 154.609 53.93C154.529 53.93 154.485 53.9124 154.485 53.8681C154.485 53.8414 154.511 53.8238 154.582 53.8238C154.68 53.8238 154.75 53.815 154.812 53.7974C154.936 53.7707 154.98 53.6381 154.998 53.4526C155.033 53.1961 155.033 52.7008 155.033 52.1351V49.5974H155.025Z" fill="#808080"/>
<path d="M62.9875 58.4219C62.9875 57.4846 62.9875 57.3079 62.9699 57.1134C62.9611 56.901 62.908 56.8038 62.6958 56.7596C62.6427 56.7419 62.5367 56.7419 62.4482 56.7419C62.3774 56.7419 62.3422 56.7331 62.3422 56.6888C62.3422 56.6448 62.3862 56.6357 62.4836 56.6357C62.8196 56.6357 63.2175 56.6536 63.4032 56.6536C63.5535 56.6536 63.9514 56.6357 64.1724 56.6357C64.2608 56.6357 64.3139 56.6448 64.3139 56.6888C64.3139 56.7331 64.2786 56.7419 64.2167 56.7419C64.146 56.7419 64.1105 56.7507 64.031 56.7596C63.863 56.7862 63.81 56.8922 63.8011 57.1134C63.7833 57.3079 63.7833 57.4846 63.7833 58.4219V59.2884C63.7833 60.1815 63.969 60.5618 64.2698 60.8092C64.5527 61.0392 64.8444 61.0657 65.0568 61.0657C65.3308 61.0657 65.6757 60.9773 65.9231 60.7297C66.2679 60.3849 66.2857 59.8365 66.2857 59.1912V58.4219C66.2857 57.4846 66.2857 57.3079 66.2679 57.1134C66.2593 56.901 66.2062 56.8038 65.994 56.7596C65.9409 56.7419 65.8347 56.7419 65.764 56.7419C65.6933 56.7419 65.6578 56.7331 65.6578 56.6888C65.6578 56.6448 65.7021 56.6357 65.7905 56.6357C66.1088 56.6357 66.5067 56.6536 66.5155 56.6536C66.5953 56.6536 66.9842 56.6357 67.2318 56.6357C67.3204 56.6357 67.3644 56.6448 67.3644 56.6888C67.3644 56.7331 67.329 56.7419 67.2494 56.7419C67.1787 56.7419 67.1434 56.7507 67.0637 56.7596C66.8958 56.7862 66.8427 56.8922 66.8339 57.1134C66.8251 57.3079 66.8251 57.4846 66.8251 58.4219V59.085C66.8251 59.7748 66.7544 60.4997 66.2238 60.9507C65.7728 61.3309 65.3218 61.3929 64.9151 61.3929C64.5791 61.3929 63.9779 61.3752 63.518 60.9685C63.1997 60.6854 62.9611 60.2256 62.9611 59.3327V58.4219H62.9875Z" fill="#808080"/>
<path d="M69.0003 60.4645C69.0091 60.9507 69.0975 61.11 69.2213 61.1541C69.3275 61.1895 69.4511 61.1983 69.5485 61.1983C69.6192 61.1983 69.6544 61.216 69.6544 61.2514C69.6544 61.3043 69.5925 61.3133 69.5042 61.3133C69.0975 61.3133 68.841 61.2957 68.726 61.2957C68.6643 61.2957 68.3724 61.3133 68.0452 61.3133C67.9657 61.3133 67.9038 61.3043 67.9038 61.2514C67.9038 61.216 67.939 61.1983 68.0011 61.1983C68.0807 61.1983 68.1957 61.1895 68.284 61.1719C68.4519 61.1188 68.4698 60.9419 68.4786 60.4026L68.5317 56.742C68.5317 56.6181 68.5493 56.5298 68.6112 56.5298C68.6819 56.5298 68.735 56.6093 68.841 56.7243C68.9207 56.8039 69.8756 57.8118 70.7862 58.7138C71.2108 59.1381 72.0596 60.0223 72.1656 60.1197H72.2011L72.1392 57.3432C72.1304 56.9629 72.0775 56.8481 71.9268 56.7862C71.8296 56.7508 71.6794 56.7508 71.5912 56.7508C71.5201 56.7508 71.4937 56.7331 71.4937 56.6977C71.4937 56.6448 71.5644 56.6448 71.6529 56.6448C71.9803 56.6448 72.2804 56.6624 72.4135 56.6624C72.4842 56.6624 72.7226 56.6448 73.0321 56.6448C73.1117 56.6448 73.1736 56.6536 73.1736 56.6977C73.1736 56.7331 73.1381 56.7508 73.0588 56.7508C72.9969 56.7508 72.9438 56.7508 72.8733 56.7684C72.6962 56.8215 72.6431 56.9453 72.6431 57.2901L72.5725 61.1983C72.5725 61.331 72.5459 61.3929 72.493 61.3929C72.4223 61.3929 72.3512 61.3222 72.2804 61.2603C71.8825 60.8888 71.0781 60.0754 70.4238 59.4389C69.743 58.7667 69.0356 57.9976 68.9296 57.8826H68.9117L69.0003 60.4645Z" fill="#808080"/>
<path d="M74.6416 58.4219C74.6416 57.4847 74.6416 57.3079 74.6327 57.1134C74.6239 56.901 74.5532 56.795 74.4204 56.7684C74.3497 56.7508 74.2701 56.742 74.1906 56.742C74.1289 56.742 74.093 56.7331 74.093 56.68C74.093 56.6448 74.1465 56.627 74.2437 56.627C74.4821 56.627 74.88 56.6448 75.0571 56.6448C75.2162 56.6448 75.5876 56.627 75.826 56.627C75.906 56.627 75.9591 56.6358 75.9591 56.68C75.9591 56.7331 75.9236 56.742 75.8619 56.742C75.7996 56.742 75.7465 56.7508 75.676 56.7596C75.5081 56.7862 75.4552 56.8922 75.4462 57.1134C75.4285 57.3079 75.4285 57.4847 75.4285 58.4219V59.5096C75.4285 60.1108 75.4285 60.5971 75.4552 60.8624C75.4728 61.0303 75.5169 61.1364 75.7112 61.1629C75.7996 61.1719 75.9414 61.1895 76.0296 61.1895C76.1003 61.1895 76.1268 61.2072 76.1268 61.2426C76.1268 61.2867 76.0739 61.3045 76.012 61.3045C75.5964 61.3045 75.1985 61.2867 75.0306 61.2867C74.8888 61.2867 74.4909 61.3045 74.2437 61.3045C74.1641 61.3045 74.12 61.2867 74.12 61.2426C74.12 61.2072 74.1465 61.1895 74.2172 61.1895C74.3144 61.1895 74.3849 61.1807 74.4468 61.1629C74.5708 61.1364 74.6063 61.0303 74.6327 60.8535C74.668 60.5971 74.668 60.102 74.668 59.5008V58.4219H74.6416Z" fill="#808080"/>
<path d="M76.9316 57.2372C76.7901 56.901 76.6837 56.8303 76.4541 56.7684C76.357 56.7419 76.2598 56.7419 76.2063 56.7419C76.1532 56.7419 76.1268 56.7243 76.1268 56.6888C76.1268 56.6357 76.1975 56.6357 76.2951 56.6357C76.6307 56.6357 76.9845 56.6536 77.2058 56.6536C77.3647 56.6536 77.6655 56.6357 77.984 56.6357C78.0635 56.6357 78.1253 56.6448 78.1253 56.6888C78.1253 56.7331 78.09 56.7419 78.0281 56.7419C77.9305 56.7419 77.8334 56.7507 77.7803 56.7862C77.7362 56.8126 77.7185 56.8569 77.7185 56.9188C77.7185 56.9984 77.7714 57.1751 77.8686 57.3963L78.9477 60.208H78.9741C79.2484 59.5272 80.0615 57.5377 80.2121 57.131C80.2474 57.0515 80.2738 56.9541 80.2738 56.901C80.2738 56.8481 80.2474 56.8038 80.1945 56.7862C80.1149 56.7596 80.0262 56.7507 79.9466 56.7507C79.8936 56.7507 79.8407 56.7419 79.8407 56.6976C79.8407 56.6448 79.8936 56.6357 80.0172 56.6357C80.3357 56.6357 80.6012 56.6536 80.6807 56.6536C80.7867 56.6536 81.0786 56.6357 81.2728 56.6357C81.3523 56.6357 81.4058 56.6448 81.4058 56.6888C81.4058 56.7331 81.3699 56.7419 81.3082 56.7419C81.2463 56.7419 81.1139 56.7419 80.9991 56.8215C80.9192 56.8746 80.822 56.9807 80.6541 57.3786C80.4064 57.9621 80.2386 58.298 79.9024 59.0586C79.4957 59.9604 79.2038 60.6325 79.0625 60.9419C78.8946 61.3045 78.8593 61.4017 78.7704 61.4017C78.6911 61.4017 78.6468 61.3133 78.532 61.0214L76.9316 57.2372Z" fill="#808080"/>
<path d="M82.0952 58.422C82.0952 57.4848 82.0952 57.3081 82.0864 57.1135C82.0776 56.9012 82.0245 56.804 81.8121 56.7597C81.759 56.7421 81.653 56.7421 81.5649 56.7421C81.4941 56.7421 81.4589 56.7333 81.4589 56.689C81.4589 56.6449 81.5029 56.6359 81.6001 56.6359C81.768 56.6359 81.9539 56.6449 82.104 56.6449C82.2723 56.6537 82.4135 56.6537 82.5019 56.6537C82.7056 56.6537 83.9518 56.6537 84.076 56.6449C84.1909 56.6359 84.2968 56.6183 84.3497 56.6095C84.3856 56.6006 84.4209 56.583 84.4475 56.583C84.4739 56.583 84.4828 56.6095 84.4828 56.6359C84.4828 56.6802 84.4563 56.7509 84.4299 57.0426C84.4209 57.1045 84.412 57.3788 84.394 57.4495C84.3856 57.476 84.3768 57.5114 84.3321 57.5114C84.288 57.5114 84.2704 57.4848 84.2704 57.4229C84.2704 57.3788 84.2614 57.2726 84.2349 57.2019C84.1909 57.0869 84.1289 57.0162 83.8106 56.9809C83.7046 56.9719 83.0412 56.9543 82.9176 56.9543C82.891 56.9543 82.8733 56.9719 82.8733 57.0162V58.5813C82.8733 58.6254 82.8822 58.652 82.9176 58.652C83.0589 58.652 83.7841 58.652 83.9254 58.643C84.076 58.6344 84.1732 58.6166 84.2261 58.5547C84.2704 58.5016 84.2968 58.4751 84.3233 58.4751C84.3497 58.4751 84.3674 58.4839 84.3674 58.5282C84.3674 58.5635 84.3409 58.6608 84.3145 58.9792C84.3057 59.1028 84.288 59.3505 84.288 59.3947C84.288 59.439 84.288 59.5097 84.2349 59.5097C84.1909 59.5097 84.1732 59.4831 84.1732 59.4566C84.1644 59.3947 84.1644 59.3152 84.1466 59.2355C84.1201 59.1118 84.023 59.0145 83.793 58.9968C83.6693 58.988 83.0501 58.9792 82.8998 58.9792C82.8733 58.9792 82.8645 59.0056 82.8645 59.0411V59.5274C82.8645 59.7395 82.8557 60.3055 82.8645 60.4822C82.8733 60.9068 82.9793 61.0039 83.6162 61.0039C83.7841 61.0039 84.0406 61.0039 84.2085 60.9332C84.3674 60.8537 84.4475 60.7299 84.4916 60.4734C84.5092 60.4027 84.518 60.3762 84.5623 60.3762C84.6152 60.3762 84.6152 60.4291 84.6152 60.491C84.6152 60.6327 84.5623 61.0482 84.5357 61.1808C84.4916 61.3399 84.4387 61.3399 84.1909 61.3399C83.7222 61.3399 83.3772 61.3311 83.1035 61.3223C82.8293 61.3135 82.6343 61.3045 82.449 61.3045C82.3783 61.3045 82.2458 61.3135 82.0952 61.3135C81.9539 61.3223 81.7857 61.3223 81.662 61.3223C81.5825 61.3223 81.5382 61.3045 81.5382 61.2604C81.5382 61.2249 81.5649 61.2073 81.6354 61.2073C81.7326 61.2073 81.8033 61.1985 81.8656 61.1808C81.9892 61.1542 82.0245 61.0216 82.0511 60.836C82.0864 60.5796 82.0864 60.0843 82.0864 59.5185V58.422H82.0952Z" fill="#808080"/>
<path d="M86.8433 58.9171C86.8433 58.9878 86.8521 59.0055 86.8964 59.0231C87.0292 59.0674 87.2147 59.085 87.3738 59.085C87.6215 59.085 87.7098 59.0586 87.8246 58.979C88.0105 58.8464 88.1966 58.5545 88.1966 58.0506C88.1966 57.1751 87.6038 56.9188 87.2324 56.9188C87.0735 56.9188 86.9669 56.9276 86.8964 56.9453C86.8521 56.9541 86.8433 56.9807 86.8433 57.0336V58.9171ZM86.101 58.4219C86.101 57.4846 86.101 57.3079 86.0916 57.1134C86.074 56.901 86.0299 56.8038 85.8179 56.7596C85.7648 56.7419 85.6584 56.7419 85.5701 56.7419C85.4993 56.7419 85.4641 56.7331 85.4641 56.6888C85.4641 56.6448 85.5082 56.6357 85.6053 56.6357C85.9415 56.6357 86.3394 56.6536 86.463 56.6536C86.6756 56.6536 87.153 56.6357 87.3472 56.6357C87.7451 56.6357 88.1608 56.6712 88.5056 56.901C88.6829 57.016 88.9301 57.3344 88.9301 57.7499C88.9301 58.2097 88.7358 58.6252 88.0989 59.1381C88.6559 59.8277 89.089 60.3849 89.4605 60.765C89.8143 61.1276 90.0709 61.1629 90.1681 61.1895C90.2386 61.1983 90.2917 61.2071 90.3446 61.2071C90.3981 61.2071 90.4247 61.2248 90.4247 61.2602C90.4247 61.3133 90.3801 61.3221 90.3005 61.3221H89.6995C89.3457 61.3221 89.1956 61.2957 89.0273 61.2071C88.7534 61.0657 88.5234 60.774 88.1696 60.2963C87.9136 59.9604 87.6303 59.536 87.5509 59.4477C87.5155 59.4122 87.4802 59.4034 87.4361 59.4034L86.8876 59.3946C86.8609 59.3946 86.8345 59.4034 86.8345 59.4477V59.536C86.8345 60.1108 86.8345 60.5971 86.8697 60.8623C86.8876 61.0392 86.9317 61.1807 87.1176 61.2071C87.2147 61.2159 87.3472 61.2336 87.4273 61.2336C87.4802 61.2336 87.5067 61.2514 87.5067 61.2867C87.5067 61.3309 87.4626 61.3486 87.3826 61.3486C87.0204 61.3486 86.552 61.3309 86.4542 61.3309C86.3394 61.3309 85.9415 61.3486 85.6855 61.3486C85.6053 61.3486 85.5613 61.3309 85.5613 61.2867C85.5613 61.2514 85.5877 61.2336 85.6584 61.2336C85.756 61.2336 85.8267 61.2248 85.8884 61.2071C86.0122 61.1807 86.0475 61.048 86.074 60.8623C86.1092 60.6059 86.1092 60.1108 86.1092 59.5448V58.4219H86.101Z" fill="#808080"/>
<path d="M90.4418 61.2336C90.3446 61.1895 90.327 61.1628 90.327 61.0214C90.327 60.6854 90.3534 60.3141 90.3628 60.208C90.3713 60.1108 90.3889 60.0489 90.4418 60.0489C90.5041 60.0489 90.5041 60.102 90.5041 60.1549C90.5041 60.2344 90.5307 60.367 90.5572 60.4732C90.6984 60.933 91.0699 61.1009 91.459 61.1009C92.0248 61.1009 92.299 60.7209 92.299 60.3937C92.299 60.093 92.2019 59.8013 91.6803 59.4034L91.3882 59.1824C90.6984 58.6518 90.46 58.2185 90.46 57.7146C90.46 57.0336 91.0434 56.5474 91.91 56.5474C92.3167 56.5474 92.5821 56.6093 92.7498 56.6535C92.8029 56.6624 92.8382 56.6888 92.8382 56.7331C92.8382 56.8126 92.8117 56.9895 92.8117 57.4758C92.8117 57.6084 92.7941 57.6615 92.741 57.6615C92.6969 57.6615 92.6793 57.6261 92.6793 57.5465C92.6793 57.4934 92.6438 57.2989 92.511 57.1398C92.4138 57.0248 92.2371 56.8391 91.8216 56.8391C91.353 56.8391 91.0699 57.1043 91.0699 57.4758C91.0699 57.7587 91.2111 57.9797 91.7421 58.3688L91.9188 58.5014C92.6793 59.0762 92.953 59.4917 92.953 60.0753C92.953 60.438 92.8117 60.8623 92.3607 61.154C92.0424 61.3486 91.6886 61.4105 91.3618 61.4105C90.9992 61.3928 90.7161 61.3486 90.4418 61.2336Z" fill="#808080"/>
<path d="M94.4828 58.4219C94.4828 57.4847 94.4828 57.3079 94.474 57.1134C94.4652 56.901 94.3947 56.795 94.262 56.7684C94.1909 56.7508 94.1114 56.742 94.032 56.742C93.9701 56.742 93.9349 56.7331 93.9349 56.68C93.9349 56.6448 93.9878 56.627 94.0849 56.627C94.324 56.627 94.7219 56.6448 94.8986 56.6448C95.0575 56.6448 95.4289 56.627 95.6679 56.627C95.7473 56.627 95.8003 56.6358 95.8003 56.68C95.8003 56.7331 95.7651 56.742 95.7032 56.742C95.6415 56.742 95.5884 56.7508 95.5173 56.7596C95.3494 56.7862 95.2965 56.8922 95.2876 57.1134C95.2788 57.3079 95.2788 57.4847 95.2788 58.4219V59.5096C95.2788 60.1108 95.2788 60.5971 95.3053 60.8624C95.3229 61.0303 95.367 61.1364 95.5525 61.1629C95.6415 61.1719 95.7827 61.1895 95.8711 61.1895C95.9416 61.1895 95.9686 61.2072 95.9686 61.2426C95.9686 61.2867 95.9245 61.3045 95.8532 61.3045C95.4377 61.3045 95.0398 61.2867 94.8719 61.2867C94.7219 61.2867 94.3328 61.3045 94.0761 61.3045C93.9966 61.3045 93.9525 61.2867 93.9525 61.2426C93.9525 61.2072 93.979 61.1895 94.0497 61.1895C94.1469 61.1895 94.2174 61.1807 94.2799 61.1629C94.4035 61.1364 94.4388 61.0303 94.4652 60.8535C94.5007 60.5971 94.5007 60.102 94.5007 59.5008V58.4219H94.4828Z" fill="#808080"/>
<path d="M98.1968 56.9812L97.2595 57.0077C96.8971 57.0165 96.7464 57.052 96.6493 57.1846C96.5874 57.2818 96.5521 57.3525 96.5433 57.3968C96.5256 57.4499 96.5078 57.4675 96.4725 57.4675C96.4285 57.4675 96.4108 57.441 96.4108 57.3701C96.4108 57.2729 96.5345 56.7072 96.5433 56.6541C96.5609 56.5745 96.5785 56.5391 96.6228 56.5391C96.6757 56.5391 96.7376 56.601 96.8971 56.6186C97.0824 56.6362 97.3214 56.6452 97.5246 56.6452H100.018C100.222 56.6452 100.354 56.6274 100.451 56.6186C100.548 56.601 100.593 56.5922 100.619 56.5922C100.663 56.5922 100.672 56.6274 100.672 56.7248C100.672 56.8574 100.654 57.2818 100.654 57.441C100.646 57.5028 100.637 57.5382 100.602 57.5382C100.548 57.5382 100.54 57.5028 100.531 57.4144L100.522 57.3437C100.513 57.1846 100.336 57.0077 99.7791 56.9989L98.9833 56.9812V59.5189C98.9833 60.0847 98.9833 60.5799 99.0192 60.8452C99.0368 61.0219 99.0721 61.1545 99.2664 61.1812C99.3548 61.19 99.4876 61.2076 99.5848 61.2076C99.6555 61.2076 99.682 61.2253 99.682 61.2607C99.682 61.305 99.6291 61.3226 99.5583 61.3226C99.1428 61.3226 98.7449 61.305 98.5682 61.305C98.4264 61.305 98.0285 61.3226 97.7812 61.3226C97.7017 61.3226 97.657 61.305 97.657 61.2607C97.657 61.2253 97.6835 61.2076 97.7546 61.2076C97.8518 61.2076 97.9225 61.1988 97.9844 61.1812C98.108 61.1545 98.1527 61.0219 98.1703 60.8364C98.2056 60.5799 98.2056 60.0847 98.2056 59.5189V56.9812H98.1968Z" fill="#808080"/>
<path d="M102.591 59.7037C102.591 59.3679 102.529 59.2351 102.45 59.0584C102.405 58.961 101.565 57.5994 101.344 57.281C101.185 57.0512 101.026 56.9008 100.911 56.8301C100.831 56.786 100.725 56.7505 100.645 56.7505C100.592 56.7505 100.548 56.7417 100.548 56.6974C100.548 56.6622 100.592 56.6445 100.672 56.6445C100.787 56.6445 101.256 56.6622 101.468 56.6622C101.601 56.6622 101.857 56.6445 102.14 56.6445C102.202 56.6445 102.237 56.6622 102.237 56.6974C102.237 56.7329 102.193 56.7417 102.096 56.7682C102.043 56.786 102.008 56.8301 102.008 56.8832C102.008 56.9362 102.043 57.007 102.087 57.0953C102.175 57.281 103.06 58.7755 103.157 58.9434C103.219 58.7931 104.014 57.4313 104.103 57.2458C104.165 57.1132 104.192 57.007 104.192 56.9274C104.192 56.8655 104.165 56.7948 104.059 56.7682C104.006 56.7593 103.944 56.7417 103.944 56.7064C103.944 56.6622 103.979 56.6533 104.05 56.6533C104.262 56.6533 104.456 56.671 104.643 56.671C104.784 56.671 105.199 56.6533 105.314 56.6533C105.385 56.6533 105.43 56.6622 105.43 56.7064C105.43 56.7505 105.376 56.7682 105.314 56.7682C105.252 56.7682 105.129 56.7948 105.04 56.8479C104.907 56.9098 104.837 56.9805 104.704 57.1484C104.501 57.396 103.617 58.855 103.502 59.1203C103.405 59.3413 103.405 59.5358 103.405 59.7391V60.252C103.405 60.3492 103.405 60.6057 103.422 60.8709C103.431 61.0478 103.493 61.1893 103.679 61.2157C103.767 61.2247 103.908 61.2424 103.997 61.2424C104.067 61.2424 104.094 61.26 104.094 61.2955C104.094 61.3395 104.041 61.3572 103.961 61.3572C103.563 61.3572 103.166 61.3395 102.998 61.3395C102.838 61.3395 102.441 61.3572 102.211 61.3572C102.122 61.3572 102.069 61.3484 102.069 61.2955C102.069 61.26 102.096 61.2424 102.167 61.2424C102.255 61.2424 102.334 61.2334 102.388 61.2157C102.512 61.1893 102.573 61.0566 102.582 60.8709C102.6 60.6145 102.6 60.3492 102.6 60.252V59.7037H102.591Z" fill="#808080"/>
</g>
</g>
<defs>
<filter id="filter0_ii_1063_28983" x="0" y="0" width="180" height="80" filterUnits="userSpaceOnUse" color-interpolation-filters="sRGB">
<feFlood flood-opacity="0" result="BackgroundImageFix"/>
<feBlend mode="normal" in="SourceGraphic" in2="BackgroundImageFix" result="shape"/>
<feColorMatrix in="SourceAlpha" type="matrix" values="0 0 0 0 0 0 0 0 0 0 0 0 0 0 0 0 0 0 127 0" result="hardAlpha"/>
<feOffset dy="-1"/>
<feComposite in2="hardAlpha" operator="arithmetic" k2="-1" k3="1"/>
<feColorMatrix type="matrix" values="0 0 0 0 0.533333 0 0 0 0 0.521569 0 0 0 0 0.521569 0 0 0 0.5 0"/>
<feBlend mode="normal" in2="shape" result="effect1_innerShadow_1063_28983"/>
<feColorMatrix in="SourceAlpha" type="matrix" values="0 0 0 0 0 0 0 0 0 0 0 0 0 0 0 0 0 0 127 0" result="hardAlpha"/>
<feOffset dx="-1"/>
<feComposite in2="hardAlpha" operator="arithmetic" k2="-1" k3="1"/>
<feColorMatrix type="matrix" values="0 0 0 0 0.533333 0 0 0 0 0.527729 0 0 0 0 0.522222 0 0 0 0.5 0"/>
<feBlend mode="normal" in2="effect1_innerShadow_1063_28983" result="effect2_innerShadow_1063_28983"/>
</filter>
<clipPath id="clip0_1063_28983">
<rect width="135" height="53.0439" fill="white" transform="translate(22.5 13.478)"/>
</clipPath>
</defs>
</svg>
