<svg width="180" height="80" viewBox="0 0 180 80" fill="none" xmlns="http://www.w3.org/2000/svg">
<g filter="url(#filter0_ii_1063_28970)">
<g clip-path="url(#clip0_1063_28970)">
<path d="M54.1064 44.0046C54.1064 42.482 54.1618 40.9594 54.0936 39.4411C53.9315 35.8671 56.7847 33.3678 59.3181 32.7878C61.4591 32.2973 63.4892 32.4594 65.4255 33.5171C65.6601 33.645 65.8861 33.7943 66.1122 33.9478C66.496 34.208 66.496 34.2165 66.8585 33.9564C67.5111 33.4915 68.2148 33.129 68.9867 32.8987C70.9315 32.3186 72.8849 32.3186 74.7401 33.1332C76.7276 34.0033 78.1478 35.4662 78.7108 37.637C78.8942 38.3322 78.8899 39.0487 78.8942 39.7524C78.9155 42.8232 78.9112 45.8939 78.8942 48.9647C78.8899 50.065 78.6084 50.2527 77.5763 50.3039C76.7958 50.3422 76.0111 50.3209 75.2306 50.3124C74.5269 50.3039 74.2326 49.9883 74.2326 49.276C74.2283 45.992 74.2326 42.708 74.2326 39.424C74.2326 39.1383 74.2113 38.8568 74.1644 38.5753C74.062 37.9654 73.7677 37.4707 73.2559 37.1423C72.339 36.5452 71.3495 36.4215 70.3302 36.8565C69.3706 37.266 68.8886 38.0209 68.8631 39.0615C68.846 39.8164 68.8503 40.567 68.8503 41.3219C68.8503 43.9235 68.8375 46.5251 68.8631 49.1267C68.8716 49.9925 68.5347 50.338 67.6603 50.3209C66.8628 50.3039 66.0695 50.3167 65.272 50.3167C65.1014 50.3167 64.935 50.3081 64.7644 50.2655C64.4275 50.1802 64.2185 49.9797 64.1418 49.6385C64.1076 49.485 64.0906 49.3315 64.0949 49.1737C64.1204 48.0392 64.1076 46.9004 64.1332 45.7617C64.1844 43.4757 64.1119 41.1854 64.0821 38.8994C64.0735 38.1232 63.7195 37.5133 63.0627 37.0826C61.9794 36.3661 60.5208 36.4386 59.5271 37.2788C59.0835 37.6541 58.8575 38.1531 58.785 38.7203C58.7679 38.8483 58.7679 38.9762 58.7679 39.1042C58.704 41.7186 58.7082 44.333 58.7296 46.9474C58.7338 47.6553 58.7594 48.3676 58.7637 49.0798C58.7679 50.0352 58.4779 50.3209 57.5141 50.3167C56.8743 50.3167 56.2346 50.3124 55.5948 50.3167C55.3347 50.3209 55.083 50.2868 54.8314 50.2399C54.4092 50.1589 54.1874 49.9328 54.1192 49.5021C54.0936 49.3357 54.0978 49.1609 54.0978 48.9903C54.1021 47.3312 54.1021 45.6679 54.1064 44.0046C54.1021 44.0046 54.1021 44.0046 54.1064 44.0046Z" fill="#808080"/>
<path d="M85.074 49.3445C85.0143 49.4725 85.0442 49.626 85.0442 49.7795C85.0399 51.7542 85.0228 53.7331 85.0527 55.7078C85.0655 56.5693 84.4982 57.0299 83.7689 57C83.1036 56.9702 82.434 56.9958 81.7644 56.9915C81.436 56.9915 81.1503 56.8934 80.9285 56.6375C80.7963 56.484 80.7067 56.3091 80.711 56.0959C80.711 56.0106 80.711 55.9253 80.711 55.84C80.711 48.5214 80.7195 41.1985 80.7025 33.8799C80.7025 33.0099 81.0223 32.835 81.7303 32.8563C82.3445 32.8734 82.9501 32.9502 83.5344 33.125C83.9054 33.2359 84.2466 33.398 84.558 33.6411C84.848 33.8671 84.8522 33.8628 85.1806 33.6539C85.9825 33.1506 86.844 32.7966 87.7823 32.6345C91.4245 32.0076 95.0156 33.7818 96.2695 37.5008C96.5851 38.4348 96.7514 39.3944 96.8495 40.3711C96.986 41.7572 96.905 43.122 96.5766 44.474C96.1927 46.0349 95.5317 47.4466 94.3503 48.5726C93.267 49.6047 91.9747 50.2103 90.4905 50.4107C88.6267 50.6666 86.8696 50.3468 85.2531 49.3616C85.2105 49.336 85.1636 49.3019 85.074 49.3445ZM84.8267 41.4544C84.8565 42.1794 84.7883 43.0879 84.8864 43.9963C84.9887 44.9133 85.3939 45.6426 86.1445 46.1714C87.07 46.8282 88.1192 47.0372 89.2238 46.8837C90.3156 46.7344 91.2241 46.2567 91.7444 45.2203C92.0088 44.6957 92.1538 44.1328 92.2349 43.5527C92.3841 42.5078 92.3543 41.4544 92.3244 40.4052C92.3031 39.6503 92.1496 38.9125 91.8809 38.2045C91.4842 37.1468 90.7379 36.4644 89.6503 36.1531C88.9978 35.9655 88.3324 35.9527 87.6714 36.0891C86.1914 36.3919 84.8139 37.4241 84.8267 39.3987C84.8309 40.0214 84.8267 40.6483 84.8267 41.4544Z" fill="#808080"/>
<path d="M24.0045 39.2024C24.1836 39.1981 24.2391 39.1043 24.3073 39.0403C25.5697 37.8504 26.8279 36.6605 28.086 35.4663C28.7258 34.8607 29.3741 34.2636 29.9925 33.6367C30.3891 33.2315 30.854 33.0353 31.3999 33.031C32.4661 33.0182 33.5324 33.0268 34.5986 33.0353C34.7265 33.0353 34.8545 33.0609 34.9782 33.0822C35.4345 33.1718 35.5795 33.4831 35.3535 33.8926C35.2426 34.093 35.0891 34.2636 34.9313 34.4257C34.0911 35.2915 33.2509 36.1615 32.4022 37.0188C31.4937 37.94 30.5768 38.8484 29.6598 39.7654C28.8495 40.58 28.8452 41.16 29.6214 42.0002C31.7155 44.2649 33.801 46.5338 35.8866 48.807C36.0785 49.016 36.2662 49.2335 36.3728 49.5022C36.5519 49.9586 36.3899 50.2187 35.9037 50.2528C35.8482 50.2571 35.7885 50.2571 35.7331 50.2571C34.5261 50.2528 33.3148 50.2486 32.1079 50.2486C31.6558 50.2486 31.2847 50.095 30.9691 49.7666C29.1608 47.8773 27.3951 45.9495 25.638 44.0132C25.1902 43.5185 24.7338 43.028 24.2817 42.5376C24.2178 42.4693 24.158 42.3883 24.0002 42.3329C24.0002 42.4992 24.0002 42.6314 24.0002 42.7679C24.0002 44.9302 24.0002 47.0883 24.0002 49.2506C24.0002 49.3785 24.0088 49.5065 23.996 49.6344C23.9533 50.0694 23.7742 50.2358 23.3349 50.24C22.3113 50.2486 21.2878 50.2443 20.2642 50.24C19.8675 50.24 19.6969 50.0822 19.6586 49.6856C19.6415 49.5321 19.65 49.3743 19.65 49.2165C19.65 40.7719 19.65 32.3273 19.6543 23.8828C19.6543 23.017 19.7268 22.9445 20.5755 23.0213C21.4242 23.0938 22.2175 23.3454 22.917 23.8486C23.6292 24.3562 23.9789 25.0599 23.9917 25.9214C24.0045 27.0857 23.996 28.2543 23.996 29.4186C24.0002 32.5192 24.0088 35.6156 24.013 38.7162C24.0045 38.8697 24.0045 39.0275 24.0045 39.2024Z" fill="#808080"/>
<path d="M139.622 49.2762C139.128 49.5577 138.676 49.8264 138.177 49.997C135.545 50.8841 133.054 50.6794 130.798 48.9564C129.608 48.0479 128.879 46.7983 128.406 45.4037C127.856 43.783 127.698 42.1154 127.86 40.4052C127.966 39.2963 128.141 38.2045 128.568 37.1766C129.681 34.4727 131.694 32.9373 134.607 32.5791C136.023 32.4042 137.379 32.6004 138.676 33.1932C139.025 33.351 139.358 33.5429 139.674 33.7604C139.814 33.8585 139.904 33.8457 140.04 33.7348C141.004 32.9501 142.152 32.8136 143.337 32.8691C143.751 32.8861 144.011 33.0994 144.011 33.7178C143.998 37.8505 144.003 41.9875 144.003 46.1202C144.003 47.1011 144.003 48.0821 144.003 49.063C144.003 49.2762 143.99 49.4852 143.93 49.6942C143.806 50.1378 143.542 50.3937 143.09 50.4064C142.254 50.4235 141.414 50.4235 140.574 50.4064C140.121 50.3979 139.848 50.1463 139.721 49.707C139.691 49.5748 139.665 49.4511 139.622 49.2762ZM139.895 41.4757C139.895 40.644 139.908 39.9744 139.891 39.3091C139.857 37.9998 139.264 37.0402 138.087 36.4431C137.383 36.0891 136.633 35.9526 135.857 36.0166C134.458 36.1317 133.315 36.8354 132.803 38.2898C132.547 39.0191 132.436 39.7697 132.381 40.5417C132.295 41.7401 132.342 42.9258 132.585 44.0986C132.799 45.1222 133.238 46.0264 134.24 46.4955C135.733 47.1907 137.196 47.0883 138.569 46.1671C139.362 45.6383 139.746 44.8578 139.836 43.911C139.925 43.0409 139.87 42.1751 139.895 41.4757Z" fill="#808080"/>
<path d="M110.131 49.3147C109.956 49.3062 109.853 49.417 109.734 49.4853C108.224 50.3425 106.603 50.6539 104.889 50.4278C101.682 50.0099 99.7583 48.0949 98.7987 45.0967C98.3551 43.7148 98.2144 42.2904 98.3082 40.8445C98.4106 39.2452 98.6835 37.68 99.4768 36.2598C100.556 34.3235 102.194 33.1208 104.364 32.6772C106.023 32.336 107.64 32.4725 109.192 33.1933C109.529 33.3511 109.849 33.5345 110.152 33.7434C110.284 33.833 110.382 33.8501 110.523 33.7392C111.154 33.2317 111.913 33.0397 112.694 32.9374C113.018 32.8947 113.338 32.8393 113.67 32.8521C114.259 32.8734 114.494 33.1037 114.494 33.688C114.494 38.8784 114.494 44.0646 114.489 49.255C114.489 49.3531 114.489 49.4554 114.481 49.5535C114.421 50.061 114.131 50.3766 113.623 50.3894C112.77 50.415 111.918 50.415 111.065 50.3894C110.578 50.3724 110.335 50.1208 110.212 49.6388C110.186 49.5322 110.16 49.4213 110.131 49.3147ZM110.382 41.463C110.382 40.6398 110.395 39.9702 110.378 39.3049C110.357 38.4007 110.071 37.6032 109.38 36.9891C108.757 36.4304 108.015 36.1233 107.192 36.038C105.976 35.91 104.872 36.1702 103.998 37.0871C103.482 37.6288 103.238 38.3112 103.076 39.0277C102.761 40.4308 102.799 41.8468 102.931 43.2628C102.983 43.8257 103.11 44.3844 103.324 44.9133C103.635 45.6852 104.147 46.2781 104.927 46.5894C106.292 47.1396 107.631 47.05 108.889 46.2866C109.772 45.7535 110.237 44.9474 110.331 43.9068C110.408 43.041 110.357 42.1752 110.382 41.463Z" fill="#808080"/>
<path d="M145.636 43.9451C145.636 42.4097 145.653 40.8744 145.632 39.339C145.593 36.6521 146.864 34.7158 149.176 33.5302C152.17 31.9948 155.113 32.2507 157.842 34.2467C159.019 35.1082 159.847 36.2554 160.162 37.7141C160.248 38.115 160.295 38.5244 160.312 38.9381C160.371 40.5161 160.363 42.0941 160.363 43.6679C160.363 45.2886 160.359 46.9093 160.35 48.5299C160.35 48.8413 160.329 49.1526 160.303 49.464C160.261 49.9374 160.073 50.1463 159.621 50.27C159.437 50.3212 159.254 50.3255 159.071 50.3255C158.303 50.3297 157.535 50.334 156.768 50.3297C155.957 50.3255 155.688 50.061 155.688 49.2592C155.688 45.9923 155.688 42.7211 155.688 39.4541C155.688 39.2537 155.688 39.0575 155.663 38.8571C155.543 37.8122 154.946 37.1426 153.97 36.827C152.81 36.4516 151.752 36.6521 150.856 37.5136C150.502 37.8548 150.336 38.2898 150.306 38.7718C150.293 38.985 150.298 39.1983 150.298 39.4115C150.298 42.5548 150.293 45.6937 150.298 48.837C150.298 49.11 150.268 49.3744 150.238 49.6431C150.195 49.9757 150.025 50.1847 149.692 50.27C149.526 50.3127 149.355 50.3297 149.184 50.3297C148.374 50.3297 147.564 50.3297 146.753 50.3297C146.638 50.3297 146.523 50.3297 146.412 50.3127C145.96 50.2487 145.772 50.0653 145.67 49.6175C145.627 49.4341 145.636 49.2507 145.636 49.0673C145.636 47.3571 145.636 45.6511 145.636 43.9451Z" fill="#808080"/>
<path d="M118.588 50.4108C118.148 50.4108 117.705 50.4193 117.266 50.4108C116.566 50.3937 116.216 50.044 116.216 49.3488C116.216 45.7236 116.208 42.0984 116.229 38.4732C116.234 37.4411 116.677 36.5497 117.295 35.7394C118.404 34.2808 119.893 33.3809 121.624 32.8648C123.023 32.4469 124.461 32.2933 125.919 32.336C126.555 32.353 126.84 32.6175 126.857 33.2444C126.879 33.9396 126.879 34.639 126.857 35.3342C126.84 35.9569 126.414 36.345 125.706 36.4218C125.339 36.4602 124.968 36.473 124.601 36.5071C123.919 36.5668 123.254 36.7033 122.627 36.9933C121.56 37.4838 121.04 38.3325 120.985 39.4797C120.959 39.9915 120.968 40.5033 120.968 41.0151C120.968 43.7575 120.972 46.5041 120.972 49.2464C120.972 49.3019 120.972 49.3616 120.972 49.417C120.955 50.0483 120.635 50.3809 119.995 50.415C119.752 50.4278 119.513 50.4193 119.27 50.4193C119.04 50.4108 118.814 50.4108 118.588 50.4108Z" fill="#808080"/>
<path d="M37.776 40.0513C38.4285 40.9085 39.2474 41.4459 40.2027 41.7999C40.915 42.0643 41.4822 42.5292 41.8916 43.1732C42.1561 43.5869 42.3394 44.0219 42.3565 44.5252C42.4034 45.8217 43.1455 46.2909 43.99 46.5382C44.152 46.5851 44.3226 46.6107 44.4932 46.6278C45.2268 46.7046 45.9433 46.6363 46.6044 46.2823C47.2143 45.9539 47.5725 45.4421 47.6152 44.7555C47.7133 43.2457 48.5406 42.2946 49.8926 41.7572C50.494 41.5184 51.0484 41.2199 51.5432 40.8062C51.7777 40.6057 51.9526 40.3498 52.1914 40.0982C52.2725 40.2432 52.2469 40.3583 52.2469 40.465C52.2469 41.7572 52.2426 43.0538 52.2469 44.3461C52.2554 46.1928 51.4536 47.6642 50.1059 48.8541C48.8392 49.9715 47.3379 50.5601 45.6533 50.6837C43.2052 50.8629 41.0813 50.1464 39.3711 48.3551C38.2878 47.2206 37.7163 45.8601 37.7248 44.2736C37.7291 43.0069 37.7248 41.7444 37.7291 40.4778C37.7248 40.3541 37.6992 40.2261 37.776 40.0513Z" fill="#808080"/>
<path d="M47.6876 42.5506C47.5938 42.3928 47.6279 42.2777 47.6279 42.171C47.6279 39.885 47.645 37.5948 47.6237 35.3087C47.6109 34.1956 48.1184 33.445 49.078 32.963C49.7348 32.6304 50.4385 32.4726 51.1678 32.4384C51.9014 32.4043 52.2511 32.7327 52.2554 33.4791C52.2639 35.0699 52.2596 36.6607 52.2596 38.2516C52.2596 38.3923 52.2511 38.533 52.1914 38.6695C51.6753 39.8168 50.9332 40.721 49.6623 41.0835C48.8392 41.3095 48.1909 41.8 47.6876 42.5506Z" fill="#5A5959"/>
<path d="M42.3011 42.4909C42.2072 42.4738 42.1816 42.3843 42.1347 42.3203C41.6912 41.736 41.1282 41.3052 40.4245 41.1133C39.1578 40.7636 38.3731 39.9106 37.8399 38.7633C37.7589 38.5927 37.7248 38.4221 37.7248 38.2302C37.7291 36.6565 37.7291 35.0784 37.7291 33.5047C37.7291 33.4322 37.7291 33.3639 37.7333 33.2914C37.7802 32.7796 38.0617 32.4512 38.5735 32.447C39.725 32.4384 40.7998 32.7071 41.6784 33.5047C42.1049 33.8928 42.3394 34.3918 42.3394 34.9761C42.348 37.4327 42.348 39.8893 42.348 42.3459C42.348 42.3971 42.365 42.4568 42.3011 42.4909Z" fill="#5A5959"/>
</g>
</g>
<defs>
<filter id="filter0_ii_1063_28970" x="0" y="0" width="180" height="80" filterUnits="userSpaceOnUse" color-interpolation-filters="sRGB">
<feFlood flood-opacity="0" result="BackgroundImageFix"/>
<feBlend mode="normal" in="SourceGraphic" in2="BackgroundImageFix" result="shape"/>
<feColorMatrix in="SourceAlpha" type="matrix" values="0 0 0 0 0 0 0 0 0 0 0 0 0 0 0 0 0 0 127 0" result="hardAlpha"/>
<feOffset dy="-1"/>
<feComposite in2="hardAlpha" operator="arithmetic" k2="-1" k3="1"/>
<feColorMatrix type="matrix" values="0 0 0 0 0.533333 0 0 0 0 0.521569 0 0 0 0 0.521569 0 0 0 0.5 0"/>
<feBlend mode="normal" in2="shape" result="effect1_innerShadow_1063_28970"/>
<feColorMatrix in="SourceAlpha" type="matrix" values="0 0 0 0 0 0 0 0 0 0 0 0 0 0 0 0 0 0 127 0" result="hardAlpha"/>
<feOffset dx="-1"/>
<feComposite in2="hardAlpha" operator="arithmetic" k2="-1" k3="1"/>
<feColorMatrix type="matrix" values="0 0 0 0 0.533333 0 0 0 0 0.527729 0 0 0 0 0.522222 0 0 0 0.5 0"/>
<feBlend mode="normal" in2="effect1_innerShadow_1063_28970" result="effect2_innerShadow_1063_28970"/>
</filter>
<clipPath id="clip0_1063_28970">
<rect width="140.726" height="34" fill="white" transform="translate(19.6372 23)"/>
</clipPath>
</defs>
</svg>
