<svg width="180" height="80" viewBox="0 0 180 80" fill="none" xmlns="http://www.w3.org/2000/svg">
<g filter="url(#filter0_i_1063_29055)">
<path d="M80.8776 50.1007H80.8969V45.0442H81.7971V51.3249H80.6461L77.8014 46.1616H77.7836V51.3247H76.8848V45.0442H78.1081L80.8776 50.1007Z" fill="#808080"/>
<path d="M83.5676 47.7794C83.9091 47.4939 84.4224 47.3138 84.8984 47.3138C85.745 47.3138 86.0339 47.7186 86.0339 48.5112C85.7009 48.492 85.466 48.492 85.1327 48.492C84.2613 48.492 83.0009 48.8504 83.0009 50.0036C83.0009 51 83.6943 51.4348 84.6839 51.4348C85.4572 51.4348 85.9075 51.011 86.1057 50.7318H86.1226V51.3262H86.9149C86.8963 51.1903 86.8793 50.9483 86.8793 50.4251V48.5284C86.8793 47.2774 86.3493 46.6292 85.0352 46.6292C84.449 46.6292 83.9453 46.8084 83.5224 47.0611L83.5676 47.7794ZM86.0339 49.5452C86.0339 50.2275 85.5921 50.7507 84.7543 50.7507C84.3698 50.7507 83.9006 50.4881 83.9006 50.0034C83.9006 49.1938 85.0349 49.122 85.4943 49.122C85.6732 49.122 85.8524 49.1387 86.0339 49.1387V49.5452ZM90.747 47.4201H89.5329V49.9307C89.5329 50.4618 89.8577 50.7493 90.2444 50.7493C90.5061 50.7493 90.6947 50.6685 90.8199 50.5885V51.3073C90.63 51.3615 90.3696 51.4345 90.0997 51.4345C89.2274 51.4345 88.6875 51.0207 88.6875 50.1009V47.4201H87.6527V46.7372H88.6875V45.6747L89.5327 45.4064V46.7372H90.7467V47.4201H90.747ZM92.818 44.758H91.8629V45.712H92.818V44.758ZM91.9164 51.3248H92.7629V46.7361H91.9164V51.3248ZM94.0032 49.0316C94.0032 50.3437 94.9572 51.4336 96.3431 51.4336C97.7194 51.4336 98.6731 50.3437 98.6731 49.0316C98.6731 47.6361 97.7383 46.6287 96.3431 46.6287C94.9403 46.6287 94.0032 47.6361 94.0032 49.0316ZM94.9035 49.0316C94.9035 48.1587 95.4335 47.3138 96.3434 47.3138C97.2423 47.3138 97.7734 48.1587 97.7734 49.0316C97.7734 49.8502 97.3341 50.7507 96.3434 50.7507C95.345 50.7507 94.9035 49.8502 94.9035 49.0316ZM99.8085 46.7372H100.626V47.4656H100.643C100.897 46.9435 101.509 46.6287 102.147 46.6287C103.334 46.6287 103.866 47.3664 103.866 48.5997V51.3259H103.019V48.951C103.019 47.88 102.787 47.3585 102.048 47.3141C101.085 47.3141 100.654 48.0863 100.654 49.2014V51.3262H99.8085V46.7372ZM105.565 47.7794C105.908 47.4939 106.419 47.3138 106.896 47.3138C107.742 47.3138 108.03 47.7186 108.03 48.5112C107.698 48.492 107.463 48.492 107.131 48.492C106.259 48.492 104.999 48.8504 104.999 50.0036C104.999 51 105.691 51.4348 106.681 51.4348C107.454 51.4348 107.904 51.011 108.102 50.7318H108.119V51.3262H108.912C108.894 51.1903 108.876 50.9483 108.876 50.4251V48.5284C108.876 47.2774 108.346 46.6292 107.031 46.6292C106.449 46.6292 105.943 46.8084 105.521 47.0611L105.565 47.7794ZM108.03 49.5452C108.03 50.2275 107.591 50.7507 106.752 50.7507C106.366 50.7507 105.898 50.4881 105.898 50.0034C105.898 49.1938 107.031 49.122 107.492 49.122C107.67 49.122 107.851 49.1387 108.03 49.1387V49.5452ZM110.415 44.5777H111.26V51.3256H110.415V44.5777ZM120.025 48.726C120.025 50.4881 119.134 51.4345 117.587 51.4345C116.04 51.4345 115.148 50.4881 115.148 48.726V45.0446H116.049V48.609C116.049 49.814 116.425 50.6408 117.587 50.6408C118.747 50.6408 119.125 49.814 119.125 48.609V45.0446H120.025V48.726H120.025ZM121.555 46.7372H122.374V47.4656H122.391C122.644 46.9435 123.256 46.6287 123.894 46.6287C125.081 46.6287 125.614 47.3664 125.614 48.5997V51.3259H124.768V48.951C124.768 47.88 124.532 47.3585 123.795 47.3141C122.833 47.3141 122.401 48.0863 122.401 49.2014V51.3262H121.555V46.7372ZM128.06 45.712H127.106V44.758H128.06V45.712ZM127.159 46.7372H128.005V51.3256H127.159V46.7372ZM128.932 46.7361H129.859L131.1 50.4808H131.12L132.387 46.7361H133.232L131.586 51.3248H130.579L128.932 46.7361ZM137.569 50.2911C137.363 50.4618 136.715 50.7493 136.157 50.7493C135.358 50.7493 134.646 50.1274 134.646 49.219H137.92C137.92 47.7446 137.425 46.6298 135.896 46.6298C134.601 46.6298 133.745 47.5917 133.745 48.9507C133.745 50.4423 134.493 51.4345 136.121 51.4345C136.876 51.4345 137.246 51.2533 137.569 51.1374V50.2911ZM134.646 48.5898C134.708 47.995 135.05 47.3135 135.878 47.3135C136.606 47.3135 137.019 47.889 137.019 48.5898H134.646ZM139.054 46.7372H139.846V47.4478H139.865C140.088 46.9701 140.575 46.6289 141.06 46.6289C141.312 46.6289 141.438 46.6552 141.619 46.6934V47.4481C141.465 47.3845 141.294 47.367 141.151 47.367C140.394 47.367 139.901 48.0866 139.901 49.2399V51.3262H139.054V46.7372H139.054ZM142.213 50.4245C142.544 50.6408 143.022 50.7507 143.265 50.7507C143.652 50.7507 144.129 50.5885 144.129 50.0944C144.129 49.256 142.138 49.3292 142.138 48.0408C142.138 47.0883 142.849 46.6287 143.759 46.6287C144.155 46.6287 144.478 46.7098 144.813 46.8079L144.74 47.5479C144.551 47.4283 144.047 47.3138 143.85 47.3138C143.418 47.3138 143.04 47.4942 143.04 47.8715C143.04 48.8063 145.028 48.5363 145.028 50.0036C145.028 50.9825 144.245 51.4348 143.426 51.4348C142.994 51.4348 142.555 51.3898 142.167 51.1821L142.213 50.4245ZM147.061 45.712H146.107V44.758H147.061V45.712ZM146.161 46.7372H147.007V51.3256H146.161V46.7372ZM150.992 47.4201H149.78V49.9307C149.78 50.4618 150.101 50.7493 150.489 50.7493C150.751 50.7493 150.938 50.6685 151.065 50.5885V51.3073C150.876 51.3615 150.614 51.4345 150.346 51.4345C149.472 51.4345 148.933 51.0207 148.933 50.1009V47.4201H147.898V46.7372H148.933V45.6747L149.78 45.4064V46.7372H150.992V47.4201ZM151.713 52.5677C151.821 52.6036 151.964 52.6395 152.108 52.6395C152.863 52.6395 153.115 51.5959 153.115 51.506C153.115 51.4071 153.008 51.1719 152.953 51.0192L151.396 46.7372H152.324L153.556 50.5359H153.574L154.834 46.7372H155.69L153.998 51.4237C153.684 52.3051 153.349 53.3218 152.234 53.3218C151.963 53.3218 151.811 53.2873 151.659 53.2599L151.713 52.5677ZM76.5056 59.6642C76.5056 60.9774 77.4582 62.066 78.8449 62.066C80.2201 62.066 81.1755 60.9771 81.1755 59.6642C81.1755 58.2695 80.2382 57.2613 78.8449 57.2613C77.4412 57.2613 76.5056 58.2695 76.5056 59.6642ZM77.4053 59.6642C77.4053 58.7916 77.9353 57.9467 78.8449 57.9467C79.7441 57.9467 80.2752 58.7916 80.2752 59.6642C80.2752 60.4819 79.8345 61.383 78.8449 61.383C77.8446 61.383 77.4053 60.4819 77.4053 59.6642ZM82.8562 58.055H81.777V57.3701H82.8562V56.9475C82.8562 55.8324 83.1462 55.1029 84.3964 55.1029C84.6112 55.1029 84.7913 55.1294 84.9612 55.158L84.9275 55.8409C84.8283 55.8036 84.6635 55.7872 84.5216 55.7872C83.7921 55.7872 83.7036 56.2553 83.7036 56.8763V57.3704H84.9191V58.0553H83.7036V61.9566H82.8559V58.055H82.8562ZM90.9915 56.6239C90.533 56.4435 90.2814 56.3624 89.8145 56.3624C89.3094 56.3624 88.7149 56.5425 88.7149 57.1994C88.7149 58.4063 91.4141 58.1242 91.4141 60.1956C91.4141 61.5348 90.3804 62.0674 89.1197 62.0674C88.6804 62.0674 88.2471 61.9396 87.835 61.8062L87.9235 60.9692C88.2293 61.0959 88.7686 61.2748 89.2282 61.2748C89.7415 61.2748 90.4615 60.987 90.4615 60.2476C90.4615 58.8464 87.7626 59.2331 87.7626 57.2816C87.7626 56.1628 88.6437 55.5707 89.7789 55.5707C90.1918 55.5707 90.6859 55.6425 91.117 55.7943L90.9915 56.6239ZM93.5654 56.3449H92.6114V55.392H93.5654V56.3449ZM92.6654 57.3712H93.5128V61.9574H92.6654V57.3712ZM95.0587 57.3701H95.8773V58.0994H95.8951C96.1484 57.5761 96.7592 57.2599 97.3969 57.2599C98.5858 57.2599 99.1172 58.0004 99.1172 59.2331V61.956H98.2697V59.583C98.2697 58.5123 98.0368 57.9917 97.298 57.9464C96.3358 57.9464 95.905 58.7195 95.905 59.8346V61.956H95.0587V57.3701ZM104.614 57.3701H103.831V58.055H103.812C103.56 57.5598 103.113 57.2613 102.302 57.2613C100.915 57.2613 100.25 58.5217 100.25 59.7015C100.25 60.8878 100.897 61.9563 102.21 61.9563C102.797 61.9563 103.391 61.7248 103.75 61.2474H103.767V61.6976C103.767 62.6692 103.237 63.2718 102.345 63.2718C101.725 63.2718 101.339 63.1565 100.691 62.8585L100.6 63.6412C101.339 63.8925 101.761 63.9561 102.247 63.9561C103.894 63.9561 104.614 63.1565 104.614 61.7593V57.3701ZM102.428 61.2748C101.636 61.2748 101.15 60.5189 101.15 59.6551C101.15 58.873 101.574 57.9467 102.428 57.9467C103.328 57.9467 103.767 58.7645 103.767 59.7182C103.767 60.5727 103.219 61.2748 102.428 61.2748ZM106.315 58.4142C106.656 58.1256 107.168 57.9467 107.646 57.9467C108.491 57.9467 108.779 58.3515 108.779 59.1424C108.448 59.124 108.213 59.124 107.88 59.124C107.007 59.124 105.748 59.4852 105.748 60.6351C105.748 61.6352 106.44 62.0674 107.429 62.0674C108.202 62.0674 108.653 61.6437 108.852 61.3633H108.869V61.9574H109.66C109.643 61.8229 109.626 61.5829 109.626 61.0574V59.1605C109.626 57.9111 109.093 57.2613 107.781 57.2613C107.197 57.2613 106.692 57.4416 106.269 57.6949L106.315 58.4142ZM108.779 60.1764C108.779 60.8607 108.339 61.3833 107.501 61.3833C107.115 61.3833 106.648 61.1221 106.648 60.6354C106.648 59.8273 107.78 59.7555 108.24 59.7555C108.419 59.7555 108.599 59.7733 108.778 59.7733V60.1764H108.779ZM111.055 63.8487H111.901V61.3293H111.919C112.18 61.7525 112.639 62.0674 113.449 62.0674C114.835 62.0674 115.419 60.844 115.419 59.5819C115.419 58.3512 114.772 57.2613 113.44 57.2613C112.629 57.2613 112.107 57.6771 111.883 58.0185H111.865V57.3701H111.055V63.8487ZM114.519 59.6464C114.538 60.3674 114.161 61.3833 113.252 61.3833C112.298 61.3833 111.902 60.4384 111.902 59.6732C111.902 58.8201 112.343 57.947 113.26 57.947C114.177 57.947 114.538 58.8201 114.519 59.6464ZM116.246 59.6642C116.246 60.9774 117.202 62.066 118.586 62.066C119.961 62.066 120.916 60.9771 120.916 59.6642C120.916 58.2695 119.98 57.2613 118.586 57.2613C117.181 57.2613 116.246 58.2695 116.246 59.6642ZM117.147 59.6642C117.147 58.7916 117.676 57.9467 118.586 57.9467C119.485 57.9467 120.016 58.7916 120.016 59.6642C120.016 60.4819 119.575 61.383 118.586 61.383C117.587 61.383 117.147 60.4819 117.147 59.6642ZM122.051 57.3701H122.841V58.0816H122.859C123.085 57.6044 123.57 57.2601 124.056 57.2601C124.307 57.2601 124.433 57.2892 124.614 57.3257V58.0816C124.461 58.0185 124.291 58.0007 124.147 58.0007C123.391 58.0007 122.896 58.7201 122.896 59.8719V61.9563H122.051V57.3701ZM129.066 60.9234C128.861 61.0944 128.212 61.383 127.655 61.383C126.853 61.383 126.143 60.7612 126.143 59.8538H129.417C129.417 58.3772 128.924 57.2613 127.395 57.2613C126.099 57.2613 125.244 58.2246 125.244 59.5833C125.244 61.0752 125.99 62.066 127.62 62.066C128.375 62.066 128.744 61.887 129.066 61.7703V60.9234ZM126.143 59.2238C126.206 58.6302 126.547 57.9464 127.376 57.9464C128.105 57.9464 128.518 58.5214 128.518 59.2238H126.143ZM135.038 32.5255C136.761 34.1155 140.157 35.5636 144.303 35.6283C147.939 35.6902 150.871 34.5969 151.051 31.5826C151.437 25.0599 134.709 27.6691 135.358 16.6583C135.68 11.1478 141.151 9.32267 147.052 9.42414C150.242 9.47785 153.432 10.2334 155.181 11.1204L155.188 15.0333C153.054 13.5711 150.079 12.64 147.617 12.5933C143.872 12.5252 140.9 13.2141 140.852 15.9514C140.751 21.66 157.627 20.2908 156.982 31.2126C156.62 37.3613 150.644 39.2475 144.388 39.133C140.79 39.0841 137.266 38.3532 135.047 37.2171L135.038 32.5255ZM119.214 39.1641C111.444 39.1641 106.97 35.6747 106.97 28.4956V10.2704H112.795L112.797 28.4953C112.797 32.9588 114.94 35.6662 119.214 35.6662C123.487 35.6662 125.632 32.9586 125.632 28.4953L125.633 10.2704H131.456V28.4953C131.456 35.6747 126.982 39.1641 119.214 39.1641ZM97.5071 10.2704V30.7993L84.1561 11.7233C83.8319 11.2736 83.4055 10.9073 82.9119 10.6548C82.4183 10.4022 81.8718 10.2706 81.3174 10.2707H76.898V38.263H80.7812V17.722L94.1095 36.7409C94.7432 37.6493 95.7928 38.263 96.9949 38.263H101.389V10.2704H97.5071ZM70.1927 39.2407V10.2741H23.0037V39.2631C23.0014 39.2868 23 39.3623 23 39.4852C23 40.8542 23.2959 48.0957 29.1191 57.2683C35.4807 67.3054 45.9773 70.4079 46.4202 70.5359L46.5791 70.5797L46.7365 70.5359C47.1817 70.4081 57.7106 67.3065 64.0759 57.2683C70.423 47.2683 70.2037 39.563 70.1927 39.2407Z" fill="#808080"/>
<path d="M45.0979 13.7564C45.0179 13.7409 43.0972 13.4031 40.8043 13.4031C38.9862 13.4031 37.3459 13.95 36.6249 14.2279C35.9038 13.9497 34.2635 13.4031 32.4468 13.4031C30.1536 13.4031 28.2315 13.7409 28.1518 13.7564L27.8926 13.803V26.0171L28.2733 25.9349C28.2889 25.9312 29.8788 25.5898 32.2187 25.5898C33.9772 25.5898 35.8 26.0805 36.5174 26.3382L36.6249 26.3778L36.7323 26.3382C37.4497 26.0802 39.2725 25.5898 41.0332 25.5898C43.3706 25.5898 44.9605 25.9312 44.9761 25.9349L45.3571 26.0171V13.803L45.0979 13.7564Z" fill="#5A5959"/>
<path d="M36.3234 14.7935C35.5964 14.5213 34.0971 14.0461 32.4594 14.0461C30.6854 14.0461 29.1194 14.2587 28.5332 14.348V23.5829C29.1466 23.4777 30.4683 23.2943 32.2327 23.2943C33.8133 23.2943 35.3951 23.6561 36.3236 23.9424V14.7935H36.3234ZM40.818 14.0461C39.1587 14.0461 37.6403 14.5343 36.924 14.8042V23.9532C37.8492 23.6631 39.4476 23.2954 41.0461 23.2954C42.8105 23.2954 44.1308 23.4772 44.7444 23.582V14.3483C44.1568 14.2576 42.592 14.0461 40.818 14.0461Z" fill="#808080"/>
<path d="M30.2746 15.586C30.0479 15.6468 29.9224 15.8546 29.9917 16.0516C30.0624 16.2475 30.3023 16.356 30.529 16.2964C30.5409 16.2927 31.7131 16.0861 32.7123 16.0861C33.6197 16.0861 34.6367 16.4982 34.6474 16.5016C34.8693 16.5745 35.1152 16.4767 35.1989 16.2842C35.2823 16.092 35.1692 15.8783 34.9479 15.8042C34.8978 15.7876 33.7782 15.3435 32.712 15.3435C31.5808 15.3438 30.3272 15.573 30.2746 15.586ZM30.2746 17.4197C30.0479 17.4816 29.9224 17.6893 29.9917 17.8863C30.0624 18.0808 30.3023 18.1919 30.529 18.1297C30.5409 18.1274 31.7131 17.9208 32.7123 17.9208C33.6197 17.9208 34.6367 18.3327 34.6474 18.3363C34.8693 18.4078 35.1152 18.31 35.1989 18.1178C35.2823 17.9259 35.1692 17.7119 34.9479 17.6404C34.8978 17.6235 33.7782 17.1771 32.712 17.1771C31.5808 17.1774 30.3272 17.4067 30.2746 17.4197ZM30.2746 19.2555C30.0479 19.3166 29.9224 19.5255 29.9917 19.7202C30.0624 19.9158 30.3023 20.0269 30.529 19.9647C30.5409 19.9625 31.7131 19.7544 32.7123 19.7544C33.6197 19.7544 34.6367 20.1666 34.6474 20.17C34.8693 20.2429 35.1152 20.1451 35.1989 19.9526C35.2823 19.7592 35.1692 19.5467 34.9479 19.4752C34.8978 19.4596 33.7782 19.0119 32.712 19.0119C31.5808 19.0122 30.3272 19.2403 30.2746 19.2555ZM30.2746 21.0895C30.0479 21.1514 29.9224 21.3602 29.9917 21.555C30.0624 21.7506 30.3023 21.8608 30.529 21.7998C30.5409 21.7975 31.7131 21.5884 32.7123 21.5884C33.6197 21.5884 34.6367 22.0025 34.6474 22.005C34.8693 22.0779 35.1152 21.9813 35.1989 21.7876C35.2823 21.5954 35.1692 21.3806 34.9479 21.3102C34.8978 21.2933 33.7782 20.8455 32.712 20.8455C31.5808 20.8455 30.3272 21.0762 30.2746 21.0895ZM43.0396 15.586C43.2666 15.6468 43.3918 15.8546 43.3226 16.0516C43.2519 16.2475 43.0122 16.356 42.7855 16.2964C42.7745 16.2927 41.6012 16.0861 40.602 16.0861C39.6958 16.0861 38.6787 16.4982 38.668 16.5016C38.4461 16.5745 38.1991 16.4767 38.1165 16.2842C38.0331 16.092 38.1451 15.8783 38.3672 15.8042C38.4147 15.7876 39.5372 15.3435 40.602 15.3435C41.7346 15.3438 42.9868 15.573 43.0396 15.586ZM43.0396 17.4197C43.2666 17.4816 43.3918 17.6893 43.3226 17.8863C43.2519 18.0808 43.0122 18.1919 42.7855 18.1297C42.7745 18.1274 41.6012 17.9208 40.602 17.9208C39.6958 17.9208 38.6787 18.3327 38.668 18.3363C38.4461 18.4078 38.1991 18.31 38.1165 18.1178C38.0331 17.9259 38.1451 17.7119 38.3672 17.6404C38.4147 17.6235 39.5372 17.1771 40.602 17.1771C41.7346 17.1774 42.9868 17.4067 43.0396 17.4197ZM43.0396 19.2555C43.2666 19.3166 43.3918 19.5255 43.3226 19.7202C43.2519 19.9158 43.0122 20.0269 42.7855 19.9647C42.7745 19.9625 41.6012 19.7544 40.602 19.7544C39.6958 19.7544 38.6787 20.1666 38.668 20.17C38.4461 20.2429 38.1991 20.1451 38.1165 19.9526C38.0331 19.7592 38.1451 19.5467 38.3672 19.4752C38.4147 19.4596 39.5372 19.0119 40.602 19.0119C41.7346 19.0122 42.9868 19.2403 43.0396 19.2555ZM43.0396 21.0895C43.2666 21.1514 43.3918 21.3602 43.3226 21.555C43.2519 21.7506 43.0122 21.8608 42.7855 21.7998C42.7745 21.7975 41.6012 21.5884 40.602 21.5884C39.6958 21.5884 38.6787 22.0025 38.668 22.005C38.4461 22.0779 38.1991 21.9813 38.1165 21.7876C38.0331 21.5954 38.1451 21.3806 38.3672 21.3102C38.4147 21.2933 39.5372 20.8455 40.602 20.8455C41.7346 20.8455 42.9868 21.0762 43.0396 21.0895Z" fill="#808080"/>
<path d="M63.1358 56.601C57.4187 65.6187 47.9297 68.9058 46.6094 69.3273C45.2962 68.905 35.8383 65.6187 30.1234 56.601C24.3925 47.5728 24.1836 40.3335 24.1836 39.3465C24.1836 39.2761 24.1847 39.2368 24.1847 39.2317V28.9773H69.0709V39.2105C69.0709 39.2176 69.0745 39.2571 69.0745 39.3309C69.0748 40.3443 68.8631 47.5773 63.1358 56.601Z" fill="#808080"/>
<path d="M66.9549 37.285C66.7231 36.4409 66.2971 36.0661 65.7301 35.7657C64.165 34.9358 62.1213 35.5183 60.3293 36.1272C58.977 36.5891 58.5686 36.7278 57.036 36.9627C55.8779 37.1405 52.0066 37.642 50.7818 36.6295C50.6074 36.4839 50.431 36.1662 50.4132 35.9624C50.3782 35.5409 50.5692 35.037 50.7162 34.8773C51.0257 34.5381 51.7465 34.3747 52.921 34.3747L55.9186 34.4216C56.106 34.6627 56.5857 35.0505 57.8034 35.3109C59.7396 35.725 61.8692 35.0517 61.8692 35.0517C61.8692 35.0517 61.517 34.9824 61.2247 34.7628C60.9658 34.5694 60.9884 34.278 60.9884 34.278C60.9884 34.278 61.4144 34.4835 62.0365 34.4657C62.8099 34.4428 63.1709 34.0751 63.8928 33.8916C64.615 33.7076 65.4206 33.8594 65.4206 33.8594C65.4206 33.8594 64.6902 33.0784 63.9654 32.9399C63.2446 32.8028 62.3432 32.9877 62.3432 32.9877C62.3432 32.9877 62.5691 32.8862 62.8376 32.6439C63.0538 32.4495 63.0965 32.1176 63.0965 32.1176C63.0965 32.1176 62.231 32.452 61.3536 32.4065C60.4763 32.361 60.5407 32.0433 58.8371 31.9969C57.5453 31.9633 56.478 32.731 56.0365 33.1047C54.6557 33.0142 53.5683 32.9651 52.9306 32.9651C51.1758 32.9651 50.1622 33.2528 49.5415 33.9258C49.0245 34.4883 48.7992 35.2176 48.8744 36.0927C48.9315 36.7719 49.2348 37.3438 49.7764 37.7904C51.4141 39.1463 55.8087 38.7311 57.3641 38.4552C59.1059 38.1477 59.6263 38.0125 60.6348 37.6793C60.6348 37.6784 60.6922 37.6603 60.6922 37.6603C61.4729 37.3975 63.8473 36.6052 64.8431 37.1337C65.046 37.2397 65.1845 37.4404 65.2691 37.7463C65.3072 37.8845 65.325 38.0075 65.325 38.1222C65.325 38.3288 65.2628 38.5004 65.134 38.657C64.2269 39.7662 60.816 39.9558 59.3346 40.0347C59.1723 39.9951 58.1827 39.773 56.8672 39.7662C55.9865 39.7611 55.2498 39.8176 54.4703 39.8758C53.0476 39.9833 51.5755 40.0943 49.1308 39.8148C47.9965 39.6848 46.9342 39.4784 46.1331 39.2418C46.095 38.9374 45.9542 38.6485 45.6498 38.3071C46.236 38.4967 46.9984 37.8523 47.2123 37.5312C47.2101 37.4987 46.1713 37.2242 46.1091 36.5498C46.108 36.5283 46.8446 36.6108 47.1513 35.5995C46.4158 35.2009 46.6462 35.0539 46.2928 34.5573C45.9814 34.1203 45.5302 33.8995 44.9739 33.9137C45.1995 33.884 45.2199 33.9137 45.4647 33.791C45.7846 33.6296 46.0065 33.1903 46.3242 33.2081C45.6831 32.2055 43.9629 32.0741 43.2491 32.2852C43.4332 32.0574 43.7147 31.8042 43.7184 31.4915C42.7672 31.7541 41.8358 31.2603 40.8762 31.4392C40.0811 31.5885 39.6277 31.9116 39.3792 32.6674H39.3436C39.0929 31.9119 38.6406 31.5885 37.8444 31.4392C36.887 31.2603 35.9536 31.7541 35.0033 31.4915C35.0081 31.8042 35.2885 32.0574 35.4711 32.2852C34.7585 32.0741 33.0383 32.2055 32.3972 33.2081C32.716 33.1903 32.9368 33.6296 33.2556 33.791C33.5383 33.9318 33.5945 33.9029 33.7461 33.9137C33.1923 33.8995 32.7398 34.1203 32.428 34.5573C32.0721 35.0539 32.305 35.2009 31.5684 35.5995C31.8765 36.6108 32.6143 36.5283 32.6129 36.5498C32.5495 37.2242 31.511 37.4987 31.5074 37.5312C31.7225 37.852 32.484 38.4967 33.0725 38.3071C32.5903 38.8464 32.5103 39.2585 32.6199 39.8018C31.8714 39.2336 31.1337 38.607 30.7411 38.0877C30.6492 37.9537 30.3555 36.9882 30.1611 36.3494L30.0022 35.8287L29.9248 35.5517C29.6907 34.691 29.464 33.9702 29.0725 33.8747C28.8832 33.8282 28.688 33.8104 28.4934 33.8218C28.3585 33.6107 28.17 33.3885 27.9504 33.3192C27.4967 33.1819 27.2771 33.2811 27.2771 33.2811C27.2771 33.2811 27.6448 33.5451 27.7689 33.8159C27.8 33.8851 27.8192 33.9521 27.8322 34.0117C27.755 34.0542 27.6819 34.1037 27.6137 34.1596L27.5804 34.1859C27.5337 34.2229 27.4704 34.2755 27.4026 34.3365C27.3715 34.3269 27.3404 34.3196 27.3082 34.3162C26.8378 34.254 26.6371 34.3902 26.6371 34.3902C26.6371 34.3902 26.8926 34.5155 27.0826 34.6901C26.9189 34.918 26.7827 35.2102 26.7827 35.572C26.7827 35.6068 26.7864 35.6436 26.7897 35.682C26.3409 35.7151 26.1738 35.879 26.1738 35.879C26.1738 35.879 26.6105 35.9969 26.8231 36.2049C26.846 36.2287 26.8675 36.2527 26.8853 36.2753C26.8649 36.299 26.8494 36.3157 26.8494 36.3157C26.7613 36.4571 26.7157 36.6209 26.7182 36.7875C26.7182 37.1801 26.9379 37.603 27.2412 37.8811L28.1245 38.6115C28.4433 39.3244 28.7964 39.951 29.0281 40.2148C29.1011 40.3041 29.594 41.154 30.117 42.0532C30.1862 42.1725 30.2569 42.2954 30.3295 42.4198C30.4417 42.971 30.5695 43.6576 30.6255 44.1972C30.7292 45.1678 30.6303 46.2516 30.6303 46.2516C30.6303 46.2516 31.2595 46.2205 31.5447 45.8109C31.5506 45.8004 31.7762 46.4831 31.744 47.2519C31.7177 47.8203 31.5662 48.6093 31.5662 48.6093C31.5662 48.6093 32.1798 48.2836 32.6406 47.8752C32.8732 47.6708 33.1072 47.3319 33.2505 47.11C33.7568 47.4322 35.2083 46.9161 35.9316 46.6267C36.0726 46.913 36.2671 47.2318 36.5342 47.592C36.6405 47.1578 37.1038 46.9401 37.3186 46.593C37.3831 46.5919 37.4498 46.5919 37.5156 46.5919C37.5419 47.067 37.4045 47.5137 37.8534 48.4026C37.9812 48.6548 38.6056 49.5858 39.059 50.0619C38.8885 50.8677 38.5615 52.3359 38.2245 53.538C37.8379 54.9132 37.525 55.5961 37.3472 55.9138C36.829 55.939 35.8835 55.9709 35.5828 55.9576C34.8631 55.9231 34.3292 56.0749 33.9988 56.4065C33.9739 56.4305 33.9544 56.4557 33.9332 56.4808C33.6822 56.5153 33.3947 56.5942 33.2384 56.7697C32.9244 57.1253 32.9232 57.3667 32.9232 57.3667C32.9232 57.3667 33.3147 57.1403 33.6121 57.1403C33.6347 57.1403 33.655 57.1431 33.6754 57.1445V57.2056C33.6802 57.2757 33.7195 57.3879 33.7865 57.5253C33.7385 57.5588 33.6955 57.5989 33.6587 57.6445C33.3701 58.0191 33.3854 58.2622 33.3854 58.2622C33.3854 58.2622 33.7531 58.0145 34.0491 57.9908C34.1412 58.1386 34.2447 58.2907 34.3549 58.4385C34.3416 58.4529 34.3272 58.4682 34.3179 58.484C34.0578 58.8812 34.0923 59.1214 34.0923 59.1214C34.0923 59.1214 34.3835 58.8919 34.6593 58.817C34.7537 58.9244 34.8456 59.0214 34.9338 59.0974C35.3671 59.4796 36.4426 59.2323 37.8059 58.8693L38.65 58.6604C39.2469 58.5496 39.6169 58.3111 39.8903 57.8636C39.9559 57.7582 40.0144 57.5852 40.1062 57.3079L40.1851 57.0716C40.3736 56.5419 40.5206 56.2052 40.8943 55.6043C40.9073 55.5865 41.2728 54.9983 41.7694 54.1884C42.2098 53.8224 42.7409 53.3975 43.1265 53.1347C43.7161 52.7384 44.8897 52.1388 44.8897 52.1388C44.8897 52.1388 44.5771 51.6309 44.1101 51.56C44.1005 51.5591 44.7049 50.9452 45.2111 50.7272C45.7804 50.4785 46.517 50.344 46.517 50.344C46.517 50.344 46.2485 49.795 45.8341 49.5282C46.0071 49.4714 46.1648 49.371 46.3604 49.2418C47.3511 48.5951 48.0818 48.6189 48.7718 48.8122C48.7981 48.3656 48.6859 48.0908 48.2989 47.8319C48.6248 47.6948 48.9615 47.5753 49.3185 47.4905C49.544 47.8783 49.7996 48.3071 49.9152 48.4719C50.4262 49.1963 51.1951 50.1933 51.8172 50.8166C51.8325 50.8318 51.8398 50.8604 51.8398 50.9014C51.8398 51.1614 51.5221 51.8822 51.3398 52.294L51.1843 52.6502C51.1843 52.6516 50.5591 54.1223 50.3765 54.5508C50.0124 54.572 48.9558 54.6297 48.5858 54.6104C47.884 54.5782 47.3647 54.7252 47.0425 55.0463C47.0032 55.0849 46.9672 55.1268 46.9351 55.1715C46.6736 55.2179 46.3607 55.3134 46.2055 55.5116C45.9118 55.8855 45.9237 56.1249 45.9237 56.1249C45.9237 56.1249 46.301 55.8782 46.5981 55.8604C46.645 55.8575 46.688 55.859 46.7298 55.8624C46.7417 55.9398 46.7847 56.0534 46.8517 56.186C46.7824 56.2366 46.7214 56.292 46.6787 56.359C46.4184 56.7556 46.452 56.9941 46.452 56.9941C46.452 56.9941 46.8064 56.7151 47.1024 56.6719C47.1131 56.6705 47.1225 56.6705 47.1346 56.6691C47.2053 56.7779 47.2827 56.8893 47.3613 56.9967C47.3334 57.0246 47.3079 57.0547 47.285 57.0868C47.0247 57.4846 47.058 57.7254 47.058 57.7254C47.058 57.7254 47.3983 57.4563 47.6884 57.4057C47.7788 57.5097 47.8673 57.6013 47.9495 57.6742C48.3639 58.0397 49.2495 57.8215 50.4553 57.4747L51.3149 57.2505C51.8961 57.1417 52.2579 56.9105 52.5255 56.4735L52.7508 55.9864C52.8571 55.7405 52.9789 55.4607 53.0708 55.3154C53.2104 55.0961 53.3574 54.8306 53.5067 54.5443C53.6778 54.3964 53.8522 54.2522 54.0296 54.1118C54.4143 53.8176 55.3906 53.2791 55.3906 53.2791C55.3906 53.2791 55.1958 52.8514 54.797 52.811C54.7922 52.8096 55.1854 52.3726 55.6569 52.1007C55.991 51.9059 56.6547 51.7917 56.6547 51.7917C56.6547 51.7917 56.1962 51.4036 55.8488 51.2519C55.7092 51.1922 55.5263 51.1507 55.3536 51.1207C55.331 50.9223 55.2272 50.7004 55.0359 50.4059C54.6936 49.8753 55.1947 48.7367 55.554 48.092C55.7355 48.3472 56.0602 48.7723 56.6021 49.3739C56.6021 49.3739 58.3416 51.2759 58.7249 51.6968C58.5313 52.4752 58.2965 53.2429 58.0216 53.9965C57.7435 54.7577 57.3458 55.5517 57.1431 55.9435C56.7242 55.9661 55.7742 56.0153 55.4265 55.9992C54.7258 55.9647 54.2065 56.1117 53.8829 56.4342C53.8326 56.4846 53.7878 56.5401 53.7492 56.5998C53.5129 56.6569 53.2562 56.7553 53.1239 56.9308C52.837 57.3101 52.854 57.5515 52.854 57.5515C52.854 57.5515 53.1392 57.2836 53.5236 57.2745C53.5426 57.2745 53.5581 57.2757 53.5751 57.2757C53.5929 57.3565 53.6381 57.4667 53.7048 57.5954C53.6377 57.641 53.5795 57.6986 53.5332 57.7652C53.274 58.1624 53.3074 58.4026 53.3074 58.4026C53.3074 58.4026 53.6618 58.1208 53.9569 58.079C53.9677 58.0767 53.9781 58.0767 53.9878 58.0756C54.0799 58.2141 54.1786 58.356 54.28 58.49C54.2786 58.4926 54.2766 58.4948 54.2741 58.4965C54.0138 58.8916 54.0488 59.133 54.0488 59.133C54.0488 59.133 54.31 58.9256 54.5717 58.8408C54.6469 58.9256 54.7224 59.0016 54.7902 59.0615C55.2057 59.4281 56.095 59.2105 57.3042 58.862L58.1553 58.6378C58.7382 58.5301 59.0994 58.2975 59.3657 57.8605C59.4841 57.6657 60.013 56.4342 60.1585 56.078C60.4216 55.4356 60.702 54.8003 60.9992 54.1729C61.1425 54.0508 61.2759 53.9431 61.3833 53.8673C61.8599 53.5369 62.878 52.9566 62.878 52.9566C62.878 52.9566 62.6751 52.521 62.2836 52.4885C62.2785 52.4874 62.6836 52.1007 63.0869 51.8429C63.4606 51.6026 64.141 51.4695 64.141 51.4695C64.141 51.4695 63.6503 51.0955 63.304 50.9463C63.1002 50.8578 62.811 50.8016 62.6058 50.7699C62.5448 50.4808 62.3995 50.3841 62.1799 50.2733C61.9854 50.1735 61.7191 50.0392 61.3118 49.5604C60.7903 48.9456 60.71 47.7709 60.71 46.5987C60.71 46.3409 60.7151 46.0828 60.7174 45.831L60.7196 44.7063C60.686 43.3837 60.4929 42.4611 60.3092 41.8517C62.034 41.6956 65.1939 41.346 66.489 39.7631C66.8771 39.2879 67.0739 38.7316 67.0739 38.1253C67.0715 37.8412 67.0314 37.5586 66.9549 37.285Z" fill="#5A5959"/>
<path d="M54.5854 51.6688C54.8135 51.4551 54.9291 51.3392 54.9291 51.1888C54.9291 51.0602 54.8443 50.9036 54.6739 50.639C54.5436 50.4395 54.4921 50.1992 54.4921 49.9442C54.4921 49.0954 55.0569 48.0733 55.2802 47.7033C55.2169 47.6233 55.125 47.5077 55.0139 47.3548C54.9543 47.3152 54.9028 47.2796 54.8717 47.2581C54.7276 47.1555 54.3561 46.8437 54.1244 46.5396C54.0921 46.4966 54.0599 46.4426 54.0251 46.3852C53.5466 46.3711 52.4318 46.3389 51.2822 46.6885C51.6367 46.8915 51.7189 47.1552 51.7345 47.4944C50.9778 47.3296 50.3401 47.32 49.766 47.4037C49.9667 47.7451 50.1719 48.0877 50.2674 48.224C50.7686 48.934 51.5196 49.9069 52.1214 50.5124C52.2192 50.6099 52.2625 50.7394 52.2625 50.8977C52.2625 51.2716 52.027 51.8047 51.7347 52.4687L51.581 52.8209L50.6688 54.9654L50.5351 54.9731C50.4741 54.9779 49.0359 55.0652 48.5653 55.0415C48.0522 55.0163 47.659 55.1045 47.4182 55.2922C47.4468 55.3897 47.4671 55.5189 47.4301 55.6407C47.3823 55.8018 47.2822 55.8815 47.2008 55.9234C47.2116 55.9471 47.2235 55.9712 47.239 55.9991C47.5208 55.9042 47.7905 55.877 47.7905 55.877C47.7905 55.877 47.9457 56.0825 47.8826 56.3392C47.8323 56.5348 47.7382 56.6377 47.6712 56.6885C47.6904 56.7171 47.7096 56.7434 47.73 56.7708C48.0485 56.6408 48.3971 56.6077 48.3971 56.6077C48.3971 56.6077 48.561 56.8556 48.5073 57.1255C48.4773 57.2717 48.4044 57.3537 48.3366 57.4026C48.7221 57.5255 49.7165 57.2403 50.3361 57.0611L51.235 56.8271C51.6969 56.7408 51.9546 56.5783 52.1553 56.2501L52.3555 55.8171C52.4677 55.5559 52.5954 55.258 52.7079 55.0844C52.9835 54.6489 53.2976 54.012 53.5995 53.3947C53.9935 52.5936 54.3349 51.9 54.5854 51.6688ZM37.4219 46.1345C37.4241 46.1441 37.4219 46.1523 37.4241 46.1608H37.4312C37.4278 46.1523 37.4241 46.1441 37.4219 46.1345Z" fill="#6D6D6C"/>
<path d="M35.5678 43.6597C35.2886 44.0786 34.7834 44.2747 34.1294 44.3547C34.2534 43.7026 34.1404 43.256 33.9001 42.7393C33.6901 42.2834 33.1146 41.389 32.9439 40.8819C32.8961 40.7386 32.8509 40.6061 32.8079 40.4797C31.8983 39.8183 30.8991 39.0136 30.3968 38.3476C30.2787 38.1902 30.0994 37.6291 29.7472 36.4747L29.5898 35.9554L29.5084 35.6654C29.2769 34.8157 29.094 34.3547 28.9665 34.2937C28.8858 34.2741 28.8035 34.2613 28.7206 34.2555V34.2569C28.7206 34.2569 28.6799 34.5173 28.2432 34.4966C28.1533 34.4922 28.0659 34.4656 27.9888 34.4192C27.9528 34.4416 27.9185 34.4667 27.8862 34.4944L27.8492 34.5218L27.7847 34.5755C28.0414 34.8084 28.2251 35.1091 28.2251 35.1091C28.2251 35.1091 28.1273 35.3754 27.7943 35.4351C27.5532 35.4769 27.367 35.3062 27.367 35.3062C27.367 35.3062 27.3692 35.2225 27.3359 35.1032C27.2252 35.3149 27.1915 35.5585 27.2403 35.7923C27.5781 35.9667 27.8707 36.283 27.8707 36.283C27.8707 36.283 27.8636 36.5338 27.5151 36.709C27.3839 36.7768 27.2488 36.7376 27.1617 36.6957C27.1188 36.9524 27.2643 37.3167 27.5317 37.5624L28.4736 38.3419L28.4951 38.3886C28.7947 39.0644 29.1457 39.697 29.351 39.9311C29.4284 40.017 29.7091 40.4955 30.4884 41.8376C31.5221 43.6173 33.0849 46.3071 33.4871 46.7531C33.6423 46.899 34.7082 46.6494 35.76 46.2302C35.3852 45.19 35.7111 44.5537 35.5678 43.6597ZM66.5411 37.3962C66.35 36.6952 66.0255 36.4066 65.53 36.144C64.1175 35.3943 62.1779 35.9515 60.4709 36.5332C59.018 37.0284 58.6169 37.1539 57.1047 37.3854C55.5636 37.6231 51.8364 38.055 50.5113 36.958C50.2453 36.7398 50.015 36.3184 49.985 35.9973C49.9432 35.4684 50.1665 34.8395 50.4005 34.584C50.8064 34.1388 51.5846 33.9409 52.9241 33.9409C52.9241 33.9409 54.933 33.9731 56.0433 33.9895L56.2785 33.7798L56.0492 33.5347C54.6611 33.4429 53.5677 33.3928 52.9337 33.3928C51.3115 33.3928 50.392 33.639 49.8623 34.2165C49.429 34.6857 49.2438 35.3042 49.306 36.0538C49.3538 36.6138 49.6059 37.0852 50.0534 37.4552C51.4466 38.6085 55.5325 38.3397 57.2921 38.0271C59.0061 37.7263 59.5161 37.5937 60.5023 37.2676L60.5594 37.2475C61.4704 36.9431 63.8888 36.1338 65.0492 36.7494C65.3607 36.9154 65.5707 37.2031 65.6866 37.6308C65.8296 38.15 65.7595 38.5737 65.4706 38.9271C64.4392 40.1886 61.1204 40.3667 59.3369 40.463L59.2987 40.4647L59.2687 40.4574C59.2569 40.4548 58.222 40.2021 56.867 40.1937C56.0054 40.1886 55.277 40.2451 54.5059 40.3022C53.0626 40.4124 51.569 40.5244 49.0836 40.2414C47.9806 40.1134 46.9385 39.9133 46.1244 39.6801C46.0729 40.0133 45.9404 40.3915 45.7747 40.8822C45.604 41.3885 45.0311 42.2825 44.8196 42.7385C44.5799 43.2555 44.4666 43.7015 44.5881 44.355C43.9352 44.2736 43.4301 44.0783 43.1508 43.6588C42.9552 44.8861 43.6486 45.6228 42.1909 47.5898C42.0439 46.9951 41.2276 46.808 41.2991 46.1347C41.0435 46.8345 41.4557 47.2401 40.8694 48.4016C40.7224 48.693 39.9047 49.8986 39.4621 50.2499C39.2831 51.0855 38.9668 52.4926 38.6432 53.6518C38.1994 55.2327 37.8376 55.9473 37.6598 56.2339L37.6013 56.3308L37.4891 56.3368C37.0199 56.3608 35.9158 56.4012 35.5661 56.386C35.0814 56.3622 34.7006 56.4371 34.4485 56.5982C34.4725 56.7189 34.4855 56.8905 34.4103 57.0154C34.3244 57.1652 34.2014 57.2311 34.1381 57.2574C34.1477 57.284 34.1619 57.3122 34.1788 57.3456C34.4929 57.2563 34.8103 57.2489 34.8103 57.2489C34.8103 57.2489 34.9403 57.5129 34.8055 57.8318C34.7506 57.9618 34.6755 58.0262 34.6181 58.0587C34.6489 58.1031 34.68 58.145 34.7114 58.1874C35.0443 58.0407 35.4347 58.0022 35.4347 58.0022C35.4347 58.0022 35.5853 58.1987 35.4873 58.6046C35.4565 58.7303 35.3883 58.7942 35.3298 58.8265C35.7691 58.9624 37.0032 58.6348 37.6971 58.4499L38.5734 58.2343C39.0497 58.1455 39.3182 57.9785 39.5259 57.6362C39.5678 57.568 39.6382 57.3566 39.6989 57.1709C39.6989 57.1709 39.7823 56.9284 39.7823 56.9264C39.9768 56.3766 40.1382 56.0032 40.5319 55.374C41.4297 53.9384 44.0822 49.599 44.1893 49.2501C44.1944 49.2323 44.1944 49.2109 44.1944 49.1857C44.1944 48.9553 44.0822 48.448 43.9914 48.1254L43.934 47.9202L53.0242 45.2618L52.4953 44.3485L52.8082 44.0659C52.8354 44.0859 53.4959 44.5662 53.8586 44.9288C54.1786 45.2474 54.4867 45.7403 54.8112 46.261L54.9774 46.5261C55.3451 47.1096 55.7069 47.5409 55.7114 47.5446L55.7247 47.5612L55.734 47.5782C55.7366 47.583 56.0241 48.0828 56.9229 49.0845L59.1995 51.5734L59.1746 51.685C59.1709 51.6955 58.901 52.8561 58.4287 54.1436C58.118 54.9938 57.6547 55.8995 57.471 56.2497L57.4136 56.3585L57.2932 56.3645C56.8548 56.3905 55.7985 56.4456 55.4093 56.4292C54.9268 56.4052 54.5537 56.4801 54.3086 56.6426C54.3419 56.756 54.3733 56.9315 54.3063 57.0677C54.2323 57.2201 54.1226 57.3038 54.0607 57.3436C54.07 57.3628 54.0819 57.3829 54.0938 57.4055C54.377 57.31 54.65 57.2826 54.65 57.2826C54.65 57.2826 54.7874 57.5081 54.7433 57.7928C54.7111 57.9836 54.6122 58.0692 54.539 58.1088C54.5655 58.1467 54.5941 58.1854 54.6215 58.2221C54.9641 58.057 55.39 58.0146 55.39 58.0146C55.39 58.0146 55.5334 58.2122 55.4845 58.5192C55.463 58.6614 55.3663 58.7555 55.29 58.8132C55.7318 58.8655 56.6162 58.6102 57.1869 58.4449L58.0787 58.2136C58.5392 58.128 58.7973 57.9657 59.0002 57.6348C59.0873 57.4929 59.5768 56.3648 59.7617 55.9145C60.3013 54.5916 61.095 52.9191 61.6109 52.0253L61.8975 51.5736C62.066 51.3215 62.2127 51.105 62.1994 50.9569C62.1816 50.7545 62.1697 50.7488 61.9874 50.6558C61.7723 50.547 61.4475 50.3828 60.9845 49.8381C60.2431 48.9652 60.2668 47.2953 60.2886 45.8246L60.2908 44.716C60.2527 43.2608 60.0178 42.289 59.8253 41.7302L59.7371 41.4713L60.0119 41.4473C61.6018 41.3051 64.9121 41.0103 66.1572 39.4893C66.6259 38.9121 66.7581 38.1899 66.5411 37.3962Z" fill="#6D6D6C"/>
<path d="M57.9556 20.261C58.1446 20.505 58.2991 20.7737 58.415 21.0598C58.2649 21.0813 58.1119 21.0943 57.9556 21.0943C57.7993 21.0943 57.6467 21.0824 57.496 21.062C57.613 20.7758 57.7676 20.5064 57.9556 20.261Z" fill="#808080"/>
<path d="M56.0473 20.1618C55.7042 19.8995 55.4176 19.5707 55.2046 19.1951C55.2106 19.1951 55.2165 19.194 55.2224 19.194C55.6583 19.194 56.0761 19.2847 56.4605 19.4461C56.3037 19.6731 56.1655 19.9125 56.0473 20.1618ZM53.3159 19.8407C53.79 20.8453 54.5783 21.6682 55.5616 22.1851C55.5602 22.2411 55.5557 22.297 55.5557 22.3536C55.5557 23.4313 55.8898 24.4303 56.4591 25.2576C56.0699 25.4238 55.6498 25.512 55.2224 25.512C53.4807 25.512 52.0628 24.0962 52.0628 22.3536C52.0626 21.3281 52.5567 20.4173 53.3159 19.8407ZM60.6911 19.1937L60.7078 19.1948C60.4957 19.5701 60.2089 19.898 59.8652 20.1581C59.7496 19.9107 59.6147 19.6728 59.4615 19.4467C59.8503 19.2809 60.2684 19.1949 60.6911 19.1937ZM55.2222 17.2179C55.0885 17.2179 54.955 17.2286 54.8222 17.2382C55.0226 15.672 56.3395 14.4879 57.9569 14.4879C59.5624 14.4879 60.8898 15.6935 61.0868 17.2467L60.6905 17.2179C59.7173 17.2179 58.7795 17.4923 57.9614 18.0059C57.1413 17.4893 56.1914 17.216 55.2222 17.2179ZM60.353 22.1865C61.3338 21.6651 62.1201 20.8411 62.5951 19.837C63.3852 20.4337 63.8507 21.3495 63.8507 22.3536C63.8507 24.0962 62.4326 25.512 60.6908 25.512C60.2516 25.512 59.8338 25.4238 59.4542 25.2613C60.0457 24.4073 60.361 23.3924 60.3576 22.3536L60.353 22.1865ZM57.5598 22.7535L57.9572 22.7832C58.0909 22.7832 58.2223 22.7736 58.3535 22.7631C58.3013 23.1752 58.1665 23.5726 57.9572 23.9314C57.7474 23.5692 57.6122 23.1687 57.5598 22.7535ZM63.0844 17.8123C63.0867 17.7578 63.0926 17.7026 63.0926 17.6475C63.0926 14.815 60.7886 12.511 57.9572 12.511C55.1258 12.511 52.8204 14.815 52.8204 17.6475L52.8263 17.8134C51.1982 18.6764 50.0879 20.3871 50.0879 22.3536C50.0879 25.185 52.3905 27.489 55.2222 27.489C56.1999 27.489 57.1406 27.2131 57.9595 26.6964C58.7763 27.2143 59.7236 27.4892 60.6908 27.489C63.5211 27.489 65.8262 25.185 65.8262 22.3536C65.8265 20.4555 64.7544 18.6968 63.0844 17.8123Z" fill="#5A5959"/>
<path d="M58.9332 22.7111C59.2193 22.6543 59.5001 22.5733 59.7724 22.4688C59.7577 23.3807 59.4663 24.2665 58.9369 25.0091C58.7056 24.8552 58.496 24.6708 58.3139 24.461C58.6647 23.9393 58.8778 23.3373 58.9332 22.7111ZM57.9569 13.1169C60.4712 13.1169 62.5171 15.1628 62.5171 17.6768C62.5171 20.192 60.4709 22.2382 57.9569 22.2382L57.5391 22.2073C57.5533 21.9278 57.6036 21.6556 57.6898 21.3944L57.9569 21.4122C60.015 21.4122 61.6909 19.736 61.6909 17.6768C61.6909 15.6188 60.015 13.9429 57.9569 13.9429C57.023 13.9379 56.1217 14.2855 55.433 14.9162C54.7443 15.5469 54.319 16.4143 54.2422 17.345C53.9551 17.402 53.6735 17.4835 53.4004 17.5887C53.4482 15.1151 55.4715 13.1169 57.9569 13.1169Z" fill="#808080"/>
<path d="M60.689 17.822L61.1059 17.8531C61.0914 18.1297 61.0399 18.4031 60.953 18.6661L60.689 18.6491C60.1378 18.6491 59.5934 18.7783 59.099 19.0123C58.9075 18.7903 58.6971 18.5854 58.4701 18.3998C59.148 18.0201 59.9121 17.8212 60.689 17.822ZM55.2215 26.9449C52.7063 26.9449 50.6602 24.8976 50.6602 22.3836C50.6602 19.8693 52.7063 17.822 55.2215 17.822C57.0302 17.822 58.6332 18.8653 59.3724 20.4971C59.1264 20.6204 58.8653 20.7156 58.5891 20.7719C58.2869 20.1351 57.8099 19.5973 57.2136 19.2214C56.6173 18.8456 55.9263 18.6471 55.2215 18.6491C53.1623 18.6491 51.4861 20.3253 51.4861 22.3833C51.4861 24.4414 53.1623 26.1173 55.2215 26.1173C55.7766 26.1173 56.3224 25.987 56.8199 25.7496C57.0114 25.9708 57.221 26.1757 57.4466 26.3621C56.7677 26.7454 56.0011 26.9462 55.2215 26.9449Z" fill="#808080"/>
<path d="M54.5885 19.288C54.8695 19.8691 55.2944 20.3688 55.8229 20.7394C55.7296 21.0162 55.6606 21.3002 55.6162 21.5914C54.8202 21.1155 54.1888 20.4075 53.8066 19.5624C54.0526 19.4395 54.3129 19.3439 54.5885 19.288ZM60.6897 26.9447C58.1746 26.9447 56.1287 24.8974 56.1287 22.3834C56.1287 21.4246 56.421 20.5212 56.9702 19.7484C57.2017 19.9025 57.4116 20.0868 57.5943 20.2965C57.1764 20.9122 56.9535 21.6393 56.9544 22.3834C56.9544 24.4415 58.6303 26.1174 60.6895 26.1174C62.7475 26.1174 64.4234 24.4415 64.4234 22.3834C64.4234 21.1453 63.8228 20.022 62.8165 19.3225C62.91 19.0436 62.9796 18.7572 63.0245 18.4666C64.3864 19.2832 65.2496 20.779 65.2496 22.3834C65.2499 24.8971 63.204 26.9447 60.6897 26.9447Z" fill="#808080"/>
<path d="M42.7418 35.9684C43.0117 35.7807 43.6562 35.2459 43.3125 34.5967C42.9473 33.9104 42.1069 34.1896 41.8576 34.2922C41.8228 34.2566 39.964 33.4482 39.9389 33.4623C39.9567 33.4505 39.2133 34.3222 39.2133 34.3222C39.2133 34.3222 38.4744 33.4505 38.4897 33.4623C38.4634 33.4482 36.606 34.2566 36.5713 34.2922C36.3217 34.1896 35.4824 33.9104 35.1172 34.5967C34.771 35.2457 35.4169 35.7805 35.6868 35.9684C35.6831 35.9792 35.6809 35.984 35.6809 35.984C35.6809 35.984 35.0746 37.0581 35.0816 37.0448C35.0912 37.027 36.8327 39.154 36.8327 39.154C36.8353 39.1492 36.8293 40.5235 36.8293 40.5295C36.8293 40.5295 37.5216 40.9947 37.5741 41.0091C37.6852 41.5309 37.7189 41.8003 37.8404 42.0835C37.88 42.174 38.5434 42.3679 39.1893 42.3783H39.2407C39.884 42.3679 40.5503 42.174 40.5873 42.0835C40.7103 41.8003 40.7439 41.5309 40.8536 41.0091C40.9084 40.9947 41.5961 40.5295 41.5961 40.5295C41.5973 40.5306 41.5961 39.1574 41.5973 39.154C41.5961 39.154 43.339 37.0267 43.3475 37.0448C43.3557 37.0581 42.7494 35.984 42.7494 35.984L42.7418 35.9684Z" fill="#6D6D6C"/>
<path d="M36.7207 36.0748L38.337 36.0559L38.2785 36.9618L36.7207 36.0748ZM40.3532 36.9833L40.6014 39.1522C40.6014 39.1522 39.4625 39.7695 39.4066 39.7995C39.4051 39.8603 39.3992 40.5228 39.3992 40.574C39.4518 40.6135 39.6573 40.7676 39.8698 40.8572C40.254 41.0192 40.6384 40.925 40.6432 40.9236L40.7387 40.8988L40.6573 41.1865L40.6226 41.1924C40.6048 41.1961 40.1714 41.2738 39.8181 41.1676C39.5123 41.0746 39.3526 40.9575 39.3096 40.9239H39.1247C39.0829 40.955 38.9147 41.0746 38.6044 41.1676C38.2536 41.2738 37.8188 41.1961 37.8022 41.1924L37.7666 41.1865L37.6851 40.8988L37.7807 40.9236C37.7855 40.925 38.1696 41.0192 38.5555 40.8572C38.768 40.7676 38.9735 40.6135 39.0247 40.574L39.0224 39.7907C38.9758 39.7599 37.831 38.9456 37.831 38.9456C37.831 38.9456 39.8532 38.9433 39.962 38.9419V36.1045L41.6452 36.0915L41.8578 36.0901C41.8575 36.0904 40.414 36.946 40.3532 36.9833Z" fill="#5A5959"/>
</g>
<defs>
<filter id="filter0_i_1063_29055" x="0" y="0" width="180" height="80" filterUnits="userSpaceOnUse" color-interpolation-filters="sRGB">
<feFlood flood-opacity="0" result="BackgroundImageFix"/>
<feBlend mode="normal" in="SourceGraphic" in2="BackgroundImageFix" result="shape"/>
<feColorMatrix in="SourceAlpha" type="matrix" values="0 0 0 0 0 0 0 0 0 0 0 0 0 0 0 0 0 0 127 0" result="hardAlpha"/>
<feOffset dx="-1"/>
<feComposite in2="hardAlpha" operator="arithmetic" k2="-1" k3="1"/>
<feColorMatrix type="matrix" values="0 0 0 0 0.533333 0 0 0 0 0.521569 0 0 0 0 0.521569 0 0 0 0.5 0"/>
<feBlend mode="normal" in2="shape" result="effect1_innerShadow_1063_29055"/>
</filter>
</defs>
</svg>
