<svg width="180" height="80" viewBox="0 0 180 80" fill="none" xmlns="http://www.w3.org/2000/svg">
<g filter="url(#filter0_ii_13448_11088)">
<g clip-path="url(#clip0_13448_11088)">
<path d="M43.7835 73.9998H30.183V46.8008H43.7835V73.9998Z" fill="#808080"/>
<path d="M43.7815 33.199H30.182V5.99902H43.7815V33.199Z" fill="#808080"/>
<path d="M30.183 33.1992V46.7987H57.383V73.9998H70.9825V33.1992H30.183Z" fill="#5A5959"/>
<path d="M84.8165 33.2158H87.0563V40.4102H87.1102C87.8475 38.7749 89.7691 38.0905 91.4043 38.0905C94.987 38.0905 96.0954 40.1448 96.0954 43.07V52.0303H93.8546V42.8076C93.8546 41.1465 92.801 40.067 91.088 40.067C88.3743 40.067 87.0563 41.8847 87.0563 44.3351V52.0303H84.8165V33.2158Z" fill="#808080"/>
<path d="M107.609 44.9948C106.739 45.6264 105.053 45.6523 103.552 45.9167C102.076 46.1801 100.811 46.7069 100.811 48.368C100.811 49.8416 102.076 50.3684 103.445 50.3684C106.398 50.3684 107.609 48.5247 107.609 47.2865V44.9948ZM111.247 51.9777C110.85 52.2121 110.349 52.3458 109.638 52.3458C108.478 52.3458 107.74 51.7123 107.74 50.2377C106.502 51.6884 104.843 52.3458 102.945 52.3458C100.468 52.3458 98.44 51.2384 98.44 48.5247C98.44 45.4418 100.73 44.7833 103.051 44.3354C105.529 43.8615 107.636 44.0201 107.636 42.333C107.636 40.3825 106.028 40.0672 104.606 40.0672C102.707 40.0672 101.311 40.6469 101.206 42.6503H98.9658C99.1004 39.2761 101.708 38.0908 104.736 38.0908C107.188 38.0908 109.849 38.6445 109.849 41.8322V48.8419C109.849 49.8955 109.849 50.3684 110.561 50.3684C110.743 50.3684 110.954 50.3425 111.247 50.2377V51.9777Z" fill="#808080"/>
<path d="M118.779 52.0307H116.381L111.322 38.4072H113.825L117.647 49.7629H117.699L121.415 38.4072H123.759L118.779 52.0307Z" fill="#808080"/>
<path d="M133.563 44.9948C132.693 45.6264 131.007 45.6523 129.504 45.9167C128.029 46.1801 126.765 46.7069 126.765 48.368C126.765 49.8416 128.029 50.3684 129.397 50.3684C132.349 50.3684 133.563 48.5247 133.563 47.2865V44.9948ZM137.2 51.9777C136.802 52.2121 136.301 52.3458 135.592 52.3458C134.431 52.3458 133.693 51.7123 133.693 50.2377C132.454 51.6884 130.795 52.3458 128.896 52.3458C126.421 52.3458 124.392 51.2384 124.392 48.5247C124.392 45.4418 126.685 44.7833 129.003 44.3354C131.481 43.8615 133.589 44.0201 133.589 42.333C133.589 40.3825 131.981 40.0672 130.558 40.0672C128.661 40.0672 127.266 40.6469 127.159 42.6503H124.919C125.052 39.2761 127.66 38.0908 130.69 38.0908C133.14 38.0908 135.8 38.6445 135.8 41.8322V48.8419C135.8 49.8955 135.8 50.3684 136.513 50.3684C136.697 50.3684 136.909 50.3425 137.2 50.2377V51.9777Z" fill="#808080"/>
<path d="M140.49 47.7345C140.57 49.7379 142.309 50.3684 144.155 50.3684C145.55 50.3684 147.447 50.0531 147.447 48.3411C147.447 46.6031 145.234 46.3108 142.994 45.812C140.782 45.3111 138.541 44.5718 138.541 41.9649C138.541 39.2232 141.256 38.0908 143.626 38.0908C146.631 38.0908 149.028 39.0396 149.212 42.3589H146.973C146.815 40.62 145.287 40.0662 143.811 40.0662C142.467 40.0662 140.913 40.4354 140.913 41.8062C140.913 43.4125 143.283 43.6759 145.366 44.1767C147.605 44.6776 149.818 45.4159 149.818 48.0498C149.818 51.2923 146.787 52.3458 144.021 52.3458C140.966 52.3458 138.383 51.1067 138.251 47.7345H140.49Z" fill="#808080"/>
</g>
</g>
<defs>
<filter id="filter0_ii_13448_11088" x="0" y="0" width="180" height="80" filterUnits="userSpaceOnUse" color-interpolation-filters="sRGB">
<feFlood flood-opacity="0" result="BackgroundImageFix"/>
<feBlend mode="normal" in="SourceGraphic" in2="BackgroundImageFix" result="shape"/>
<feColorMatrix in="SourceAlpha" type="matrix" values="0 0 0 0 0 0 0 0 0 0 0 0 0 0 0 0 0 0 127 0" result="hardAlpha"/>
<feOffset dy="-1"/>
<feComposite in2="hardAlpha" operator="arithmetic" k2="-1" k3="1"/>
<feColorMatrix type="matrix" values="0 0 0 0 0.533333 0 0 0 0 0.521569 0 0 0 0 0.521569 0 0 0 0.5 0"/>
<feBlend mode="normal" in2="shape" result="effect1_innerShadow_13448_11088"/>
<feColorMatrix in="SourceAlpha" type="matrix" values="0 0 0 0 0 0 0 0 0 0 0 0 0 0 0 0 0 0 127 0" result="hardAlpha"/>
<feOffset dx="-1"/>
<feComposite in2="hardAlpha" operator="arithmetic" k2="-1" k3="1"/>
<feColorMatrix type="matrix" values="0 0 0 0 0.533333 0 0 0 0 0.527729 0 0 0 0 0.522222 0 0 0 0.5 0"/>
<feBlend mode="normal" in2="effect1_innerShadow_13448_11088" result="effect2_innerShadow_13448_11088"/>
</filter>
<clipPath id="clip0_13448_11088">
<rect width="119.636" height="68" fill="white" transform="translate(30.182 6)"/>
</clipPath>
</defs>
</svg>
