<svg width="180" height="80" viewBox="0 0 180 80" fill="none" xmlns="http://www.w3.org/2000/svg">
<g filter="url(#filter0_i_13448_11102)">
<g clip-path="url(#clip0_13448_11102)">
<path fill-rule="evenodd" clip-rule="evenodd" d="M95.4322 46.8387C93.7333 48.5649 91.7008 49.4325 89.3473 49.4325C87.4426 49.4325 85.8239 49.0437 84.1731 48.0826V44.1238C85.5022 45.0261 87.1717 45.8855 88.8198 45.8855C92.2557 45.8855 94.2988 43.518 94.2988 40.1641C94.2988 36.8063 92.1838 34.3685 88.7455 34.3685C87.2104 34.3685 85.9661 34.9211 84.9942 36.0286C83.9523 37.2284 83.4138 38.9433 83.4138 41.2107V56.8351H83.1549C81.2611 56.8351 79.7271 55.2984 79.7271 53.403V40.6237C79.7271 35.1994 83.038 30.8223 88.7274 30.8223C91.5373 30.8223 93.8196 31.7845 95.5508 33.717C97.1777 35.5229 97.984 37.8127 97.984 40.5639C97.984 43.0143 97.1332 45.109 95.4332 46.8363L95.4322 46.8387ZM135.333 46.7063C133.641 48.5251 131.463 49.4326 128.823 49.4326C126.035 49.4326 123.766 48.4704 122.034 46.5379C120.408 44.7097 119.601 42.4188 119.601 39.691C119.601 34.8606 123.325 30.8236 128.227 30.8236C130.116 30.8236 131.757 31.223 133.416 32.1336V36.1315C132.087 35.2292 130.418 34.3698 128.77 34.3698C125.334 34.3698 123.287 36.7369 123.287 40.0951C123.287 43.4056 125.451 45.8907 128.84 45.8907C130.374 45.8907 131.637 45.3151 132.647 44.1559C133.651 43.0038 134.173 41.3113 134.173 39.0364V26.601C134.173 24.7048 135.708 23.1689 137.601 23.1689H137.86V39.6218C137.86 42.5192 137.022 44.8899 135.332 46.711L135.333 46.7063ZM145.744 29.0693C145.357 29.5031 144.803 29.7028 144.126 29.7028C142.861 29.7028 141.955 28.7684 141.955 27.5108C141.955 26.2239 142.843 25.3551 144.126 25.3551C145.36 25.3551 146.297 26.2712 146.297 27.5108C146.297 28.124 146.118 28.6496 145.744 29.0693V29.0693ZM164.476 39.0348C164.476 37.5795 163.926 36.4278 162.821 35.5547C161.826 34.7692 160.584 34.3698 159.071 34.3698C155.734 34.3698 153.592 36.9815 153.592 40.2006C153.592 43.3001 155.863 45.8868 159.036 45.8868C161.243 45.8868 162.423 44.596 163.683 42.9878V47.6228C163.041 48.1038 162.304 48.6283 161.551 48.9363C160.756 49.2684 159.807 49.4298 158.712 49.4298C153.405 49.4298 149.907 45.0294 149.907 39.945C149.907 37.3337 150.717 35.1733 152.348 33.4928C154.078 31.7088 156.35 30.824 159.128 30.824C164.396 30.824 168.168 33.8532 168.168 39.3279V49.0707H167.91C166.015 49.0707 164.48 47.534 164.48 45.6383L164.476 39.0348ZM114.023 37.9894C113.557 36.5466 112.973 35.8369 111.629 35.0857C108.435 33.2982 105.291 34.82 103.829 37.9754L114.023 37.9894ZM111.21 49.3775C108.855 49.8785 106.544 49.4922 104.289 48.2305C102.089 47.001 100.617 45.1724 99.8803 42.7553C98.3878 37.8702 101.445 32.4224 106.364 31.1054C108.801 30.452 111.139 30.7477 113.359 31.9898C117.047 34.054 118.393 37.2461 118.154 41.3613L103.3 41.3316C103.519 43.0093 104.557 44.322 106.018 45.1384C107.498 45.9665 108.859 46.1646 110.121 45.7723C111.524 45.3314 112.661 44.1856 113.586 43.1191L116.613 45.3271C115.379 47.5391 113.698 48.8483 111.209 49.3798L111.21 49.3775ZM142.298 31.1894H145.985V49.0687H145.725C143.833 49.0687 142.298 47.5321 142.298 45.6363L142.298 31.1894ZM17.2408 49.0687C13.6348 49.0687 11.8438 46.6129 11.8438 43.1832V30.1733C11.8438 28.2775 13.3788 26.7413 15.2723 26.7413H15.5312V31.1926H21.7606V34.7379H15.5312V43.5975C15.5312 45.1036 16.2026 45.5269 17.6399 45.5269H21.759V49.0719L17.2408 49.0687ZM38.653 46.8091C36.8318 48.5576 34.6433 49.4334 32.0992 49.4334C29.5796 49.4334 27.4017 48.5564 25.5805 46.8091C23.7531 45.0544 22.8422 42.8229 22.8422 40.1303C22.8422 34.8778 26.8479 30.8252 32.0964 30.8252C34.6167 30.8252 36.7978 31.7088 38.6307 33.469C40.4698 35.2346 41.3882 37.463 41.3882 40.1283C41.3882 42.8198 40.4761 45.0524 38.6487 46.8071L38.653 46.8091ZM55.8913 35.4914C55.3505 36.3996 54.9311 37.0507 54.6361 37.4443C54.3109 37.8722 53.9897 38.2137 53.6716 38.4502C56.2337 39.2787 57.188 41.0561 57.188 43.7026V49.0683H56.9292C55.0361 49.0683 53.5006 47.5317 53.5006 45.6359V44.0684C53.5006 42.3539 52.7327 41.1909 50.9186 41.1909H47.5706V49.0695H47.3117C45.4186 49.0695 43.8847 47.5329 43.8847 45.6371V26.601C43.8847 24.7048 45.4183 23.1689 47.3117 23.1689H47.5706V37.6131H48.6601C49.8576 37.6131 50.6442 37.2031 51.096 36.4274L54.1928 31.1945L58.3939 31.1903L55.8913 35.4914ZM74.9235 46.8091C73.1016 48.5576 70.9139 49.4334 68.3697 49.4334C65.8506 49.4334 63.6723 48.5564 61.8511 46.8091C60.0237 45.0544 59.1127 42.8229 59.1127 40.1303C59.1127 34.8778 63.1185 30.8252 68.367 30.8252C70.8881 30.8252 73.0684 31.7088 74.9013 33.469C76.7404 35.2346 77.6584 37.463 77.6584 40.1283C77.6584 42.8198 76.7466 45.0524 74.9192 46.8071L74.9235 46.8091ZM72.2625 35.9682C71.2461 34.904 69.956 34.3698 68.3693 34.3698C64.9768 34.3698 62.945 36.8463 62.945 40.1303C62.945 43.3673 65.0241 45.8907 68.3693 45.8907C71.715 45.8907 73.7937 43.3689 73.7937 40.1303C73.7937 38.4115 73.2779 37.0323 72.2629 35.9682H72.2625ZM35.9959 35.9682C34.9798 34.904 33.6893 34.3698 32.1031 34.3698C28.7105 34.3698 26.6787 36.8463 26.6787 40.1303C26.6787 43.3673 28.7578 45.8907 32.1031 45.8907C35.4484 45.8907 37.5274 43.3689 37.5274 40.1303C37.5274 38.4115 37.012 37.0323 35.9967 35.9682H35.9959Z" fill="#808080"/>
</g>
</g>
<defs>
<filter id="filter0_i_13448_11102" x="0" y="0" width="180" height="80" filterUnits="userSpaceOnUse" color-interpolation-filters="sRGB">
<feFlood flood-opacity="0" result="BackgroundImageFix"/>
<feBlend mode="normal" in="SourceGraphic" in2="BackgroundImageFix" result="shape"/>
<feColorMatrix in="SourceAlpha" type="matrix" values="0 0 0 0 0 0 0 0 0 0 0 0 0 0 0 0 0 0 127 0" result="hardAlpha"/>
<feOffset dy="-1"/>
<feComposite in2="hardAlpha" operator="arithmetic" k2="-1" k3="1"/>
<feColorMatrix type="matrix" values="0 0 0 0 0.533333 0 0 0 0 0.521569 0 0 0 0 0.521569 0 0 0 0.5 0"/>
<feBlend mode="normal" in2="shape" result="effect1_innerShadow_13448_11102"/>
</filter>
<clipPath id="clip0_13448_11102">
<rect width="156.322" height="34" fill="white" transform="translate(11.8391 23)"/>
</clipPath>
</defs>
</svg>
