<svg width="180" height="80" viewBox="0 0 180 80" fill="none" xmlns="http://www.w3.org/2000/svg">
<g filter="url(#filter0_i_1063_29040)">
<g clip-path="url(#clip0_1063_29040)">
<path d="M56.4942 32.8635C54.3564 33.1051 52.4334 31.5697 52.1901 29.4353C51.9485 27.2992 53.4839 25.3728 55.62 25.1312C57.7544 24.8912 59.6825 26.4249 59.9208 28.5594C60.1657 30.6955 58.6287 32.6235 56.4942 32.8635Z" fill="#808080"/>
<path d="M71.3162 22.525C68.7254 21.681 67.3108 18.8938 68.1515 16.3046C68.9989 13.7137 71.7844 12.2975 74.377 13.1432C76.9645 13.9873 78.3841 16.7728 77.5383 19.3653C76.6926 21.9562 73.9088 23.3707 71.3162 22.525Z" fill="#808080"/>
<path d="M88.4874 17.6088C86.1265 15.3015 86.0828 11.5159 88.3901 9.15489C90.6974 6.79559 94.483 6.75197 96.8457 9.06092C99.205 11.3682 99.2469 15.1538 96.9396 17.5131C94.6307 19.8741 90.845 19.9177 88.4874 17.6088Z" fill="#808080"/>
<path d="M105.217 18.6207C103.818 15.0046 105.613 10.9387 109.231 9.54095C112.844 8.1398 116.911 9.93695 118.311 13.5531C119.71 17.1676 117.915 21.2351 114.299 22.6329C110.679 24.0323 106.618 22.2352 105.217 18.6207Z" fill="#808080"/>
<path d="M121.753 25.6082C121.753 20.9568 125.525 17.1846 130.18 17.1846C134.831 17.1846 138.602 20.9568 138.602 25.6082C138.602 30.258 134.831 34.0336 130.18 34.0336C125.525 34.0336 121.753 30.258 121.753 25.6082Z" fill="#808080"/>
<path d="M95.5603 40.6411C88.9002 40.6411 84.0675 45.4755 84.0675 52.1339C84.0675 57.3844 87.0544 62.6853 93.7228 62.6853C95.4747 62.6853 97.0353 62.3178 98.4247 61.556V62.5175C98.4247 65.0697 97.8458 67.4307 93.6373 67.4307C92.6607 67.4307 91.7377 67.2797 90.9004 67.0431C89.8466 66.731 88.8566 66.2209 87.8749 65.7275L87.7642 65.6772C87.5209 65.5748 87.2574 65.5866 87.0141 65.6856C86.8295 65.7577 86.697 65.8786 86.5829 66.0363C86.4453 66.2209 85.0592 68.3654 84.9636 68.5567L84.8394 68.9259L84.8243 69.0735C84.8243 69.3722 84.9536 69.639 85.1566 69.8286C85.5946 70.2364 86.1399 70.5502 86.6635 70.8354C86.8178 70.9193 86.9756 70.9949 87.1316 71.0721C88.7492 71.8708 91.1253 72.6427 94.28 72.6427C97.6528 72.6427 100.321 71.6879 102.204 69.8035C104.529 67.4777 104.529 65.1352 104.529 62.1752V42.9383L104.346 42.8511C101.512 41.4264 98.3911 40.6411 95.5603 40.6411L95.5603 40.6411ZM98.4247 56.6847C98.0958 56.8978 96.6779 57.6479 95.0485 57.6479C92.6607 57.6479 90.2577 55.849 90.2577 51.8335C90.2577 48.2073 92.4039 45.6752 95.473 45.6752C96.8389 45.6752 98.0287 46.0947 98.4247 46.2491V56.6847Z" fill="#808080"/>
<path d="M59.1136 42.2001L59.0952 42.0642C59.0163 41.596 58.6086 41.2402 58.1203 41.2402H53.9168C53.3681 41.2402 52.9235 41.6866 52.9235 42.2353V61.6903C52.9235 62.239 53.3681 62.6854 53.9168 62.6854H58.1203C58.6119 62.6854 59.018 62.3246 59.0969 61.8547L59.1137 61.7054V42.2001" fill="#808080"/>
<path d="M149.7 35.869C149.668 35.3471 149.24 34.936 148.715 34.936H144.508C143.968 34.936 143.537 35.3673 143.523 35.9076V61.7659C143.563 62.2794 143.988 62.6838 144.508 62.6838H148.715C149.247 62.6838 149.678 62.2609 149.7 61.7324V35.869Z" fill="#808080"/>
<path d="M131.534 40.6411C125.567 40.6411 121.237 45.4554 121.237 52.0886C121.237 58.8896 125.429 63.2827 131.918 63.2827C135.583 63.2827 138.335 61.9453 139.358 61.3647C139.565 61.2556 140.135 60.7472 139.642 59.784L138.62 57.7804C138.341 57.2451 137.959 57.131 137.689 57.131C137.554 57.131 137.419 57.1579 137.214 57.2418L137.088 57.3022C135.472 58.0238 133.947 58.3745 132.43 58.3745C130.784 58.3745 129.416 57.8509 128.476 56.8576C127.642 55.9766 127.273 54.854 127.255 54.0536H141.187C141.187 54.0536 141.187 52.6239 141.187 52.0483C141.187 44.905 137.58 40.6411 131.534 40.6411V40.6411ZM127.255 49.4893C127.758 46.9186 129.431 45.3345 131.661 45.3345C134.975 45.3345 135.378 48.4439 135.42 49.4893H127.255Z" fill="#808080"/>
<path d="M119.68 58.4835C119.439 57.8257 118.959 57.7267 118.688 57.7267L118.282 57.7938C117.677 57.9549 117.121 58.0321 116.532 58.0321C114.279 58.0321 114.091 56.4346 114.091 54.6526V46.4454H119.524C120.073 46.4454 120.518 46.0007 120.518 45.452V42.2319C120.518 41.7117 120.116 41.2922 119.608 41.2485L119.539 41.2401H119.526L119.525 41.2389L114.091 41.2401V35.9292C114.091 35.3805 113.648 34.9375 113.099 34.9375H108.896C108.738 34.9375 108.587 34.9778 108.453 35.0449C108.034 35.2211 107.903 35.6003 107.903 35.899V54.4411C107.903 57.3693 107.903 59.4836 109.759 61.3412C111.448 63.0326 113.977 63.2826 115.336 63.2826C117.419 63.2826 118.947 62.7843 119.914 62.3245C120.176 62.1986 120.862 61.7204 120.479 60.6666L119.681 58.4835" fill="#808080"/>
<path d="M39.1955 43.5696C38.8331 43.4018 38.4455 43.1937 38.1082 42.9286C37.8716 42.7625 37.6702 42.551 37.5192 42.3043L37.3917 42.061L37.3312 41.9083C37.2557 41.6935 37.2138 41.4636 37.2138 41.222C37.2138 40.826 37.3279 40.4568 37.5192 40.1397C37.9034 39.4584 38.6216 38.9517 39.365 38.7318C41.5783 38.0103 43.9779 38.6849 45.9277 39.8091L46.2952 40.0021C46.5167 40.1347 46.7466 40.2169 46.9463 40.2169C47.2735 40.2169 47.5655 40.0743 47.7719 39.8494L47.7665 39.8561C48.483 38.9936 49.6173 37.2501 49.6375 37.2199C49.8455 36.8827 49.8657 36.4246 49.6643 36.0772L49.4647 35.8104L49.1777 35.5805C46.1371 33.4696 42.229 32.7514 38.6062 33.342C36.4936 33.7011 34.4413 34.6543 32.9898 36.2501C30.6473 38.7654 30.164 42.8749 31.9914 45.8148C33.2684 47.8821 35.4431 49.1742 37.6212 50.1172C39.2271 50.874 40.9906 51.3606 42.4824 52.349C43.2895 52.8406 43.8299 53.725 43.8299 54.7418C43.8299 55.8443 43.1671 56.7857 42.2995 57.2455C41.8297 57.4938 41.3699 57.6901 40.8497 57.7942C40.3312 57.8982 39.7976 57.9284 39.2707 57.9116C38.9737 57.9015 38.6767 57.8781 38.3796 57.8428C36.6446 57.6885 35.1142 56.8847 33.5906 56.1229L33.4714 56.0676C33.2097 55.9618 32.9227 55.9702 32.6643 56.0743C32.4629 56.1566 32.322 56.2875 32.1928 56.4569C32.0451 56.6549 30.5534 58.9706 30.4477 59.1787L30.3118 59.573L30.3 59.7341C30.3 60.058 30.4376 60.3466 30.6574 60.5513C32.171 61.8266 34.1074 62.5381 36.012 63.0079C39.1717 63.6808 42.6234 63.6255 45.5431 62.1454C50.4379 59.8986 52.0606 52.6193 48.3488 48.6508C45.8787 46.0616 42.3431 45.0481 39.1952 43.5697" fill="#808080"/>
<path d="M81.7368 56.824V50.7546C81.7435 48.0999 81.7485 45.0929 79.4093 42.7537C78.0283 41.3744 76.0885 40.6411 73.7913 40.6411C71.2692 40.6411 69.7221 41.8829 68.9183 42.6229V42.2369C68.9099 42.1278 68.9049 42.0842 68.8797 41.9818V41.9807L68.8729 41.9588L68.8645 41.9403L68.846 41.8799L68.8359 41.8447L68.5775 41.494L68.5255 41.452L68.5154 41.4436L68.5087 41.4406L68.5075 41.4394C68.3414 41.3186 68.1451 41.2431 67.9236 41.2431H63.7184C63.1697 41.2431 62.7267 41.6878 62.7267 42.2382V61.6932C62.7267 62.2419 63.1697 62.6865 63.7184 62.6865H67.9236C68.4169 62.6865 68.8196 62.3274 68.9002 61.8576L68.9187 61.7066L68.9157 57.7867H68.9187V47.2001C69.4573 46.8259 71.0111 45.9801 72.5952 45.9801C73.5164 45.9801 74.2481 46.2218 74.7112 46.6866C75.4277 47.4014 75.5469 48.722 75.5469 51.4085L75.548 51.8499V61.6932C75.548 62.2419 75.9944 62.6865 76.5414 62.6865H80.7449C81.2365 62.6865 81.6426 62.3274 81.7215 61.8576L81.7383 61.7066L81.7371 57.7901L81.7383 57.7783V56.8269L81.7371 56.8257" fill="#808080"/>
</g>
</g>
<defs>
<filter id="filter0_i_1063_29040" x="0" y="0" width="180" height="80" filterUnits="userSpaceOnUse" color-interpolation-filters="sRGB">
<feFlood flood-opacity="0" result="BackgroundImageFix"/>
<feBlend mode="normal" in="SourceGraphic" in2="BackgroundImageFix" result="shape"/>
<feColorMatrix in="SourceAlpha" type="matrix" values="0 0 0 0 0 0 0 0 0 0 0 0 0 0 0 0 0 0 127 0" result="hardAlpha"/>
<feOffset dx="-1"/>
<feComposite in2="hardAlpha" operator="arithmetic" k2="-1" k3="1"/>
<feColorMatrix type="matrix" values="0 0 0 0 0.533333 0 0 0 0 0.521569 0 0 0 0 0.521569 0 0 0 0.5 0"/>
<feBlend mode="normal" in2="shape" result="effect1_innerShadow_1063_29040"/>
</filter>
<clipPath id="clip0_1063_29040">
<rect width="120" height="65.8859" fill="white" transform="translate(30 7.05713)"/>
</clipPath>
</defs>
</svg>
