<svg width="180" height="80" viewBox="0 0 180 80" fill="none" xmlns="http://www.w3.org/2000/svg">
<g filter="url(#filter0_ii_13448_10984)">
<path d="M92.7094 40.0406C92.7094 39.553 92.6823 39.0653 92.6552 38.6048C92.6281 38.1442 92.5469 37.6566 92.4927 37.196H85.9094H79.3261L77.3214 40.3386L75.3166 43.4813H85.4759C84.8799 45.5402 83.715 47.3012 82.1437 48.5474C80.5724 49.7936 78.5947 50.5522 76.2919 50.5522C73.4202 50.5522 70.8736 49.3602 69.0042 47.4366C67.1349 45.5131 65.9971 42.8853 65.9971 39.9865C65.9971 37.1418 67.1349 34.541 69.0313 32.6446C70.9006 30.7482 73.5014 29.5562 76.3732 29.5562C77.6194 29.5562 78.7843 29.7458 79.868 30.1251C80.9516 30.4773 81.9269 31.0191 82.7939 31.6693L84.5548 28.8518L86.3158 26.0343C84.9612 25.0861 83.4441 24.3275 81.7644 23.8398C80.1118 23.3251 78.2967 23.0813 76.4002 23.0813C73.8536 23.0813 71.5508 23.5418 69.519 24.3817C67.4871 25.2215 65.672 26.4406 64.1548 27.9578C60.5516 31.561 59.5222 35.2183 58.8178 38.5506C58.0863 41.91 57.6799 44.9713 55.2146 47.4096C54.1851 48.439 53.0743 49.2247 51.8281 49.7394C50.5819 50.2542 49.2544 50.5251 47.8186 50.5251C44.8656 50.5251 42.2106 49.306 40.26 47.3825C38.3365 45.459 37.1445 42.8311 37.1445 39.9865C37.1445 37.196 38.3365 34.5952 40.26 32.6717C42.1835 30.7482 44.8385 29.5291 47.8186 29.502C49.0648 29.5291 50.2026 29.7187 51.2592 30.0438C52.3158 30.3689 53.2911 30.8837 54.158 31.5339L55.9461 28.7163L57.7341 25.8988C56.3795 24.9506 54.8624 24.2191 53.2098 23.7315C51.5572 23.2438 49.7421 23 47.8457 23C44.9198 23 42.1835 23.7044 39.7994 24.9506C37.4154 26.1968 35.3835 27.9578 33.8393 30.0709C33.2433 28.2016 31.9971 26.6032 30.2903 25.4924C28.5835 24.3546 26.4162 23.7044 23.9779 23.7044H16.3381H8.72534V40.0406V56.3227H25.5222C27.6353 56.3227 29.5317 55.808 31.103 54.941C32.6743 54.0741 33.9206 52.8279 34.7875 51.3649C36.3588 53.0988 38.2552 54.5076 40.4226 55.4829C42.5899 56.4582 45.001 57 47.6018 57C50.6361 57 53.4265 56.2956 55.8377 55.0223C58.2488 53.749 60.2807 51.9339 61.852 49.6853C63.3421 51.9068 65.374 53.7219 67.8122 54.9952C70.2234 56.2685 73.068 57 76.1022 57C80.7891 57 84.9341 55.1036 87.9142 52.0151C90.8943 48.9809 92.7094 44.7275 92.7094 40.0406ZM15.7963 36.9251V29.8H23.8425C24.872 29.8 25.766 30.1793 26.4162 30.8024C27.0664 31.4255 27.4728 32.3195 27.4728 33.349C27.4728 34.3785 27.0664 35.2725 26.4162 35.8956C25.766 36.5458 24.8449 36.9251 23.8425 36.9251H19.8329H15.7963ZM15.7963 50.2813V42.8853H25.4409C26.5245 42.8853 27.4728 43.2916 28.1771 43.9418C28.8815 44.592 29.315 45.5131 29.315 46.5697C29.315 47.6263 28.8815 48.5474 28.1771 49.2247C27.4728 49.902 26.5245 50.3084 25.4409 50.3084H20.6186H15.7963V50.2813Z" fill="#808080"/>
<path d="M108.774 52.3668C108.801 52.4209 108.801 52.5022 108.801 52.5835C108.801 52.6648 108.828 52.7731 108.828 52.8544C108.828 53.8839 108.476 54.7779 107.853 55.4281C107.23 56.0783 106.336 56.4576 105.307 56.4576C104.277 56.4576 103.329 56.0512 102.652 55.3468C101.974 54.6696 101.568 53.7213 101.568 52.6648C101.568 51.6082 102.001 50.66 102.679 49.9827C103.356 49.3054 104.304 48.8719 105.361 48.8719C105.794 48.8719 106.201 48.9261 106.58 49.0345C106.959 49.1429 107.311 49.3054 107.636 49.5492L107.338 50.0098L107.04 50.4703C106.797 50.2807 106.526 50.1452 106.255 50.064C105.984 49.9827 105.686 49.9285 105.361 49.9285C104.629 49.9285 103.979 50.2265 103.518 50.6871C103.058 51.1476 102.76 51.8249 102.76 52.6106C102.76 53.3692 103.031 54.0464 103.491 54.5341C103.952 55.0217 104.575 55.3197 105.307 55.3197C105.984 55.3197 106.526 55.103 106.932 54.7508C107.338 54.3986 107.582 53.8839 107.691 53.315H105.225L105.55 52.8002L105.875 52.2855L108.774 52.3668ZM121.02 56.5118C122.076 56.5118 123.024 56.0783 123.729 55.401C124.406 54.7237 124.84 53.7755 124.84 52.746C124.84 51.7166 124.406 50.7684 123.729 50.0911C123.052 49.4138 122.076 48.9803 121.02 48.9803C119.963 48.9803 119.015 49.4138 118.338 50.0911C117.66 50.7684 117.227 51.7166 117.227 52.746C117.227 53.7755 117.66 54.7237 118.338 55.401C119.015 56.0783 119.963 56.5118 121.02 56.5118ZM127.576 49.1158V53.5588C127.576 54.0735 127.765 54.5612 128.091 54.8863C128.416 55.2114 128.876 55.4281 129.418 55.4281C129.96 55.4281 130.42 55.2114 130.746 54.8863C131.071 54.5612 131.26 54.0735 131.26 53.5588V49.1158H132.398V53.5588C132.398 54.3986 132.073 55.1301 131.558 55.6719C131.016 56.1867 130.285 56.5118 129.418 56.5118C128.551 56.5118 127.82 56.1867 127.278 55.6719C126.736 55.1572 126.411 54.4257 126.411 53.5588V49.1158H127.576ZM113.38 49.1158C114.138 49.1158 114.761 49.3596 115.195 49.7931C115.628 50.1994 115.872 50.7955 115.872 51.4457C115.872 51.9875 115.71 52.448 115.439 52.8273C115.168 53.2066 114.761 53.4775 114.247 53.5859L115.114 54.9676L115.981 56.3492H114.626L113.813 55.0488L113.001 53.7484H111.619V56.3492H110.454V49.1158H113.38ZM137.329 49.1158C138.087 49.1158 138.71 49.3867 139.171 49.7931C139.605 50.2265 139.848 50.7955 139.848 51.4727C139.848 52.1229 139.605 52.719 139.171 53.1524C138.738 53.5859 138.087 53.8297 137.329 53.8297H135.676V56.3492H134.511V49.1158H137.329ZM121.02 55.4281C120.288 55.4281 119.638 55.1301 119.177 54.6425C118.717 54.1548 118.419 53.4775 118.419 52.746C118.419 52.0146 118.717 51.3373 119.177 50.8496C119.638 50.362 120.315 50.064 121.02 50.064C121.751 50.064 122.401 50.362 122.889 50.8496C123.35 51.3373 123.648 52.0146 123.648 52.746C123.648 53.5046 123.35 54.1819 122.889 54.6425C122.428 55.1301 121.778 55.4281 121.02 55.4281ZM137.329 52.8002C137.708 52.8002 138.033 52.6648 138.277 52.448C138.521 52.2313 138.656 51.9062 138.656 51.4998C138.656 51.0935 138.521 50.7954 138.277 50.5516C138.033 50.3349 137.708 50.1994 137.329 50.1994H135.676V52.8002H137.329ZM113.38 52.6919C113.759 52.6919 114.057 52.5835 114.301 52.3668C114.518 52.15 114.653 51.852 114.653 51.4457C114.653 51.0664 114.518 50.7413 114.301 50.5245C114.084 50.3078 113.759 50.1723 113.38 50.1723H111.619V52.6919H113.38ZM171.22 39.6879C171.248 39.7421 171.248 39.8233 171.248 39.9046C171.248 39.9859 171.275 40.0943 171.275 40.1755C171.275 41.205 170.922 42.099 170.299 42.7492C169.676 43.3994 168.782 43.8058 167.753 43.8058C166.696 43.8058 165.775 43.3994 165.098 42.695C164.42 42.0178 164.014 41.0695 164.014 40.013C164.014 38.9564 164.42 38.0082 165.125 37.3309C165.802 36.6536 166.75 36.2201 167.807 36.2201C168.24 36.2201 168.647 36.2743 169.026 36.3827C169.405 36.4911 169.757 36.6536 170.083 36.8974L169.785 37.358L169.487 37.8186C169.243 37.6289 168.972 37.4935 168.701 37.4122C168.43 37.3309 168.132 37.2767 167.807 37.2767C167.075 37.2767 166.425 37.5747 165.965 38.0353C165.504 38.5229 165.206 39.2002 165.206 39.9588C165.206 40.7174 165.477 41.3946 165.938 41.8823C166.398 42.3699 167.021 42.668 167.753 42.668C168.43 42.668 168.972 42.4512 169.378 42.099C169.785 41.7468 170.028 41.2321 170.137 40.6632H167.671L167.997 40.1484L168.322 39.6337L171.22 39.6879ZM133.807 36.4369V40.8799C133.807 41.3947 133.997 41.8823 134.322 42.2074C134.647 42.5325 135.107 42.7492 135.649 42.7492C136.191 42.7492 136.652 42.5325 136.977 42.2074C137.302 41.8823 137.491 41.3947 137.491 40.8799V36.4369H138.629V40.8799C138.629 41.7198 138.304 42.4512 137.789 42.9931C137.248 43.5078 136.516 43.8329 135.649 43.8329C134.782 43.8329 134.051 43.5078 133.509 42.9931C132.967 42.4783 132.642 41.7468 132.642 40.8799V36.4369H133.807ZM128.416 43.8329C129.228 43.8329 129.852 43.5891 130.285 43.2098C130.718 42.8034 130.962 42.2616 130.962 41.6385C130.962 40.9612 130.691 40.5006 130.285 40.2026C129.879 39.8775 129.337 39.715 128.768 39.5253C128.307 39.3899 127.901 39.2815 127.63 39.0919C127.359 38.9293 127.197 38.7126 127.197 38.3604C127.197 38.0624 127.305 37.8186 127.495 37.6289C127.711 37.4393 128.009 37.3309 128.443 37.3309C128.714 37.3309 128.985 37.3851 129.256 37.4664C129.526 37.5476 129.797 37.6831 130.068 37.8727L130.366 37.4122L130.664 36.9516C130.366 36.7349 130.041 36.5723 129.689 36.464C129.31 36.3556 128.93 36.2743 128.497 36.2743C127.738 36.2743 127.115 36.4911 126.709 36.8703C126.303 37.2496 126.059 37.7915 126.059 38.4146C126.059 39.119 126.33 39.5524 126.736 39.8504C127.142 40.1484 127.684 40.3381 128.253 40.5006C128.714 40.6361 129.12 40.7715 129.391 40.9341C129.662 41.0966 129.824 41.3134 129.824 41.6656C129.824 41.9636 129.716 42.2345 129.472 42.4241C129.256 42.6138 128.903 42.7221 128.443 42.7221C128.063 42.7221 127.738 42.6409 127.413 42.5325C127.088 42.397 126.763 42.2345 126.465 42.0448L126.167 42.5054L125.869 42.966C126.167 43.1827 126.519 43.3994 126.953 43.562C127.359 43.7245 127.847 43.8329 128.416 43.8329ZM112.621 43.8329C113.678 43.8329 114.626 43.3994 115.33 42.7221C116.008 42.0448 116.441 41.0966 116.441 40.0672C116.441 39.0377 116.008 38.0895 115.33 37.3851C114.626 36.7078 113.678 36.2743 112.621 36.2743C111.565 36.2743 110.616 36.7078 109.939 37.3851C109.262 38.0624 108.828 39.0106 108.828 40.0672C108.828 41.0966 109.262 42.0448 109.939 42.7221C110.616 43.3994 111.565 43.8329 112.621 43.8329ZM101.541 40.0672C101.541 41.1237 101.974 42.0719 102.652 42.7492C103.356 43.4265 104.304 43.86 105.388 43.86C105.903 43.86 106.336 43.7787 106.742 43.6433C107.149 43.5078 107.474 43.3182 107.826 43.0472L107.528 42.5867L107.23 42.1261C106.959 42.3429 106.661 42.5054 106.363 42.6138C106.065 42.7221 105.713 42.7763 105.361 42.7763C104.656 42.7763 104.006 42.4783 103.546 41.9907C103.085 41.503 102.787 40.8257 102.787 40.0672C102.787 39.3086 103.058 38.6313 103.546 38.1437C104.006 37.656 104.656 37.358 105.361 37.358C105.74 37.358 106.065 37.4122 106.363 37.5206C106.661 37.6289 106.959 37.7915 107.23 38.0082L107.528 37.5476L107.826 37.0871C107.501 36.8433 107.149 36.6265 106.742 36.4911C106.336 36.3556 105.903 36.2743 105.388 36.2743C104.304 36.2743 103.356 36.6807 102.652 37.3851C101.974 38.0624 101.541 39.0106 101.541 40.0672ZM153.855 43.6703H152.69V36.4369H153.855V43.6703ZM157.539 43.6703H156.428V36.4369H157.864L159.544 39.1731L161.224 41.9094V36.4369H162.334V43.6703H160.98L159.246 40.8799L157.512 38.0895V43.6703H157.539ZM150.929 37.5206H148.653V43.6703H147.461V37.5206H145.212V36.4369H150.929V37.5206ZM141.853 42.5867H145.429V43.6703H140.688V36.4369H141.853V42.5867ZM119.205 43.6703H118.094V36.4369H119.53L121.209 39.1731L122.889 41.9094V36.4369H124V43.6703H122.645L120.911 40.8799L119.177 38.0895V43.6703H119.205ZM112.621 42.7492C111.89 42.7492 111.24 42.4512 110.779 41.9636C110.318 41.4759 110.02 40.7986 110.02 40.0672C110.02 39.3086 110.318 38.6313 110.779 38.1707C111.24 37.6831 111.917 37.3851 112.621 37.3851C113.353 37.3851 114.003 37.6831 114.491 38.1707C114.951 38.6584 115.249 39.3357 115.249 40.0672C115.249 40.8257 114.951 41.503 114.491 41.9636C114.003 42.4512 113.353 42.7492 112.621 42.7492ZM133.834 31.1269C134.891 31.1269 135.839 30.6935 136.543 30.0162C137.22 29.3389 137.654 28.3907 137.654 27.3612C137.654 26.3317 137.22 25.3835 136.543 24.6791C135.866 24.0018 134.918 23.5684 133.834 23.5684C132.777 23.5684 131.829 24.0018 131.152 24.6791C130.475 25.3564 130.041 26.3046 130.041 27.3612C130.041 28.3907 130.475 29.3389 131.152 30.0162C131.829 30.7205 132.777 31.1269 133.834 31.1269ZM119.909 31.1269C120.722 31.1269 121.345 30.9102 121.778 30.5038C122.212 30.0974 122.456 29.5556 122.456 28.9325C122.456 28.2552 122.185 27.7947 121.778 27.4966C121.372 27.1986 120.83 27.009 120.261 26.8194C119.801 26.6839 119.394 26.5755 119.123 26.3859C118.852 26.2233 118.69 26.0066 118.69 25.6544C118.69 25.3564 118.798 25.1126 118.988 24.9229C119.205 24.7333 119.503 24.6249 119.936 24.6249C120.207 24.6249 120.478 24.6791 120.749 24.7604C121.02 24.8417 121.291 24.9771 121.561 25.1668L121.859 24.7062L122.158 24.2457C121.859 24.0289 121.534 23.8664 121.182 23.758C120.803 23.6496 120.424 23.5684 119.99 23.5684C119.232 23.5684 118.609 23.7851 118.202 24.1644C117.796 24.5437 117.552 25.0855 117.552 25.7086C117.552 26.413 117.823 26.8464 118.229 27.1445C118.636 27.4425 119.177 27.6321 119.746 27.7946C120.207 27.9301 120.613 28.0656 120.884 28.2281C121.155 28.3907 121.318 28.6074 121.318 28.9596C121.318 29.2576 121.209 29.5285 120.965 29.7182C120.749 29.9078 120.397 30.0162 119.936 30.0162C119.557 30.0162 119.232 29.9349 118.907 29.8265C118.581 29.6911 118.256 29.5285 117.958 29.3389L117.66 29.7994L117.362 30.26C117.66 30.4767 118.012 30.6935 118.446 30.856C118.852 31.0456 119.34 31.1269 119.909 31.1269ZM112.405 31.1269C113.461 31.1269 114.409 30.6935 115.114 30.0162C115.791 29.3389 116.224 28.3907 116.224 27.3612C116.224 26.3317 115.791 25.3835 115.114 24.6791C114.436 24.0018 113.488 23.5684 112.405 23.5684C111.348 23.5684 110.4 24.0018 109.722 24.6791C109.045 25.3564 108.612 26.3046 108.612 27.3612C108.612 28.3907 109.045 29.3389 109.722 30.0162C110.4 30.7205 111.348 31.1269 112.405 31.1269ZM140.742 23.758L142.422 26.4943L144.102 29.2305V23.758H145.212V30.9915H143.858L142.124 28.201L140.39 25.4106V31.0186H139.307V23.7851L140.742 23.758ZM129.31 23.758V24.8417H127.034V30.9915H125.842V24.8417H123.593V23.758H129.31ZM104.765 23.758C105.415 23.758 105.957 23.9747 106.363 24.2998C106.769 24.652 107.013 25.1397 107.013 25.6815C107.013 26.0066 106.932 26.2775 106.797 26.5213C106.634 26.7652 106.444 26.9819 106.173 27.1174C106.526 27.2799 106.824 27.5237 107.013 27.8217C107.203 28.1197 107.311 28.4719 107.311 28.8512C107.311 29.4472 107.067 29.962 106.661 30.3413C106.255 30.7206 105.686 30.9373 105.008 30.9373H101.92V23.7038L104.765 23.758ZM133.834 30.0433C133.103 30.0433 132.452 29.7453 131.992 29.2576C131.531 28.77 131.233 28.0927 131.233 27.3612C131.233 26.6297 131.531 25.9253 131.992 25.4648C132.452 24.9771 133.13 24.6791 133.834 24.6791C134.565 24.6791 135.216 24.9771 135.703 25.4648C136.164 25.9524 136.462 26.6297 136.462 27.3612C136.462 28.1198 136.164 28.797 135.703 29.2576C135.216 29.7723 134.565 30.0433 133.834 30.0433ZM112.405 30.0433C111.673 30.0433 111.023 29.7453 110.562 29.2576C110.102 28.77 109.804 28.0927 109.804 27.3612C109.804 26.6297 110.102 25.9253 110.562 25.4648C111.023 24.9771 111.7 24.6791 112.405 24.6791C113.136 24.6791 113.786 24.9771 114.274 25.4648C114.734 25.9524 115.032 26.6297 115.032 27.3612C115.032 28.1198 114.734 28.797 114.274 29.2576C113.786 29.7723 113.136 30.0433 112.405 30.0433ZM104.954 29.9349C105.279 29.9349 105.55 29.8265 105.767 29.6098C105.957 29.4201 106.092 29.1492 106.092 28.8512C106.092 28.5532 105.984 28.2823 105.767 28.0927C105.55 27.903 105.279 27.7946 104.954 27.7946H103.085V29.9078L104.954 29.9349ZM104.765 26.8194C105.063 26.8194 105.334 26.711 105.523 26.5213C105.713 26.3317 105.821 26.0879 105.821 25.7899C105.821 25.4919 105.713 25.248 105.523 25.0584C105.334 24.8688 105.063 24.7604 104.765 24.7604H103.085V26.7923L104.765 26.8194Z" fill="#808080"/>
</g>
<defs>
<filter id="filter0_ii_13448_10984" x="0" y="0" width="180" height="80" filterUnits="userSpaceOnUse" color-interpolation-filters="sRGB">
<feFlood flood-opacity="0" result="BackgroundImageFix"/>
<feBlend mode="normal" in="SourceGraphic" in2="BackgroundImageFix" result="shape"/>
<feColorMatrix in="SourceAlpha" type="matrix" values="0 0 0 0 0 0 0 0 0 0 0 0 0 0 0 0 0 0 127 0" result="hardAlpha"/>
<feOffset dy="-1"/>
<feComposite in2="hardAlpha" operator="arithmetic" k2="-1" k3="1"/>
<feColorMatrix type="matrix" values="0 0 0 0 0.533333 0 0 0 0 0.521569 0 0 0 0 0.521569 0 0 0 0.5 0"/>
<feBlend mode="normal" in2="shape" result="effect1_innerShadow_13448_10984"/>
<feColorMatrix in="SourceAlpha" type="matrix" values="0 0 0 0 0 0 0 0 0 0 0 0 0 0 0 0 0 0 127 0" result="hardAlpha"/>
<feOffset dx="-1"/>
<feComposite in2="hardAlpha" operator="arithmetic" k2="-1" k3="1"/>
<feColorMatrix type="matrix" values="0 0 0 0 0.533333 0 0 0 0 0.527729 0 0 0 0 0.522222 0 0 0 0.5 0"/>
<feBlend mode="normal" in2="effect1_innerShadow_13448_10984" result="effect2_innerShadow_13448_10984"/>
</filter>
</defs>
</svg>
