<svg width="246" height="244" viewBox="0 0 246 244" fill="none" xmlns="http://www.w3.org/2000/svg">
<path d="M246 244H2V0H246V244ZM3.50981 242.49H244.49V1.50981H3.50981V242.49Z" fill="#F3F4F5"/>
<path d="M245.264 220.433H2.77332V221.942H245.264V220.433Z" fill="#F3F4F5"/>
<path d="M245.264 198.411H2.77332V199.921H245.264V198.411Z" fill="#F3F4F5"/>
<path d="M245.264 176.354H2.77332V177.863H245.264V176.354Z" fill="#F3F4F5"/>
<path d="M245.264 154.295H2.77332V155.805H245.264V154.295Z" fill="#F3F4F5"/>
<path d="M245.264 132.274H2.77332V133.784H245.264V132.274Z" fill="#F3F4F5"/>
<path d="M245.264 110.216H2.77332V111.726H245.264V110.216Z" fill="#F3F4F5"/>
<path d="M245.264 88.1953H2.77332V89.7051H245.264V88.1953Z" fill="#F3F4F5"/>
<path d="M245.264 66.1367H2.77332V67.6465H245.264V66.1367Z" fill="#F3F4F5"/>
<path d="M245.264 44.0791H2.77332V45.5889H245.264V44.0791Z" fill="#F3F4F5"/>
<path d="M245.264 22.0576H2.77332V23.5674H245.264V22.0576Z" fill="#F3F4F5"/>
<path d="M223.942 0.773438H222.432V243.264H223.942V0.773438Z" fill="#F3F4F5"/>
<path d="M201.921 0.773438H200.411V243.264H201.921V0.773438Z" fill="#F3F4F5"/>
<path d="M179.863 0.773438H178.353V243.264H179.863V0.773438Z" fill="#F3F4F5"/>
<path d="M157.805 0.773438H156.295V243.264H157.805V0.773438Z" fill="#F3F4F5"/>
<path d="M135.784 0.773438H134.274V243.264H135.784V0.773438Z" fill="#F3F4F5"/>
<path d="M113.726 0.773438H112.216V243.264H113.726V0.773438Z" fill="#F3F4F5"/>
<path d="M91.7048 0.773438H90.195V243.264H91.7048V0.773438Z" fill="#F3F4F5"/>
<path d="M69.6468 0.773438H68.1371V243.264H69.6468V0.773438Z" fill="#F3F4F5"/>
<path d="M47.5889 0.773438H46.0791V243.264H47.5889V0.773438Z" fill="#F3F4F5"/>
<path d="M25.5678 0.773438H24.058V243.264H25.5678V0.773438Z" fill="#F3F4F5"/>
</svg>
