<svg width="488" height="539" viewBox="0 0 488 539" fill="none" xmlns="http://www.w3.org/2000/svg">
<path d="M49.7434 291.188C-10.6312 338.424 -51.7575 390.521 -77.9528 431.348C-83.4853 420.03 -89.7032 404.739 -93.9522 386.039C-117.972 285.352 -77.2359 121.331 67.5771 62.5944C188.999 13.519 330.759 58.6076 402.318 171.037C341.099 171.883 189.054 182.775 49.7434 291.188Z" fill="#2C91FE"/>
<path d="M407.249 454.512C396.104 475.867 381.379 494.261 364.325 511.01C318.523 556.754 263.078 582.173 198.914 589.664C165.299 593.418 132.061 590.46 99.3695 581.782C95.0541 580.481 94.3004 579.077 94.6082 574.933C99.4447 493.301 124.865 418.345 169.466 350.818C184.088 328.863 200.045 308.723 218.16 289.234C219.479 287.984 220.626 285.74 222.612 285.397C223.452 287.298 225.113 288.034 226.774 288.77C249.208 300.241 270.992 313.869 291.543 329.245C327.986 356.708 359.567 388.589 386.782 424.804C394.044 434.29 400.398 444.444 407.249 454.512Z" fill="#2C91FE"/>
<path d="M407.249 454.512C400.398 444.443 393.633 434.872 386.782 424.803C359.978 388.006 328.397 356.125 291.543 329.244C270.992 313.869 249.79 300.651 226.774 288.77C225.113 288.034 223.452 287.298 222.612 285.397C230.505 274.83 240.402 266.986 249.717 258.731C269.339 242.05 289.219 226.858 310.52 213.978C339.663 196.166 363.961 185.837 373.465 181.64C384.955 177.101 395.04 173.315 402.318 171.037C411.584 183.245 417.544 197.047 423.591 211.345C430.563 228.04 436.13 245.489 439.711 263.281C447.062 302.923 446.707 342.36 437.156 381.85C431.08 405.91 421.767 428.995 409.714 451.018C409.389 452.097 408.071 453.347 407.249 454.512Z" fill="#94C8FB"/>
</svg>
