<svg width="277" height="432" viewBox="0 0 277 432" fill="none" xmlns="http://www.w3.org/2000/svg">
<g clip-path="url(#clip0_5718_99342)">
<path d="M71.6643 285.031C98.2351 245.536 148.764 182.041 232.54 132.06C284.333 101.172 333.2 84.7471 370.193 75.6641C364.393 69.1196 304.212 3.44734 212.302 13.3212C142.863 20.7816 85.3765 68.1655 61.4917 129.797C31.7389 206.562 66.1303 274.521 71.6643 285.031Z" stroke="#2C91FF" stroke-opacity="0.1" stroke-width="2" stroke-miterlimit="10"/>
<path d="M209.219 377.159C226.245 380.669 248.066 382.563 272.355 377.831C357.611 361.202 397.831 277.569 403.504 265.24C391.278 249.552 372.124 228.625 344.418 209.475C312.833 187.686 282.719 176.921 262.189 171.356C243.288 199.164 216.167 248.018 209.191 313.342C206.622 337.213 207.269 358.792 209.219 377.159Z" stroke="#2C91FF" stroke-opacity="0.1" stroke-width="2" stroke-miterlimit="10"/>
<path d="M265.726 165.578C281.868 169.848 301.046 176.58 321.335 187.347C363.43 209.685 390.683 239.015 406.368 259.155C412.175 241.305 424.453 195.21 407.449 141.769C397.58 110.78 381.548 88.765 370.193 75.6644C351.861 85.5021 329.242 99.9484 306.246 120.886C289.2 136.443 275.876 151.954 265.726 165.578Z" stroke="#2C91FF" stroke-opacity="0.1" stroke-width="2" stroke-miterlimit="10"/>
</g>
<defs>
<clipPath id="clip0_5718_99342">
<rect width="366.513" height="370.472" fill="white" transform="translate(0.161133 80.1582) rotate(-18.616)"/>
</clipPath>
</defs>
</svg>
