<svg width="625" height="452" viewBox="0 0 625 452" fill="none" xmlns="http://www.w3.org/2000/svg">
<g clip-path="url(#clip0_13717_290036)">
<g opacity="0.1">
<path d="M-511.143 138.86C-484.312 106.347 -455.554 75.4735 -425.025 46.4053C-411.464 33.4951 -397.147 20.7522 -379.81 13.5863C-335.477 -4.54838 -285.382 19.0876 -246.539 47.0974C-210.718 72.9395 -178.098 102.951 -149.367 136.499C-120.93 169.71 -95.8784 206.772 -60.4928 232.438C-25.1071 258.103 24.9991 269.971 62.2745 247.148C84.4541 233.563 98.8404 209.557 105.318 184.368C111.796 159.179 111.135 132.701 108.657 106.804C105.819 77.1609 100.849 46.1047 111.934 18.4888C123.423 -10.0379 152.605 -30.7119 183.413 -31.9439C227.239 -33.68 263.555 -0.89735 298.704 25.3395C343.351 58.6795 396.052 84.7597 451.768 85.162C507.484 85.5644 565.78 55.2237 585.853 3.24359" stroke="white" stroke-miterlimit="10"/>
<path d="M-506.135 150.615C-479.768 118.648 -451.396 88.3905 -421.189 60.0244C-407.784 47.4203 -393.642 34.9538 -376.602 27.9826C-342.371 13.9586 -304.682 24.6453 -271.454 42.8259C-262.496 47.7376 -253.806 53.1221 -245.42 58.9568C-209.955 83.4847 -177.54 112.153 -148.861 144.354C-120.473 176.196 -95.4581 212.127 -60.3848 236.901C-40.7373 250.792 -17.032 260.977 6.75253 264.07C27.4834 266.754 48.4054 263.98 66.4274 253.248C69.6306 251.349 72.6995 249.231 75.6121 246.911C93.5453 232.561 105.257 211.106 111.266 188.738C113.154 181.574 114.569 174.295 115.505 166.946C118.056 147.813 117.798 128.307 116.811 109.125C115.294 78.7513 112.676 47.579 124.925 20.0664C137.173 -7.4461 165.11 -27.2865 195.185 -28.6245C237.951 -30.54 273.607 0.433497 308.044 24.9632C310.766 26.9035 313.51 28.8091 316.277 30.6802C358.19 58.9693 406.329 79.8291 456.658 79.0089C510.307 78.1508 566.031 47.8242 584.845 -3.03303" stroke="white" stroke-miterlimit="10"/>
<path d="M-501.125 162.385C-475.252 130.946 -447.28 101.294 -417.402 73.6331C-404.088 61.3435 -390.182 49.3203 -373.443 42.3685C-339.888 28.5837 -302.842 38.4186 -270.098 55.4728C-261.251 60.0892 -252.651 65.1638 -244.333 70.676C-209.237 93.9174 -177.045 121.271 -148.442 152.154C-120.093 182.706 -95.0961 217.392 -60.3787 241.313C-39.9326 255.334 -15.567 265.969 8.82876 269.502C30.1143 272.552 51.769 270.028 70.4468 259.3C73.7832 257.389 76.9773 255.241 80.0045 252.87C98.652 238.34 110.67 216.227 117.031 193.178C119.043 185.815 120.595 178.334 121.678 170.778C124.57 151.142 125.014 131.073 124.813 111.512C124.617 80.4074 124.3 49.221 137.753 21.7589C150.528 -4.26455 177.436 -23.7445 206.792 -25.2219C248.578 -27.3102 283.513 1.87737 317.298 24.661C319.955 26.4597 322.656 28.2212 325.353 29.9512C366.367 56.1714 413.045 74.9324 461.492 72.9261C513.089 70.79 566.225 40.4792 583.782 -9.2393" stroke="white" stroke-miterlimit="10"/>
<path d="M-496.117 174.14C-470.727 143.241 -443.156 114.201 -413.616 87.2422C-400.518 75.2818 -386.727 63.5119 -370.285 56.7548C-337.263 43.1924 -301.006 52.1606 -268.738 68.1516C-260.03 72.4859 -251.55 77.2649 -243.333 82.4697C-208.555 104.382 -176.523 130.375 -147.917 159.895C-119.612 189.125 -94.6154 222.58 -60.2818 245.683C-39.0732 259.934 -14.153 270.935 11.0431 274.886C32.8833 278.303 55.3097 276.088 74.6201 265.301C78.0773 263.374 81.3915 261.201 84.5369 258.798C103.923 244.022 116.23 221.234 122.974 197.501C125.104 189.947 126.793 182.275 128.033 174.525C131.313 154.38 132.335 133.796 132.981 113.816C134.045 82.0035 136.063 50.6871 150.762 23.3507C164.099 -1.42771 189.907 -20.331 218.545 -21.932C259.302 -24.2034 293.629 3.20102 326.666 24.2498C329.275 25.9102 331.849 27.5427 334.563 29.1429C374.654 53.2171 419.878 69.9424 466.346 66.7453C515.877 63.3487 566.44 33.0519 582.738 -15.5436" stroke="white" stroke-miterlimit="10"/>
<path d="M-491.097 185.862C-466.196 155.519 -439.027 127.111 -409.825 100.882C-396.899 89.2297 -383.274 77.8149 -367.123 71.1718C-334.721 57.7781 -299.181 65.9511 -267.373 80.877C-258.777 84.9313 -250.391 89.4169 -242.247 94.3166C-207.843 114.934 -176.031 139.595 -147.489 167.774C-119.228 195.666 -94.2184 227.873 -60.2686 250.157C-38.2716 264.588 -12.7579 276.015 13.1441 280.395C35.5527 284.161 58.7156 282.227 78.6782 271.412C82.26 269.479 85.6951 267.286 88.9558 264.85C109.063 249.813 121.678 226.382 128.819 201.947C131.061 194.18 132.88 186.298 134.267 178.334C137.935 157.679 139.568 136.576 141.028 116.181C143.493 83.6287 147.651 52.3009 163.65 25.0039C177.398 1.55213 202.343 -16.8023 230.249 -18.5093C269.931 -20.9582 303.645 4.63155 335.953 23.9593C338.498 25.4833 341.104 26.9842 343.673 28.4414C382.875 50.5256 426.629 65.0732 471.168 60.6955C518.583 56.0283 566.637 25.7381 581.66 -21.7326" stroke="white" stroke-miterlimit="10"/>
<path d="M-486.083 197.664C-461.668 167.845 -434.9 140.031 -406.038 114.491C-393.267 103.16 -379.808 92.101 -363.962 85.5737C-332.165 72.4748 -297.339 79.7403 -266.01 93.5873C-257.444 97.3786 -249.081 101.609 -241.204 106.073C-207.145 125.364 -175.531 148.681 -147.043 175.524C-118.826 202.094 -93.7729 233.033 -60.2189 254.532C-37.4353 269.126 -11.3456 280.966 15.2639 285.79C38.243 289.921 62.1599 288.282 82.7571 277.424C86.4645 275.478 90.0196 273.255 93.3918 270.773C114.243 255.537 127.143 231.401 134.668 206.281C137.032 198.33 138.983 190.262 140.513 182.11C144.587 160.96 146.799 139.341 149.121 118.525C152.828 85.2516 159.207 53.9032 176.568 26.6382C190.677 4.35908 214.752 -13.3815 241.936 -15.2437C280.638 -17.8655 313.646 5.93652 345.286 23.5201C347.785 24.9216 350.299 26.2787 352.83 27.5912C391.136 47.6222 433.381 60.0766 476.035 54.4812C521.447 48.5462 566.862 18.2459 580.631 -28.0546" stroke="white" stroke-miterlimit="10"/>
<path d="M-481.043 209.415C-457.123 180.137 -430.764 152.94 -402.25 128.115C-389.639 117.044 -376.359 106.373 -360.788 99.9575C-329.605 87.0745 -295.488 93.4799 -264.65 106.265C-256.247 109.756 -247.983 113.695 -240.134 117.778C-206.435 135.762 -175.026 157.741 -146.585 183.24C-118.411 208.488 -93.2856 238.139 -60.1748 258.86C-36.5814 273.678 -9.91956 285.898 17.3958 291.151C40.9452 295.647 65.6005 294.305 86.8321 283.405C90.6637 281.439 94.3437 279.19 97.8417 276.678C119.394 261.151 132.588 236.39 140.514 210.599C143.027 202.311 145.067 194.077 146.759 185.741C151.203 164.069 154.043 141.944 157.18 120.713C162.238 86.8333 170.772 55.4559 189.475 28.1774C203.899 7.22026 227.165 -9.91393 253.64 -11.8208C291.312 -14.6415 323.663 7.36715 354.59 23.2436C357.039 24.4912 359.5 25.7106 361.974 26.9019C399.401 44.8937 440.227 55.1964 480.888 48.4278C524.234 41.2324 567.078 10.9618 579.585 -34.2472" stroke="white" stroke-miterlimit="10"/>
<path d="M-476.065 221.189C-452.617 192.445 -426.646 165.856 -398.461 141.74C-385.997 131.053 -372.89 120.674 -357.643 114.361C-327.151 101.719 -293.662 107.271 -263.301 118.993C-254.935 122.168 -246.85 125.808 -239.078 129.645C-205.733 146.321 -174.528 166.967 -146.139 191.133C-118.014 215.012 -92.8133 243.391 -60.142 263.364C-35.7379 278.279 -8.49084 290.99 19.5146 296.674C43.6186 301.536 69.04 300.456 90.9237 289.527C94.8849 287.565 98.6866 285.297 102.294 282.742C124.583 266.953 138.068 241.534 146.393 215.057C149.033 206.626 151.18 198.076 152.999 189.598C157.831 167.416 161.282 144.772 165.249 123.123C171.598 88.389 182.134 57.0485 202.266 29.8261C217.054 10.0574 239.58 -6.43051 265.33 -8.52409C301.977 -11.4963 333.668 8.70324 363.896 22.8392C366.28 23.9504 368.679 25.044 371.103 26.0865C407.638 42.0566 446.998 50.2291 485.774 42.2427C527.053 33.7869 567.326 3.53039 578.553 -40.5854" stroke="white" stroke-miterlimit="10"/>
<path d="M-471.056 232.944C-448.084 204.741 -422.504 178.766 -394.657 155.363C-382.349 144.982 -369.424 134.961 -354.467 128.761C-324.493 116.34 -291.832 121.094 -261.924 131.686C-253.717 134.592 -245.703 137.905 -238.013 141.447C-205.022 156.803 -174.015 176.105 -145.672 198.929C-117.586 221.518 -92.2956 248.623 -60.0869 267.787C-34.8684 282.83 -7.05555 296.003 21.6575 302.131C46.33 307.342 72.4916 306.575 95.0396 295.584C99.1147 293.603 103.031 291.31 106.753 288.726C129.765 272.693 143.554 246.599 152.263 219.437C155.023 210.8 157.305 202.043 159.308 193.367C164.528 170.675 168.605 147.511 173.371 125.449C181.042 89.9838 193.573 58.617 215.31 31.4462C230.158 12.8695 252.027 -2.94978 277.045 -5.14935C312.663 -8.30463 343.696 10.1016 373.224 22.4971C375.562 23.4858 377.895 24.4272 380.257 25.3491C415.884 39.1715 453.791 45.3082 490.591 36.1468C529.802 26.4148 567.438 -3.82033 577.476 -46.7732" stroke="white" stroke-miterlimit="10"/>
<path d="M-466.033 244.697C-443.555 217.028 -418.382 191.662 -390.886 168.974C-378.75 158.901 -366.022 149.238 -351.326 143.133C-321.964 130.943 -290.026 134.855 -260.581 144.366C-252.504 146.984 -244.589 149.988 -236.968 153.219C-204.33 167.261 -173.526 185.23 -145.237 206.727C-117.164 227.975 -91.7704 253.645 -60.0512 272.179C-34.0322 287.368 -5.65744 300.97 23.7651 307.559C49.008 313.135 75.9199 312.631 99.1061 301.63C103.307 299.636 107.343 297.312 111.177 294.682C134.927 278.402 149.009 251.666 158.115 223.803C160.994 214.959 163.396 205.997 165.537 197.128C171.145 173.928 175.848 150.242 181.382 127.77C190.369 91.5431 204.833 60.1575 228.145 33.0577C243.13 15.648 264.299 0.534449 288.644 -1.81006C323.249 -5.15026 353.624 11.4626 382.456 22.1492C384.682 22.9538 386.966 23.7517 389.308 24.5428C424.036 36.2963 460.482 40.3342 495.353 29.9923C532.511 18.9822 567.638 -11.2463 576.339 -53.0512" stroke="white" stroke-miterlimit="10"/>
<path d="M-461.022 256.467C-439.03 229.324 -414.253 204.56 -387.099 182.582C-375.115 172.847 -362.51 163.502 -348.166 157.535C-319.416 145.577 -288.187 148.628 -259.235 157.062C-251.264 159.324 -243.457 162.086 -235.92 165.006C-203.609 177.723 -172.976 194.349 -144.707 214.515C-116.707 234.46 -91.234 258.762 -59.9422 276.514C-33.0791 291.812 -4.16463 305.927 25.96 312.912C51.7575 318.855 79.3938 318.666 103.26 307.601C107.587 305.591 111.748 303.242 115.706 300.577C140.046 284.149 154.417 256.739 163.968 228.184C166.968 219.135 169.503 209.948 171.797 200.886C177.795 177.192 183.125 152.985 189.516 130.061C199.847 93.1488 216.167 61.6413 241.121 34.6367C256.173 18.3541 276.834 3.95562 300.399 1.4949C333.977 -2.01262 363.694 12.8069 391.826 21.753C394.035 22.4531 396.273 23.1338 398.458 23.7728C432.291 33.4731 467.273 35.3964 500.213 23.8581C535.305 11.5877 567.862 -18.6111 575.3 -59.3246" stroke="white" stroke-miterlimit="10"/>
<path d="M-456.014 268.222C-434.501 241.617 -410.119 217.466 -383.31 196.207C-371.477 186.825 -359.059 177.79 -345.006 171.937C-316.87 160.194 -286.347 162.401 -257.879 169.709C-250.032 171.73 -242.318 174.119 -234.863 176.745C-202.937 188.146 -172.535 203.432 -144.342 222.258C-116.386 240.881 -90.8016 263.812 -59.9799 280.964C-32.2885 296.372 -2.79899 311.027 28.0083 318.38C54.3289 324.693 82.7767 324.745 107.265 313.67C111.718 311.658 116 309.29 120.072 306.588C145.281 289.802 159.927 261.736 169.815 232.502C172.95 223.245 175.621 213.851 178.052 204.597C184.438 180.394 190.38 155.684 197.604 132.358C209.176 94.7245 227.366 63.0776 254.031 36.208C269.13 21.0071 289.244 7.39229 312.091 4.80796C344.656 1.11551 373.697 14.1277 401.131 21.3491C403.294 21.9268 405.448 22.4415 407.636 22.9681C440.506 30.5911 474.058 30.412 505.101 17.6894C538.134 4.22163 568.109 -26.042 574.295 -65.5695" stroke="white" stroke-miterlimit="10"/>
<path d="M-451.006 279.977C-429.966 253.91 -405.979 230.366 -379.523 209.816C-367.802 200.703 -355.593 192.076 -341.831 186.321C-314.401 174.837 -284.507 176.175 -256.51 182.467C-248.777 184.197 -241.179 186.28 -233.793 188.595C-202.224 198.691 -172.02 212.643 -143.866 230.132C-115.97 247.42 -90.2614 268.96 -59.9349 285.435C-31.3836 300.951 -1.37944 316.04 30.141 323.886C57.0793 330.558 86.2377 330.942 111.357 319.793C115.934 317.768 120.337 315.369 124.521 312.622C150.439 295.608 165.405 266.865 175.692 236.945C178.931 227.484 181.721 217.884 184.322 208.434C191.088 183.659 197.65 158.508 205.686 134.751C218.779 96.444 238.537 64.5332 266.956 37.9054C282.052 23.7601 301.683 10.9373 323.796 8.23125C355.318 4.37334 383.717 15.5904 410.436 21.0731C412.55 21.5126 414.66 21.9205 416.781 22.2793C448.832 27.8399 480.877 25.5675 509.954 11.6365C540.926 -3.18819 568.34 -33.3432 573.246 -71.7932" stroke="white" stroke-miterlimit="10"/>
<path d="M-445.98 291.745C-425.412 266.191 -401.795 243.249 -375.656 223.43C-364.152 214.647 -352.079 206.356 -338.592 200.713C-311.697 189.436 -282.591 189.922 -255.07 195.151C-247.467 196.593 -239.968 198.367 -232.667 200.372C-201.461 209.138 -171.46 221.728 -143.344 237.856C-115.497 253.774 -89.6592 273.957 -59.8083 289.784C-30.4342 305.363 0.111544 320.981 32.3378 329.255C59.8446 336.276 89.7357 336.91 115.513 325.78C120.219 323.745 124.748 321.32 129.051 318.532C155.706 301.256 170.964 271.872 181.633 241.251C185.007 231.583 187.933 221.775 190.671 212.133C197.817 186.914 205.061 161.171 213.833 137.008C228.14 98.0149 249.629 65.8691 279.865 39.4599C294.937 26.3406 314.091 14.3572 335.486 11.5275C365.995 7.48461 393.673 16.9157 419.694 20.6738C421.742 20.9611 423.804 21.2308 425.872 21.5478C457.023 25.0237 487.612 20.6997 514.755 5.54083C543.662 -10.5284 568.48 -40.7307 572.099 -78.0225" stroke="white" stroke-miterlimit="10"/>
<path d="M-440.972 303.501C-420.896 278.494 -397.699 256.162 -371.948 237.049C-360.598 228.587 -348.675 220.65 -335.503 215.187C-309.208 204.109 -280.884 203.792 -253.794 207.936C-246.287 209.102 -238.907 210.554 -231.673 212.247C-200.837 219.719 -171.051 230.999 -143 245.827C-115.193 260.454 -89.2221 279.183 -59.8784 294.366C-29.6342 310.002 1.4058 326.154 34.4009 334.849C62.4466 342.238 93.1288 343.211 119.549 331.974C124.369 329.935 129.008 327.492 133.417 324.672C160.785 307.072 176.357 277.092 187.411 245.802C190.903 235.912 193.959 225.849 196.84 216.062C204.389 190.332 212.245 164.086 221.862 139.488C237.561 99.6924 260.67 67.1807 292.799 41.2368C307.824 29.0822 326.521 17.9678 347.277 15.0053C376.76 10.7951 403.825 18.4115 429.148 20.4449C431.149 20.6097 433.146 20.7273 435.14 20.829C465.395 22.2518 494.531 15.7641 519.733 -0.541976C546.573 -17.8717 568.839 -48.0302 571.226 -84.2343" stroke="white" stroke-miterlimit="10"/>
<path d="M-435.96 315.287C-416.369 290.802 -393.562 269.073 -368.158 250.689C-356.964 242.533 -345.225 234.937 -332.271 229.517C-306.585 218.701 -278.911 217.469 -252.36 220.573C-244.984 221.435 -237.735 222.583 -230.537 223.977C-200.043 230.131 -170.44 240.086 -142.423 253.608C-114.643 266.912 -88.5513 284.22 -59.7148 298.759C-28.6005 314.453 2.98104 331.133 36.6133 340.217C65.2293 347.971 96.6341 349.243 123.708 337.993C128.656 335.941 133.42 333.472 137.951 330.615C166.049 312.834 181.824 282.126 193.355 250.141C196.967 240.044 200.149 229.823 203.177 219.795C211.114 193.556 219.581 166.791 230.012 141.778C247.035 101.267 271.719 68.2824 305.79 42.8141C320.767 31.6085 339.018 21.3298 358.97 18.3335C387.424 13.9403 413.831 19.7634 438.455 20.0563C440.392 20.0847 442.342 20.0798 444.271 20.0294C473.496 19.3507 501.265 10.7532 524.491 -6.72797C549.263 -25.3338 568.956 -55.4784 570.09 -90.5122" stroke="white" stroke-miterlimit="10"/>
<path d="M-430.954 327.026C-411.818 303.061 -389.372 281.937 -364.292 264.289C-353.347 256.226 -341.55 249.389 -329.113 243.902C-304.041 233.303 -277.074 231.226 -251 233.252C-243.738 233.828 -236.569 234.66 -229.492 235.748C-199.361 240.566 -169.958 249.165 -141.98 261.342C-114.244 273.308 -88.0019 289.175 -59.6848 303.103C-27.6882 318.823 4.39124 336.067 38.7367 345.643C67.9231 353.762 100.082 355.329 127.787 344.005C132.858 341.937 137.742 339.439 142.387 336.537C171.208 318.511 187.367 287.134 199.204 254.474C202.935 244.172 206.25 233.727 209.432 223.506C217.759 196.773 226.852 169.487 238.098 144.058C256.441 102.817 282.625 69.2569 318.7 44.3848C333.609 34.0985 351.435 24.8288 370.66 21.6302C398.086 17.0538 423.836 21.0994 447.762 19.6675C449.634 19.5438 451.52 19.4025 453.402 19.2297C481.861 16.5145 508.074 5.82931 529.414 -12.8695C552.121 -32.72 569.178 -62.859 569.019 -96.7819" stroke="white" stroke-miterlimit="10"/>
<path d="M-425.899 338.776C-407.263 315.35 -385.239 294.833 -360.552 277.903C-349.732 270.21 -338.155 263.639 -326.002 258.294C-301.54 247.942 -275.283 244.99 -249.686 245.952C-242.561 246.182 -235.491 246.711 -228.476 247.54C-198.713 251.039 -169.513 258.299 -141.576 269.145C-113.884 279.789 -87.4749 294.214 -59.6807 307.5C-26.8196 323.23 5.75968 341.055 40.8109 351.06C70.5835 359.541 103.463 361.392 131.813 349.976C137.009 347.907 142.014 345.388 146.773 342.45C176.333 324.177 192.767 292.145 205.001 258.783C208.852 248.275 212.303 237.622 215.679 227.154C224.378 199.914 234.098 172.106 246.158 146.263C265.839 104.289 293.489 70.0132 331.601 45.8774C346.486 36.4733 363.833 28.171 382.341 24.8487C408.745 20.1524 433.83 22.3415 457.042 19.1868C458.887 18.9704 460.703 18.6454 462.522 18.3361C489.795 13.7745 514.913 0.660428 534.245 -19.1114C554.9 -40.2399 569.447 -70.3723 568.028 -103.188" stroke="white" stroke-miterlimit="10"/>
<path d="M-420.92 350.55C-402.749 327.677 -381.109 307.789 -356.786 291.61C-346.103 284.269 -334.744 277.963 -322.863 272.778C-299.016 262.642 -273.473 258.782 -248.361 258.746C-241.331 258.71 -234.374 258.96 -227.49 259.495C-198.097 261.674 -169.101 267.589 -141.203 277.095C-113.554 286.417 -87.0275 299.389 -59.7173 312.092C-25.8989 327.806 7.10505 346.252 42.8639 356.702C73.1735 365.536 106.839 367.678 135.828 356.268C141.148 354.188 146.274 351.645 151.148 348.667C181.428 330.134 198.169 297.442 210.794 263.331C214.765 252.617 218.336 241.758 221.808 231.151C230.91 203.4 241.258 175.087 254.131 148.812C275.119 106.125 304.156 70.9997 344.384 47.719C359.721 38.6049 376.459 32.0875 393.92 28.4301C419.29 23.5034 443.723 23.9465 466.235 19.0513C468.012 18.6669 469.786 18.251 471.539 17.7896C497.986 11.0347 521.601 -3.95216 538.973 -25.0062C557.616 -47.4815 569.583 -77.6629 566.908 -109.324" stroke="white" stroke-miterlimit="10"/>
<path d="M-415.912 362.304C-398.22 339.929 -376.969 320.616 -353.008 305.14C-342.455 298.167 -331.315 292.126 -319.714 287.085C-296.61 277.551 -271.988 272.226 -247.009 271.361C-240.109 271.031 -233.238 270.955 -226.396 271.133C-197.366 271.988 -168.567 276.567 -140.703 284.758C-113.103 292.711 -86.4104 304.24 -59.6316 316.367C-24.9857 332.047 8.58675 351.114 45.0357 361.994C75.9119 371.162 110.349 373.613 139.959 362.178C145.407 360.082 150.658 357.508 155.652 354.485C186.657 335.724 203.686 302.358 216.702 267.625C220.793 256.706 224.499 245.639 228.124 234.838C237.595 206.548 248.604 177.742 262.26 151.056C284.585 107.637 315.07 71.4936 357.354 49.2507C372.579 41.2112 388.836 35.3017 405.67 31.6878C430.028 26.5919 453.786 25.2277 475.599 18.6078C477.329 18.0852 479.039 17.5329 480.745 16.949C506.34 7.967 528.43 -8.8974 543.84 -31.2211C560.408 -54.8918 569.794 -84.9943 565.853 -115.596" stroke="white" stroke-miterlimit="10"/>
<path d="M-410.904 374.06C-393.685 352.209 -372.816 333.501 -349.22 318.765C-318.075 298.854 -282.501 286.933 -245.648 284.056C-238.878 283.438 -232.094 283.073 -225.333 282.92C-196.672 282.465 -168.071 285.703 -140.236 292.553C-112.692 299.218 -85.8554 309.244 -59.5941 320.775C-24.028 336.395 10.0062 356.128 47.1572 367.406C78.6548 376.964 113.763 379.688 144.038 368.191C149.609 366.102 154.983 363.518 160.095 360.472C191.821 341.45 209.156 307.425 222.572 272.005C226.782 260.88 230.608 249.607 234.389 238.644C244.252 209.877 255.837 180.523 270.339 153.418C293.94 109.29 325.854 71.9718 370.228 50.9225C385.294 43.9368 401.082 38.6266 417.308 35.0874C440.669 29.8047 463.753 26.649 484.869 18.3044C486.534 17.6454 488.18 16.9567 489.836 16.2189C514.605 5.03388 535.2 -13.7008 548.674 -37.3033C563.186 -62.2835 570 -92.3721 564.797 -121.866" stroke="white" stroke-miterlimit="10"/>
<path d="M-405.878 385.828C-367.198 335.997 -306.718 305.337 -244.287 296.75C-181.855 288.162 -117.548 300.475 -59.539 325.197C-23.0721 340.727 11.4256 361.141 49.2861 372.879C87.1466 384.617 130.461 386.698 164.538 366.457C207.195 341.132 224.22 289.19 240.652 242.417C267.625 165.439 308.071 84.3373 383.193 52.5504C420.616 36.713 463.33 34.8996 499.021 15.4763C548.492 -11.4628 576.308 -73.0804 563.725 -128.008" stroke="white" stroke-miterlimit="10"/>
</g>
</g>
<defs>
<clipPath id="clip0_13717_290036">
<rect width="1106.63" height="454.621" fill="white" transform="translate(-528 -0.0605469) rotate(-6.69104)"/>
</clipPath>
</defs>
</svg>
