<svg width="976" height="185" viewBox="0 0 976 185" fill="none" xmlns="http://www.w3.org/2000/svg">
<g clip-path="url(#clip0_13717_290060)">
<g opacity="0.1">
<path d="M-139.48 456.006C-105.505 480.96 -70.0639 503.853 -33.3472 524.562C-17.0375 533.759 -0.0366131 542.609 18.5273 545.312C65.9502 552.041 108.735 516.86 139.537 480.193C167.941 446.367 192.221 409.283 211.864 369.721C231.305 330.559 246.52 288.491 274.545 254.944C302.57 221.396 348.246 197.622 389.974 210.623C414.805 218.365 434.631 238.119 447.078 260.955C459.526 283.791 465.368 309.625 469.306 335.34C473.811 364.777 476.596 396.105 494.105 420.166C512.229 445.012 545.584 457.912 575.756 451.564C618.673 442.517 645.858 401.841 673.514 367.797C708.64 324.541 753.352 286.352 807.273 272.321C861.195 258.29 925.145 273.434 957.334 318.918" stroke="white" stroke-miterlimit="10"/>
<path d="M-137.502 443.383C-104.111 467.921 -69.1944 490.311 -32.9624 510.419C-16.8788 519.357 -0.11572 527.982 18.1127 530.569C54.7351 535.786 88.6609 516.197 116.427 490.434C123.91 483.479 131.017 476.131 137.719 468.42C166.099 435.956 190.509 400.225 210.431 361.982C230.16 324.159 245.617 283.197 273.557 250.589C289.206 232.311 309.696 216.633 331.999 207.81C351.442 200.133 372.407 197.7 392.507 203.693C396.078 204.75 399.572 206.052 402.964 207.588C423.865 217.111 440.473 235.045 451.776 255.261C455.359 261.745 458.514 268.457 461.22 275.353C468.379 293.279 472.904 312.255 476.643 331.094C482.609 360.915 487.703 391.78 506.314 415.456C524.926 439.132 556.87 451.529 586.357 445.463C628.29 436.85 655.279 398.09 682.662 365.875C684.826 363.328 687.02 360.808 689.245 358.317C722.956 320.627 764.523 288.616 813.521 277.089C865.747 264.787 927.2 280.547 957.893 325.251" stroke="white" stroke-miterlimit="10"/>
<path d="M-135.526 430.744C-102.743 454.891 -68.3634 476.793 -32.6225 496.297C-16.7042 504.953 -0.2782 513.206 17.6531 515.848C53.5622 520.998 87.0726 502.392 114.645 477.84C122.093 471.198 129.188 464.173 135.904 456.792C164.242 425.665 188.757 391.263 208.928 354.316C228.935 317.754 244.678 278.003 272.483 246.31C288.874 227.711 309.894 211.434 332.682 202.036C352.573 193.867 374.187 191.012 394.923 196.842C398.626 197.877 402.249 199.178 405.764 200.735C427.401 210.257 444.468 228.756 456.278 249.546C460.032 256.192 463.368 263.066 466.268 270.126C473.879 288.457 479.223 307.806 483.818 326.821C491.243 357.027 498.571 387.342 518.338 410.674C537.095 432.778 567.954 445.077 596.778 439.323C637.803 431.117 664.53 394.265 691.708 363.903C693.844 361.508 696.031 359.139 698.222 356.802C731.569 321.338 772.233 291.72 819.697 281.804C870.246 271.243 929.186 287.622 958.381 331.529" stroke="white" stroke-miterlimit="10"/>
<path d="M-133.548 418.121C-101.367 441.864 -67.5247 463.27 -32.2829 482.175C-16.6557 490.565 -0.402428 498.6 17.1933 501.126C52.5307 506.191 85.4882 488.619 112.859 465.215C120.241 458.88 127.293 452.171 133.986 445.113C162.34 415.352 187.034 382.308 207.542 346.683C227.83 311.413 243.874 272.856 271.507 242.05C288.581 223.041 310.049 206.273 333.511 196.274C353.85 187.613 376.136 184.27 397.5 190.001C401.324 191.023 405.069 192.319 408.707 193.879C431.121 203.459 448.632 222.54 460.982 243.899C464.896 250.702 468.412 257.727 471.512 264.938C479.624 283.667 485.655 303.374 491.173 322.588C499.993 353.171 509.617 383.041 530.561 405.946C549.558 426.706 579.209 438.715 607.368 433.256C647.441 425.48 674.013 390.505 700.892 362.008C703.015 359.76 705.111 357.547 707.35 355.331C740.327 322.174 780.08 294.885 825.917 286.608C874.772 277.775 931.214 294.77 958.913 337.897" stroke="white" stroke-miterlimit="10"/>
<path d="M-131.551 405.526C-99.9789 428.849 -66.6821 449.741 -31.9473 468.022C-16.562 476.155 -0.556821 483.887 16.7295 486.373C51.4247 491.426 83.8819 474.801 111.067 452.542C118.409 446.506 125.442 440.104 132.138 433.36C160.447 404.947 185.254 373.247 206.028 338.938C226.6 304.976 242.963 267.626 270.424 237.708C288.219 218.332 310.158 201.005 334.2 190.417C355.004 181.28 377.936 177.484 399.939 183.082C403.885 184.08 407.752 185.365 411.51 186.928C434.686 196.585 452.654 216.214 465.561 238.157C469.636 245.138 473.329 252.336 476.624 259.718C485.237 278.846 491.987 298.907 498.396 318.324C508.755 349.282 520.457 378.638 542.652 401.188C561.723 420.56 590.403 432.248 617.878 427.071C656.951 419.73 683.374 386.665 709.967 360.016C712.061 357.915 714.221 355.822 716.355 353.78C748.957 322.77 787.817 297.953 832.073 291.293C879.188 284.209 933.195 301.813 959.383 344.161" stroke="white" stroke-miterlimit="10"/>
<path d="M-129.579 392.856C-98.6062 415.79 -65.844 436.204 -31.6076 453.901C-16.4505 461.759 -0.693371 469.187 16.2677 471.636C50.3043 476.552 82.2914 460.981 109.277 439.885C116.655 434.112 123.726 427.963 130.272 421.706C158.571 394.664 183.513 364.316 204.563 331.316C225.416 298.646 242.132 262.515 269.401 233.455C287.918 213.727 310.315 195.86 334.934 184.668C356.202 175.037 379.793 170.77 402.421 176.255C406.492 177.234 410.484 178.519 414.361 180.1C438.307 189.768 456.724 210.01 470.17 232.523C474.408 239.654 478.275 246.998 481.756 254.528C490.883 274.037 498.321 294.456 505.669 314.07C517.409 345.423 531.269 374.256 554.777 396.441C573.911 414.588 601.596 425.894 628.409 421.044C666.575 414.111 692.752 382.952 719.124 358.157C721.203 356.186 723.309 354.255 725.441 352.363C757.677 323.563 795.588 301.145 838.313 296.127C883.796 290.763 935.247 309.022 959.933 350.543" stroke="white" stroke-miterlimit="10"/>
<path d="M-127.57 380.228C-97.2101 402.759 -64.9947 422.675 -31.27 439.763C-16.3328 447.41 -0.843684 454.505 15.8237 456.913C49.2119 461.769 80.7227 447.206 107.491 427.259C114.784 421.817 121.832 415.975 128.443 410.095C156.713 384.408 181.785 355.408 203.117 323.722C224.253 292.344 241.354 257.444 268.384 229.248C287.632 209.104 310.49 190.728 335.688 178.947C357.42 168.823 381.654 164.087 404.908 169.458C409.104 170.426 413.223 171.705 417.229 173.285C441.927 183.062 460.782 203.84 474.781 226.905C479.247 234.326 483.24 241.809 486.922 249.477C496.537 269.402 504.707 290.158 512.947 309.975C526.146 341.585 542.102 369.918 566.914 391.788C586.03 408.576 612.783 419.492 638.919 414.859C676.135 408.371 702.113 379.112 728.212 356.146C730.281 354.337 732.369 352.552 734.476 350.792C766.359 324.184 803.42 304.2 844.501 300.807C888.289 297.171 937.24 316.031 960.435 356.802" stroke="white" stroke-miterlimit="10"/>
<path d="M-125.626 367.593C-95.8542 389.721 -64.1636 409.143 -30.9324 425.625C-16.2317 432.935 -0.982313 439.789 15.3462 442.177C48.0053 446.969 79.1165 433.387 105.683 414.588C113.017 409.461 119.965 403.953 126.562 398.33C154.808 373.998 180.01 346.34 201.618 315.959C223.041 285.921 240.526 252.235 267.313 224.872C287.323 204.436 310.629 185.441 336.39 173.073C358.57 162.458 383.482 157.281 407.376 162.519C411.697 163.452 415.938 164.721 420.062 166.315C445.538 176.166 464.836 197.51 479.39 221.143C484.014 228.671 488.188 236.435 492.028 244.21C502.143 264.534 511.033 285.643 520.179 305.662C534.839 337.785 552.728 365.592 578.912 387.057C598.09 402.604 623.967 413.075 649.446 408.8C685.705 402.71 711.486 375.366 737.333 354.26C739.373 352.599 741.431 350.951 743.526 349.347C775.039 324.918 811.201 307.357 850.752 305.607C892.845 303.699 939.299 323.175 960.986 363.2" stroke="white" stroke-miterlimit="10"/>
<path d="M-123.648 354.971C-94.4692 376.691 -63.3085 395.613 -30.5789 411.486C-16.1043 418.538 -1.11876 425.09 14.9003 427.438C47.0034 432.143 77.5062 419.538 103.911 401.946C111.156 397.119 118.116 391.945 124.705 386.627C152.932 363.661 178.27 337.356 200.162 308.287C221.863 279.51 239.747 247.037 266.284 220.571C287.052 199.811 310.793 180.231 337.132 167.259C359.778 156.166 385.331 150.505 409.884 155.64C414.32 156.564 418.678 157.828 422.92 159.422C449.157 169.333 468.915 191.257 484.009 215.46C488.799 223.159 493.156 231.09 497.223 239.012C507.839 259.735 517.463 281.196 527.486 301.42C543.606 333.928 563.435 361.272 591.163 382.294C610.106 396.67 635.184 406.654 659.979 402.661C695.285 397 720.867 371.556 746.462 352.309C748.487 350.778 750.518 349.294 752.583 347.822C783.741 325.697 818.992 310.467 856.915 310.34C897.315 310.176 941.209 330.276 961.457 369.464" stroke="white" stroke-miterlimit="10"/>
<path d="M-121.654 342.345C-93.0862 363.669 -62.4693 382.1 -30.2549 397.366C-16.0222 404.161 -1.31625 410.414 14.4269 412.735C45.8796 417.365 75.8883 405.753 102.109 389.322C109.299 384.807 116.238 379.956 122.836 374.958C151.043 353.352 176.51 328.389 198.674 300.619C220.691 273.146 239.027 242.039 265.243 216.304C286.752 195.207 310.933 175.072 337.847 161.48C360.956 149.894 387.172 143.793 412.346 148.783C416.907 149.688 421.389 150.952 425.751 152.564C452.764 162.533 472.963 185.008 488.614 209.794C493.57 217.663 498.094 225.766 502.341 233.84C513.458 254.961 523.817 276.775 534.684 297.208C552.268 330.132 573.975 357.021 603.213 377.589C622.003 390.8 646.228 400.271 670.407 396.583C704.777 391.35 730.16 367.806 755.498 350.386C757.459 349.06 759.478 347.728 761.555 346.387C792.349 326.489 826.697 313.651 863.038 315.141C901.761 316.718 943.221 337.427 961.892 375.829" stroke="white" stroke-miterlimit="10"/>
<path d="M-119.678 329.706C-91.7097 350.639 -61.6243 368.583 -29.9152 383.244C-15.9128 389.75 -1.40354 395.724 13.9651 397.998C44.7674 402.553 74.2998 391.949 100.305 376.683C107.48 372.538 114.373 367.949 120.965 363.272C149.18 343.032 174.81 319.412 197.282 292.939C219.546 266.746 238.294 236.946 264.287 212.073C286.588 190.664 311.166 169.9 338.664 155.752C362.222 143.674 389.063 137.09 414.912 141.976C419.599 142.866 424.209 144.124 428.698 145.739C456.32 155.709 476.964 178.766 493.216 204.113C498.34 212.153 503.047 220.439 507.49 228.664C519.106 250.168 530.2 272.333 542.01 292.995C561.063 326.254 584.6 352.807 615.406 372.881C633.987 384.982 657.545 393.884 680.995 390.501C714.41 385.681 739.594 364.037 764.68 348.475C766.65 347.256 768.653 346.048 770.615 344.893C801.043 327.205 834.49 316.775 869.252 319.898C906.28 323.204 945.24 344.512 962.42 382.166" stroke="white" stroke-miterlimit="10"/>
<path d="M-117.701 317.083C-90.3281 337.612 -60.7751 355.058 -29.5776 369.107C-15.8075 375.307 -1.55589 381.026 13.5033 383.261C43.6572 387.757 72.7113 378.145 98.5235 364.089C105.637 360.208 112.532 356.004 119.116 351.632C147.28 332.762 173.014 310.498 195.739 285.342C218.286 260.441 237.477 231.945 263.162 207.769C286.238 186.05 311.242 164.621 339.311 149.949C363.285 137.385 390.855 130.369 417.309 135.111C422.119 135.972 426.851 137.22 431.46 138.842C460.012 148.946 481.083 172.572 497.828 198.495C503.133 206.703 508.023 215.157 512.646 223.535C524.763 245.438 536.574 267.941 549.289 288.788C569.723 322.443 595.108 348.673 627.539 368.197C645.901 379.238 668.736 387.515 691.52 384.427C723.998 380.034 748.969 360.308 773.801 346.589C775.756 345.5 777.719 344.473 779.711 343.427C809.714 327.988 842.29 319.947 875.502 324.683C910.827 329.653 947.299 351.657 962.975 388.467" stroke="white" stroke-miterlimit="10"/>
<path d="M-115.723 304.46C-88.9409 324.583 -59.9194 341.537 -29.2378 354.985C-15.6425 360.951 -1.69238 366.326 13.0594 368.537C42.4664 372.955 71.1229 364.34 96.7272 351.385C103.801 347.813 110.659 343.934 117.253 339.881C145.389 322.363 171.258 301.441 194.273 277.591C217.088 254 236.74 226.82 262.111 203.422C285.994 181.389 311.391 159.412 340.031 144.089C364.516 131.025 392.693 123.513 419.778 128.172C424.712 129.016 429.568 130.263 434.297 131.903C463.592 142.053 485.139 166.257 502.438 192.749C507.895 201.129 512.951 209.753 517.786 218.279C530.412 240.643 542.931 263.422 556.54 284.489C578.612 318.425 605.582 344.527 639.656 363.386C657.755 373.405 679.928 381.032 702.031 378.241C733.538 374.264 758.326 356.436 782.89 344.578C784.832 343.635 786.778 342.723 788.746 341.856C818.461 328.617 850.086 322.975 881.69 329.363C915.348 336.154 949.311 358.679 963.481 394.758" stroke="white" stroke-miterlimit="10"/>
<path d="M-113.731 291.819C-87.5325 311.56 -59.0175 328.021 -28.8214 340.837C-15.5172 346.537 -1.78163 351.62 12.6764 353.79C41.5138 358.138 69.6153 350.541 95.018 338.733C102.037 335.473 108.873 331.917 115.461 328.186C143.571 312.047 169.577 292.494 192.889 269.974C215.991 247.722 236.101 221.828 261.168 199.174C285.834 176.878 311.627 154.257 340.847 138.345C365.797 124.803 394.624 116.87 422.341 121.35C427.403 122.171 432.387 123.413 437.242 125.063C467.315 135.287 489.303 160.042 507.144 187.118C512.783 195.667 518.021 204.46 523.036 213.138C536.139 235.84 549.465 259.025 563.886 280.305C587.304 314.609 616.009 340.516 651.791 358.718C669.616 367.748 691.121 374.678 712.558 372.183C743.128 368.633 767.655 352.713 791.964 342.699C793.879 341.919 795.812 341.152 797.739 340.339C827.092 329.342 857.808 326.045 887.836 334.097C919.798 342.6 951.255 365.807 963.894 401.078" stroke="white" stroke-miterlimit="10"/>
<path d="M-111.753 279.195C-86.1657 298.526 -58.2072 314.5 -28.5603 326.726C-15.4844 332.151 -1.98112 336.928 12.1277 338.999C40.3346 343.303 67.8748 336.676 93.1252 326.025C100.118 323.057 106.919 319.842 113.517 316.429C141.586 301.636 167.704 283.407 191.271 262.162C214.651 241.172 235.246 216.655 259.979 194.75C285.474 172.184 311.615 148.925 341.478 132.416C366.861 118.385 396.371 109.93 424.738 114.357C429.91 115.154 435.006 116.387 439.972 118.042C470.816 128.405 493.254 153.661 511.632 181.292C517.439 190.026 522.866 199.035 528.055 207.818C541.674 230.917 555.717 254.441 571.063 275.935C596.028 310.677 626.394 336.541 663.897 353.829C681.44 361.935 702.289 368.134 723.139 365.925C752.755 362.789 777.131 348.778 801.186 340.606C803.086 339.957 804.993 339.354 806.902 338.767C835.888 329.98 865.725 329.137 894.152 338.777C924.419 349.008 953.391 372.797 964.569 407.315" stroke="white" stroke-miterlimit="10"/>
<path d="M-109.78 266.54C-84.79 285.484 -57.3573 300.968 -28.2249 312.572C-15.3751 317.739 -2.13357 322.23 11.7528 324.315C39.3051 328.512 66.4383 322.931 91.4219 313.421C98.3619 310.78 105.109 307.892 111.747 304.779C139.807 291.345 166.071 274.446 189.925 254.476C213.602 234.775 234.663 211.607 259.062 190.45C285.387 167.615 311.924 143.712 342.308 126.67C368.155 112.146 398.293 103.224 427.297 107.503C432.596 108.281 437.82 109.508 442.913 111.169C474.509 121.53 497.322 147.441 516.333 175.63C522.307 184.534 527.894 193.666 533.285 202.647C547.405 226.144 562.167 250.022 578.405 271.72C604.828 306.831 636.836 332.768 676.106 349.119C693.37 356.317 713.582 361.815 733.661 359.835C762.325 357.128 786.503 345.017 810.305 338.704C812.177 338.202 814.068 337.73 815.95 337.306C844.453 330.809 873.481 332.346 900.28 343.609C928.853 355.584 955.328 379.99 965.004 413.679" stroke="white" stroke-miterlimit="10"/>
<path d="M-107.8 253.933C-83.3782 272.483 -56.4445 287.469 -27.8063 298.44C-15.2207 303.578 -2.10893 307.318 11.2933 309.593C38.1973 313.732 64.8521 309.143 89.6362 300.795C96.536 298.459 103.284 295.897 109.879 293.109C137.913 281.061 164.316 265.525 188.462 246.869C212.423 228.476 233.982 206.667 258.027 186.23C285.202 163.155 312.083 138.582 343.039 120.889C369.349 105.871 400.146 96.4782 429.78 100.675C435.203 101.438 440.55 102.664 445.764 104.341C478.121 114.762 501.471 141.227 520.943 169.996C527.083 179.071 532.854 188.386 538.442 197.518C553.06 221.398 568.557 245.628 585.686 267.529C613.569 303.024 647.172 329.152 688.239 344.435C705.212 350.758 724.765 355.382 744.188 353.776C771.899 351.498 795.876 341.272 819.424 336.802C821.269 336.464 823.132 336.139 824.999 335.846C853.257 331.511 881.288 335.453 906.557 348.358C933.434 362.045 957.35 387.091 965.501 420.02" stroke="white" stroke-miterlimit="10"/>
<path d="M-105.775 241.304C-81.971 259.454 -55.5941 273.954 -27.5139 284.325C-15.139 289.136 -2.30594 292.672 10.7863 294.878C37.0378 298.926 63.2184 295.36 87.8008 288.161C94.6531 286.193 101.378 283.949 107.976 281.428C135.978 270.748 162.511 256.561 186.943 239.205C211.186 222.105 233.26 201.654 256.955 181.967C284.965 158.671 312.189 133.412 343.724 115.13C370.514 99.6169 401.94 89.7731 432.221 93.9003C437.766 94.6349 443.236 95.851 448.569 97.535C481.703 108.014 505.48 135.048 525.509 164.4C531.815 173.645 537.769 183.129 543.606 192.452C558.709 216.733 574.941 241.315 592.962 263.419C622.32 299.297 657.52 325.76 700.382 339.83C717.116 345.304 735.968 349.106 754.726 347.796C781.476 345.885 805.262 337.621 828.539 334.997C830.381 334.755 832.222 334.626 834.061 334.48C861.621 332.226 889.185 338.791 912.769 353.228C937.969 368.657 959.45 394.31 966.108 426.475" stroke="white" stroke-miterlimit="10"/>
<path d="M-103.83 228.669C-80.6124 246.397 -54.762 260.381 -27.2181 270.113C-15.0626 274.615 -2.50554 277.948 10.2826 280.066C35.8857 284.055 61.5963 281.544 85.953 275.431C92.7781 273.745 99.4625 271.8 106.006 269.595C133.971 260.286 160.636 247.452 185.358 231.405C209.883 215.597 232.426 196.526 255.795 177.523C284.737 154.008 312.22 128.042 344.333 109.156C371.557 93.1697 403.673 82.8509 434.574 86.8168C440.241 87.5306 445.834 88.7415 451.288 90.4354C485.185 100.991 509.42 128.589 530.012 158.571C536.485 167.987 542.606 177.641 548.569 187.076C564.189 211.753 581.154 236.671 600.068 258.995C630.868 295.244 667.621 322.191 712.324 334.915C729.426 339.996 747.25 342.218 765.076 341.488C790.879 340.054 814.46 333.643 837.485 332.877C839.303 332.815 841.125 332.784 842.937 332.802C870.233 332.876 896.798 341.625 918.797 357.785C942.375 375.012 961.367 401.345 966.525 432.698" stroke="white" stroke-miterlimit="10"/>
<path d="M-101.852 216.046C-79.2214 233.408 -53.8884 246.93 -26.8679 256.07C-14.9285 260.246 -2.64842 263.376 9.83346 265.424C34.5683 269.011 59.7454 268.146 84.1755 262.869C90.9462 261.499 97.6267 259.891 104.217 258.043C132.154 250.107 158.956 238.616 183.966 223.853C208.779 209.384 231.837 191.671 254.832 173.357C284.584 149.672 312.467 122.965 345.143 103.493C372.835 87.0444 405.623 76.2369 437.132 80.0749C442.927 80.7725 448.649 81.9827 454.231 83.6912C488.885 94.2908 513.565 122.471 534.689 152.961C541.329 162.546 547.631 172.369 553.79 181.954C569.899 207.064 587.626 232.298 607.4 254.829C639.676 291.461 678.082 319.04 724.524 330.254C741.254 334.321 758.464 336.07 775.67 335.453C800.535 334.43 823.903 329.936 846.674 331.014C848.478 331.097 850.271 331.214 852.069 331.363C879.084 333.805 904.631 344.748 925.037 362.619C946.896 381.513 963.367 408.402 967.037 439.037" stroke="white" stroke-miterlimit="10"/>
<path d="M-99.8746 203.422C-77.8302 220.392 -53.0162 233.421 -26.5302 241.932C8.54115 253.612 45.9518 256.461 82.3874 250.227C89.1029 249.17 95.7696 247.862 102.362 246.355C130.262 239.779 157.2 229.637 182.51 216.181C207.585 202.975 231.15 186.685 253.789 169.074C284.448 145.222 312.616 117.757 345.875 97.7272C374.074 80.7481 407.447 69.5115 439.615 73.2469C445.528 73.9083 451.371 75.0974 457.073 76.7999C492.491 87.4755 517.629 116.22 539.307 147.277C546.114 157.034 552.583 167.026 558.934 176.73C575.539 202.207 593.958 227.831 614.655 250.561C648.341 287.568 688.42 315.937 736.597 325.482C752.916 328.566 769.523 329.849 786.122 329.308C810.065 328.711 833.219 326.119 855.735 329.04C857.511 329.271 859.276 329.536 861.062 329.845C887.816 334.626 912.371 347.748 931.213 367.333C951.399 388.001 965.372 415.505 967.549 445.375" stroke="white" stroke-miterlimit="10"/>
<path d="M-97.8831 190.781C-48.1809 229.625 17.966 244.546 80.5994 237.586C143.233 230.627 202.569 202.945 252.76 164.773C284.314 140.787 312.764 112.549 346.599 91.8988C380.433 71.2489 421.92 58.6266 459.916 69.9086C507.475 84.0186 536.698 130.212 564.081 171.538C609.08 239.57 668.152 308.301 748.769 320.728C788.931 326.921 830.789 318.222 870.15 328.316C924.71 342.323 966.765 395.256 968.013 451.592" stroke="white" stroke-miterlimit="10"/>
</g>
</g>
<defs>
<clipPath id="clip0_13717_290060">
<rect width="1106.63" height="454.621" fill="white" transform="matrix(0.991489 -0.130192 -0.130192 -0.991489 -121.812 594.825)"/>
</clipPath>
</defs>
</svg>
