<svg width="484" height="270" viewBox="0 0 484 270" fill="none" xmlns="http://www.w3.org/2000/svg">
<g opacity="0.6" clip-path="url(#clip0_13717_290575)">
<g clip-path="url(#clip1_13717_290575)">
<g opacity="0.1">
<path d="M-103.39 639.175C-66.187 636.244 -29.1932 631.083 7.39188 623.721C23.6419 620.449 40.1543 616.545 54.1583 607.617C89.8305 584.693 98.1496 536.366 97.5798 493.976C97.0465 454.877 91.8641 415.98 82.1419 378.105C72.5143 340.615 58.3753 303.622 57.7487 264.929C57.1222 226.235 73.9778 183.88 109.463 168.454C130.581 159.277 155.294 161.046 176.846 169.148C198.398 177.251 217.258 191.183 234.773 206.138C254.821 223.258 274.809 242.641 300.462 248.637C326.98 254.802 356.796 244.151 373.342 222.443C396.869 191.553 391.556 148.569 390.395 109.756C388.91 60.4489 396.781 8.99187 424.799 -31.6037C452.817 -72.1993 504.433 -99.0449 552.315 -87.1858" stroke="#5A5959" stroke-miterlimit="10"/>
<path d="M-109.367 629.572C-72.7959 626.699 -36.4442 621.505 -0.532105 614.02C15.4168 610.706 31.6397 606.788 45.3517 597.977C72.9112 580.287 84.314 547.534 88.0176 514.207C89.0083 505.218 89.5203 496.182 89.5513 487.138C89.7896 448.965 85.4771 410.9 76.7049 373.747C68.0451 336.988 54.7072 300.597 54.5676 262.582C54.4807 241.281 59.142 218.92 68.9847 200.106C77.5724 183.714 90.2142 169.956 107.151 162.343C110.156 160.986 113.25 159.837 116.412 158.905C135.927 153.196 157.432 155.606 176.701 162.615C182.853 164.887 188.85 167.56 194.653 170.616C209.819 178.487 223.829 188.586 237.233 199.047C258.482 215.58 279.751 233.317 305.919 238.417C332.088 243.517 360.666 233.345 376.918 212.222C400.036 182.192 395.699 140.605 395.414 103.176C395.39 100.217 395.403 97.2592 395.452 94.3027C396.24 49.5443 405.578 4.0465 431.744 -32.0223C459.626 -70.4795 509.925 -95.4674 556.354 -83.266" stroke="#5A5959" stroke-miterlimit="10"/>
<path d="M-115.355 619.96C-79.4165 617.177 -43.708 611.965 -8.47373 604.36C7.20093 600.952 22.9826 596.98 36.5274 588.378C63.5704 571.056 75.2637 539.203 79.538 506.799C80.6865 498.04 81.3773 489.227 81.6077 480.396C82.5914 443.144 79.1185 405.908 71.2629 369.48C63.5186 333.405 51.0739 297.659 51.3722 260.336C51.5968 238.39 56.2672 215.322 66.1016 195.842C74.7054 178.861 87.5383 164.445 104.806 156.355C107.886 154.907 111.067 153.684 114.323 152.693C134.332 146.557 156.47 149.081 176.411 156.181C182.771 158.463 188.983 161.14 195.011 164.194C210.716 172.074 225.49 181.95 239.569 192.034C262.019 207.981 284.466 224.057 311.211 228.257C336.567 232.219 364.361 222.61 380.348 202.079C403.094 172.847 399.685 132.69 400.334 96.6218C400.38 93.7816 400.476 90.9286 400.592 88.0944C402.423 45.0384 412.54 1.6664 438.61 -32.4356C466.376 -68.7554 515.348 -91.8752 560.312 -79.3409" stroke="#5A5959" stroke-miterlimit="10"/>
<path d="M-121.332 610.356C-86.0307 607.65 -50.9688 602.418 -16.4155 594.7C-1.08991 591.282 14.4502 587.264 27.703 578.778C54.3137 561.73 66.2343 530.889 71.0373 499.371C72.3198 490.856 73.1638 482.28 73.5659 473.678C75.351 437.332 72.7834 400.903 65.9177 365.166C59.1098 329.794 47.5572 294.675 48.2538 258.046C48.6988 235.429 53.3853 211.774 63.3235 191.5C71.9433 173.931 84.9443 158.798 102.576 150.28C105.73 148.753 108.989 147.455 112.329 146.395C132.892 139.849 155.664 142.506 176.297 149.675C182.855 151.97 189.275 154.644 195.523 157.682C211.794 165.54 227.236 175.258 242.049 184.942C265.652 200.334 289.38 214.784 316.666 218.017C341.406 220.939 368.223 211.834 383.935 191.887C406.291 163.494 403.865 124.684 405.393 90.0387C405.514 87.3037 405.639 84.6084 405.857 81.828C408.775 40.5316 419.629 -0.752024 445.558 -32.8148C473.187 -66.9962 520.842 -88.2583 564.352 -75.3817" stroke="#5A5959" stroke-miterlimit="10"/>
<path d="M-127.278 600.761C-92.6293 598.126 -58.2304 592.864 -24.378 585.022C-9.36281 581.572 5.83536 577.494 18.8579 569.161C45.0315 552.476 57.1644 522.559 62.5054 491.916C63.934 483.624 64.9432 475.265 65.5292 466.872C68.0634 431.455 66.3493 395.862 60.4235 360.852C54.5624 326.193 43.9218 291.698 45.0166 255.763C45.7323 232.484 50.4115 208.181 60.3975 187.178C69.0532 169.019 82.2244 153.21 100.208 144.234C103.429 142.619 106.764 141.243 110.187 140.117C131.304 133.181 154.7 135.941 176.044 143.179C182.813 145.5 189.452 148.187 195.93 151.228C212.767 159.063 228.896 168.602 244.423 177.907C269.274 192.66 294.098 205.563 322.016 207.834C346.003 209.784 371.984 201.026 387.401 181.663C409.338 154.14 407.917 116.696 410.322 83.4542C410.51 80.8349 410.746 78.183 410.995 75.5801C414.904 35.9393 426.589 -3.1718 452.393 -33.2362C479.869 -65.2383 526.244 -84.6846 568.291 -71.4553" stroke="#5A5959" stroke-miterlimit="10"/>
<path d="M-133.287 591.13C-99.2637 588.581 -65.4998 583.308 -32.3196 575.362C-17.6161 571.86 -2.75986 567.723 10.0231 559.552C35.6756 543.156 48.1036 514.218 53.9839 484.47C55.588 476.333 56.7697 468.121 57.5366 460.142C60.8571 425.65 60.0161 390.883 55.0317 356.592C50.107 322.635 40.4076 288.753 41.8703 253.504C42.8671 229.572 47.5402 204.642 57.5635 182.901C66.2446 164.143 79.5849 147.637 97.9217 138.222C101.216 136.523 104.635 135.076 108.147 133.892C129.787 126.518 153.839 129.429 175.873 136.737C182.838 139.064 189.678 141.749 196.366 144.781C213.769 152.574 230.565 161.955 246.836 170.849C272.841 185.068 298.808 196.372 327.395 197.64C350.715 198.731 375.809 190.293 390.971 171.532C412.537 144.807 412.053 108.783 415.382 76.9117C415.636 74.3882 415.93 71.8757 416.264 69.3741C421.206 31.4263 433.642 -5.52756 459.371 -33.6064C486.748 -63.512 531.79 -81.0399 572.352 -67.4964" stroke="#5A5959" stroke-miterlimit="10"/>
<path d="M-139.245 581.505C-105.866 579.041 -72.7566 573.751 -40.2716 565.692C-25.8377 562.176 -11.3538 557.97 1.20837 549.942C26.3922 533.881 39.0839 505.893 45.4834 477.042C47.2226 469.176 48.5662 461.184 49.5943 453.419C53.6796 419.851 53.7052 385.913 49.6704 352.339C45.682 319.085 36.953 285.805 38.7556 251.273C40.0009 226.64 44.6889 201.102 54.7599 178.631C63.4664 159.274 76.9665 142.082 95.6565 132.228C99.0289 130.45 102.529 128.925 106.128 127.665C128.334 119.93 152.989 122.946 175.713 130.305C182.999 132.694 190.004 135.399 196.907 138.408C214.877 146.198 232.359 155.381 249.345 163.895C276.476 177.442 303.559 187.198 332.837 187.5C355.359 187.692 379.602 179.531 394.437 161.307C415.623 135.43 416.105 100.794 420.31 70.3063C420.65 67.8973 421.016 65.4935 421.41 63.0947C427.384 26.8202 440.658 -8.01133 466.226 -34.0498C493.466 -61.817 537.18 -77.4965 576.309 -63.5921" stroke="#5A5959" stroke-miterlimit="10"/>
<path d="M-145.251 571.913C-112.5 569.519 -80.0279 564.202 -48.2237 556.023C-34.1434 552.418 -19.9595 548.189 -7.63572 540.343C17.0223 524.662 30.0138 497.563 36.9421 469.597C38.8911 461.918 40.3604 454.207 41.5283 446.623C46.3814 413.977 47.27 380.864 44.1748 348.005C41.1543 315.482 33.3852 282.794 35.5066 248.96C37.0937 223.69 41.7232 197.479 51.8326 174.288C60.5551 154.343 74.2546 136.463 93.2967 126.151C96.7319 124.276 100.308 122.673 103.993 121.356C126.764 113.22 152.044 116.36 175.468 123.777C182.922 126.147 190.211 128.935 197.282 131.925C215.818 139.693 233.986 148.696 251.697 156.82C280.103 169.866 308.177 178.152 338.141 177.389C359.986 176.714 383.385 168.76 397.986 151.157C418.761 126.1 420.22 92.8623 425.331 63.7659C425.737 61.4726 426.163 59.1781 426.639 56.8907C433.625 22.2905 447.7 -10.3965 473.192 -34.4494C500.296 -60.0782 542.693 -73.9 580.38 -59.6241" stroke="#5A5959" stroke-miterlimit="10"/>
<path d="M-151.228 562.31C-119.11 559.986 -87.282 554.641 -56.1667 546.343C-42.3875 542.696 -28.5549 538.418 -16.4613 530.725C7.77368 515.306 20.9225 489.213 28.4401 462.149C30.5032 454.723 32.1741 447.23 33.5134 439.855C39.1438 408.136 40.9058 375.85 38.7607 343.706C36.6556 311.867 29.8557 279.761 32.3286 246.674C34.2365 220.748 38.819 193.892 48.9657 169.963C57.7241 149.428 71.5729 130.852 90.9974 120.091C94.5044 118.143 98.1563 116.469 101.921 115.083C125.236 106.548 151.16 109.81 175.276 117.297C182.939 119.685 190.447 122.48 197.756 125.436C216.858 133.182 235.723 141.996 254.138 149.751C283.746 162.21 312.853 169.063 343.595 167.11C364.606 165.786 387.186 157.969 401.493 140.95C421.878 116.732 424.302 84.8825 430.319 57.1778C430.791 54.9803 431.294 52.8109 431.826 50.6298C439.907 17.7788 454.719 -12.82 480.059 -34.843C507.037 -58.324 548.08 -70.2462 584.318 -55.698" stroke="#5A5959" stroke-miterlimit="10"/>
<path d="M-157.196 552.696C-125.716 550.459 -94.5365 545.099 -64.1173 536.694C-50.6485 533.014 -37.1766 528.697 -25.284 521.145C-1.52808 506.053 11.8645 480.912 19.9307 454.732C22.137 447.547 23.9804 440.282 25.5107 433.116C31.9143 402.32 34.5396 370.859 33.3286 339.428C32.1891 308.28 26.482 276.828 29.1629 244.416C31.3717 217.835 35.9284 190.354 46.1018 165.676C54.8856 144.543 68.9245 125.289 88.6812 114.07C92.2612 112.038 95.9962 110.293 99.8513 108.85C123.721 99.9038 150.259 103.28 175.085 110.836C182.959 113.242 190.677 116.055 198.194 119.009C217.862 126.732 237.423 135.357 256.526 142.764C287.355 154.655 317.457 160.117 348.948 156.986C369.183 154.969 390.896 147.302 404.966 130.844C424.97 107.454 428.36 76.9932 435.263 50.6614C435.81 48.6387 436.392 46.5775 437.009 44.4779C446.134 13.3293 461.725 -15.1437 486.94 -35.1683C513.802 -56.512 553.565 -66.6184 588.293 -51.6849" stroke="#5A5959" stroke-miterlimit="10"/>
<path d="M-163.183 543.084C-132.331 540.932 -101.79 535.553 -72.0591 527.034C-58.9125 523.293 -45.7334 518.903 -34.1189 511.537C-10.8421 496.77 2.81409 472.58 11.4101 447.306C13.8203 440.378 15.7848 433.316 17.497 426.368C24.696 396.482 28.2071 365.827 27.9519 335.087C27.7196 304.654 23.0447 273.839 26.0747 242.134C28.6336 214.887 33.0931 186.753 43.3353 161.365C52.1351 139.644 66.314 119.705 86.4624 108.025C90.1184 105.91 93.9354 104.087 97.878 102.571C122.155 93.2736 149.328 96.7827 174.883 104.367C182.967 106.791 190.915 109.62 198.65 112.562C218.874 120.253 239.131 128.688 258.998 135.703C291.006 146.969 322.14 151.147 354.396 146.778C373.848 144.139 394.785 136.476 408.542 120.643C428.146 98.0831 432.502 69.0101 440.31 44.07C440.925 42.1132 441.569 40.1448 442.216 38.2359C452.374 8.78024 468.755 -17.5576 493.856 -35.5745C520.582 -54.7798 559.017 -63.0379 592.312 -47.7434" stroke="#5A5959" stroke-miterlimit="10"/>
<path d="M-169.161 533.48C-138.942 531.402 -109.045 525.997 -80.0114 517.365C-67.1974 513.553 -54.3381 509.142 -42.9539 501.928C-20.1457 487.497 -6.23635 464.248 2.93035 439.897C5.45233 433.181 7.64058 426.375 9.52403 419.636C17.4808 390.699 21.8468 360.892 22.5237 330.888C23.2277 301.158 19.6038 270.96 22.8302 239.901C25.7297 211.996 30.0898 183.172 40.4124 157.102C49.2095 134.813 63.6264 114.163 84.0976 102.037C87.8188 99.8322 91.7119 97.9309 95.7388 96.3517C120.717 86.6055 148.505 90.2485 174.722 97.9342C183.026 100.365 191.193 103.202 199.138 106.141C219.928 113.81 240.861 122.057 261.442 128.673C294.604 139.405 326.789 142.298 359.817 136.62C378.509 133.397 398.599 125.733 412.081 110.484C431.304 88.7519 436.627 61.087 445.331 37.5291C446.011 35.6682 446.733 33.8446 447.463 31.9907C458.638 4.28883 475.816 -19.9443 500.812 -35.9838C527.359 -53.0881 564.53 -59.4416 596.329 -43.8424" stroke="#5A5959" stroke-miterlimit="10"/>
<path d="M-175.138 523.877C-145.549 521.869 -116.293 516.442 -87.953 507.705C-75.391 503.838 -62.9333 499.37 -51.7687 492.318C-29.5062 478.267 -15.2865 455.916 -5.62262 432.423C-2.94805 425.937 -0.596734 419.371 1.47787 412.84C10.1986 384.824 15.4313 355.839 17.0573 326.542C18.6989 297.535 16.1458 267.952 19.6116 237.596C22.8705 209.014 27.1766 179.596 37.5049 152.759C46.3555 129.84 60.8925 108.506 81.7379 95.9603C85.532 93.6712 89.508 91.6982 93.6257 90.0613C119.129 79.9166 147.57 83.6715 174.488 91.4166C182.992 93.8758 191.37 96.7306 199.542 99.6469C220.94 107.33 242.508 115.352 263.814 121.597C298.237 131.57 331.41 133.461 365.154 126.388C383.078 122.631 402.349 114.915 415.547 100.259C434.36 79.3673 440.658 53.0802 450.259 30.9245C451.015 29.1687 451.791 27.4316 452.608 25.7121C464.863 -0.349264 482.792 -22.4251 507.666 -36.4266C534.15 -51.3467 569.94 -55.8987 600.307 -39.9186" stroke="#5A5959" stroke-miterlimit="10"/>
<path d="M-181.115 514.253C-152.139 512.326 -123.507 506.862 -95.8581 497.983C-83.6452 494.106 -71.5002 489.566 -60.5565 482.656C-38.7158 468.888 -24.2793 447.541 -14.0867 424.933C-11.2689 418.688 -8.7451 412.35 -6.4887 406.038C3.01212 378.962 9.1291 350.815 11.7231 322.238C14.3325 293.962 12.8291 264.976 16.5227 235.294C20.1538 206.083 24.3523 176.004 34.7284 148.437C43.6149 124.929 58.3431 102.937 79.5091 89.9048C83.376 87.527 87.4345 85.4758 91.6424 83.7727C117.71 73.2273 146.765 77.0963 174.384 84.9206C183.108 87.3871 191.705 90.2492 200.086 93.1635C222 100.797 244.342 108.626 266.316 114.544C301.854 123.985 336.077 124.74 370.585 116.239C387.754 111.978 406.174 104.181 419.096 90.1089C437.529 70.0452 444.755 45.1883 455.252 24.4149C456.085 22.7841 456.937 21.1522 457.758 19.4923C471.066 -4.85735 489.743 -24.8355 514.524 -36.8105C540.861 -49.6016 575.367 -52.248 604.24 -35.9234" stroke="#5A5959" stroke-miterlimit="10"/>
<path d="M-187.093 504.65C-158.763 502.802 -130.786 497.333 -103.847 488.375C-91.9452 484.447 -80.1328 479.837 -69.48 473.063C-48.0881 459.63 -33.4662 439.257 -22.7063 417.513C-19.737 411.478 -17.0397 405.389 -14.5921 399.285C-4.34059 373.134 2.61692 345.809 6.12004 317.94C9.64485 290.348 9.26357 262.005 13.1663 233.018C17.1976 203.147 21.2604 172.438 31.7217 144.1C40.6149 120.014 55.4994 97.276 77.0699 83.8324C80.9974 81.3745 85.1255 79.2526 89.4101 77.4894C116.075 66.5911 145.722 70.5357 174.021 78.4205C182.966 80.9142 191.814 83.8117 200.372 86.6959C222.861 94.2968 245.88 101.937 268.599 107.464C305.426 116.303 340.737 116.07 375.87 105.96C392.316 101.243 409.873 93.3365 422.567 79.7947C440.599 60.5604 448.83 37.0696 460.222 17.6786C461.12 16.1436 462.049 14.6367 462.989 13.1391C477.33 -9.51742 496.837 -27.3428 521.464 -37.3277C547.665 -47.9804 580.841 -48.7982 608.301 -32.1336" stroke="#5A5959" stroke-miterlimit="10"/>
<path d="M-193.09 495.028C-165.385 493.266 -138.045 487.773 -111.809 478.697C-100.209 474.726 -88.7373 470.075 -78.2259 463.439C-57.3341 450.313 -42.3797 430.877 -31.139 410.051C-28.0161 404.267 -25.165 398.428 -22.5181 392.502C-11.4854 367.267 -3.6611 340.749 0.771671 313.567C5.24222 286.668 5.95268 258.959 10.0645 230.667C14.496 200.136 18.4513 168.766 28.9544 139.768C37.8729 115.083 52.9078 91.67 74.8199 77.7588C78.8217 75.2149 83.032 73.015 87.4056 71.1826C114.573 59.8473 144.85 64.0145 173.897 71.9063C183.051 74.4178 192.078 77.3051 200.886 80.2048C223.941 87.7832 247.647 95.2446 271.08 100.392C309.098 108.635 345.552 107.5 381.327 95.7405C397.06 90.5768 413.785 82.5684 426.095 69.6261C443.738 51.2306 452.934 29.1281 465.233 11.1287C466.197 9.70938 467.191 8.29835 468.208 6.92583C483.549 -13.9163 503.892 -29.679 528.366 -37.634C554.441 -46.1389 586.301 -45.099 612.274 -28.1202" stroke="#5A5959" stroke-miterlimit="10"/>
<path d="M-199.057 485.433C-171.96 483.737 -145.242 478.199 -119.704 468.984C-108.298 465.146 -97.3476 460.068 -87.0504 453.839C-66.6272 441.049 -51.4196 422.554 -39.6398 402.623C-36.3677 397.066 -33.3282 391.445 -30.5214 385.762C-18.7044 361.471 -9.99849 335.786 -4.60979 309.315C0.807629 283.129 2.639 256.042 6.92963 228.437C11.7917 197.254 15.5902 165.236 26.0991 135.471C35.0431 110.187 50.2471 86.0774 72.5334 71.7464C76.609 69.1209 80.9021 66.8494 85.3657 64.957C113.078 53.222 144.035 57.4498 173.726 65.4639C183.091 67.9933 192.347 70.8972 201.374 73.7844C224.985 81.3309 249.386 88.603 273.535 93.3708C312.753 101.028 350.386 99.0978 386.748 85.5823C401.78 80.0008 417.557 71.788 429.645 59.4758C446.897 41.919 457.049 21.1954 470.243 4.57832C471.284 3.28405 472.345 1.98864 473.427 0.711939C489.855 -18.5399 510.92 -32.1138 535.319 -38.0832C561.248 -44.459 591.763 -41.5101 616.275 -24.1587" stroke="#5A5959" stroke-miterlimit="10"/>
<path d="M-205.006 475.799C-178.555 474.192 -152.491 468.65 -127.674 459.356C-116.598 455.42 -105.953 450.366 -95.9026 444.271C-75.969 431.798 -60.4873 414.263 -48.1788 395.218C-44.725 389.935 -41.5166 384.541 -38.5536 379.034C-25.967 355.679 -16.3931 330.822 -10.061 305.058C-3.70721 279.574 -0.745541 253.1 3.74485 226.2C9.03856 194.385 12.67 161.71 23.2267 131.216C32.2053 105.322 47.5703 80.5461 70.2505 65.7943C74.3911 63.0791 78.7602 60.7297 83.3085 58.7729C111.574 46.6278 143.147 50.9896 173.549 59.0724C183.123 61.6196 192.599 64.5308 201.904 67.4021C226.072 74.9366 251.169 82.0194 276.033 86.4076C316.461 93.4673 355.359 90.8378 392.221 75.4717C406.601 69.4596 421.435 61.1018 433.247 49.3728C450.068 32.6175 461.227 13.3195 475.307 -1.90474C476.402 -3.13239 477.561 -4.28413 478.709 -5.44516C495.873 -22.8995 518.143 -34.445 542.299 -38.4138C568.111 -42.6523 597.347 -37.8876 620.416 -20.1846" stroke="#5A5959" stroke-miterlimit="10"/>
<path d="M-211.012 466.207C-185.197 464.656 -159.784 459.073 -135.697 449.661C-124.946 445.646 -114.603 440.616 -104.808 434.638C-85.3431 422.499 -69.5664 405.943 -56.7804 387.757C-53.1822 382.679 -49.8282 377.508 -46.7184 372.245C-33.3638 349.83 -22.9184 325.804 -15.6344 300.749C-8.34422 275.968 -4.26982 250.147 0.397078 223.894C6.18909 191.393 9.58564 158.094 20.1796 126.861C29.1754 100.399 44.7281 74.9053 67.7301 59.687C71.9405 56.8872 76.389 54.4632 81.0242 52.443C109.845 39.9077 142.051 44.3824 173.195 52.5621C182.98 55.1271 192.666 58.0561 202.12 60.9288C226.864 68.4302 252.647 75.3144 278.236 79.3325C319.845 85.8067 360.064 82.6037 397.381 65.2699C411.781 58.7822 425.01 49.9597 436.534 39.159C452.997 23.2705 465.09 5.33273 480.077 -8.49986C481.259 -9.59314 482.462 -10.6677 483.686 -11.7038C502.021 -27.4444 524.885 -36.9494 548.975 -38.8459C574.741 -40.9411 602.702 -34.2813 624.295 -16.2548" stroke="#5A5959" stroke-miterlimit="10"/>
<path d="M-216.989 456.604C-191.779 455.147 -166.98 449.554 -143.586 440.047C-133.169 435.939 -123.129 430.933 -113.58 425.084C-94.9291 413.18 -78.5577 398.035 -65.2392 380.366C-61.4942 375.532 -57.9479 370.589 -54.6003 365.538C-40.4701 344.059 -29.1564 320.854 -20.9365 296.493C-12.6784 272.443 -7.47373 247.234 -2.6584 221.659C3.57806 188.575 6.8134 154.549 17.4457 122.597C26.4879 95.5548 42.2087 69.3444 65.544 53.6888C69.8311 50.8039 74.3656 48.3049 79.0941 46.221C108.449 33.2767 141.29 37.8843 173.083 46.0964C183.078 48.6792 192.984 51.6156 202.656 54.4758C227.977 61.9839 254.454 68.6392 280.739 72.2987C323.559 78.1758 365.251 74.4402 402.86 55.0885C416.424 48.136 428.969 39.3528 440.142 28.9854C456.213 13.9158 469.273 -2.61387 485.156 -15.0642C486.414 -16.0523 487.683 -17.0112 488.973 -17.9514C508.49 -31.9431 531.94 -39.3882 555.953 -39.2168C581.531 -39.2005 608.124 -30.7099 628.305 -12.3037" stroke="#5A5959" stroke-miterlimit="10"/>
<path d="M-222.966 447.001C-198.376 445.62 -174.211 439.997 -151.538 430.379C-121.279 417.917 -94.5611 398.185 -73.7504 372.93C-69.8622 368.336 -66.1512 363.603 -62.6047 358.78C-47.7123 338.233 -35.5274 315.853 -26.3505 292.194C-17.1865 268.839 -10.8189 244.29 -5.83524 219.393C0.912301 185.672 3.9 150.973 14.6011 118.31C23.6757 90.619 39.5398 63.7832 63.2575 47.6776C67.6031 44.6997 72.2064 42.1166 77.0123 39.959C106.922 26.6245 140.397 31.3451 172.891 39.6166C183.096 42.2172 193.211 45.1714 203.081 48.0003C228.947 55.4672 256.113 61.9834 283.132 65.2424C327.114 70.555 370.383 66.3804 408.19 44.9067C420.91 37.5337 432.781 28.7864 443.591 18.8219C459.291 4.57006 473.308 -10.5609 490.086 -21.6289C491.41 -22.5013 492.746 -23.3445 494.122 -24.1702C514.816 -36.4435 538.862 -41.855 562.819 -39.6301C588.302 -37.4578 613.577 -27.1095 632.315 -8.35166" stroke="#5A5959" stroke-miterlimit="10"/>
<path d="M-228.944 437.377C-173.167 434.656 -120.208 406.389 -82.2613 365.493C-44.3145 324.596 -20.5655 271.721 -9.01291 217.106C-1.74267 182.778 0.986829 147.396 11.7147 113.985C22.4425 80.5741 42.9422 48.1159 74.9307 33.6963C114.964 15.6393 161.27 29.6896 203.527 41.5429C273.038 61.102 352.384 72.9882 413.597 34.6801C444.093 15.597 467.111 -14.4469 499.327 -30.4525C543.993 -52.6283 602.796 -41.4853 636.223 -4.45406" stroke="#5A5959" stroke-miterlimit="10"/>
</g>
</g>
</g>
<defs>
<clipPath id="clip0_13717_290575">
<rect width="796" height="270" fill="white" transform="translate(-312)"/>
</clipPath>
<clipPath id="clip1_13717_290575">
<rect width="979.679" height="402.468" fill="white" transform="matrix(0.665452 -0.746441 -0.746441 -0.665452 -11.2451 721.982)"/>
</clipPath>
</defs>
</svg>
