<svg width="572" height="470" viewBox="0 0 572 470" fill="none" xmlns="http://www.w3.org/2000/svg">
<path fill-rule="evenodd" clip-rule="evenodd" d="M655.022 163.198C669.301 239.845 578.515 303.147 583.607 380.946C587.57 441.479 664.843 472.545 679.13 531.502C703.364 631.514 747.332 746.055 693.302 833.636C640.928 918.533 505.984 1002.05 422.867 946.899C312.366 873.569 408.793 657.306 304.376 575.545C224.313 512.853 66.4226 707.177 9.29023 623.055C-44.789 543.429 154.883 493.794 187.3 403.163C207.222 347.467 115.458 282.689 148.568 233.673C180.856 185.871 241.076 221.068 285.547 184.327C371.366 113.427 391.609 -42.3842 501.804 -58.1567C592.472 -71.1341 638.247 73.156 655.022 163.198Z" fill="white" fill-opacity="0.3"/>
</svg>
