<svg width="155" height="133" viewBox="0 0 155 133" fill="none" xmlns="http://www.w3.org/2000/svg">
<path d="M155 133H-89V-111H155V133ZM-87.4902 131.49H153.49V-109.49H-87.4902V131.49Z" fill="#3C9AFF"/>
<path d="M154.264 109.433H-88.2266V110.942H154.264V109.433Z" fill="#3C9AFF"/>
<path d="M154.264 87.4111H-88.2267V88.9209H154.264V87.4111Z" fill="#3C9AFF"/>
<path d="M154.264 65.3535H-88.2266V66.8633H154.264V65.3535Z" fill="#3C9AFF"/>
<path d="M154.264 43.2949H-88.2266V44.8047H154.264V43.2949Z" fill="#3C9AFF"/>
<path d="M154.264 21.2744H-88.2266V22.7842H154.264V21.2744Z" fill="#3C9AFF"/>
<path d="M154.264 -0.78418H-88.2266V0.725632H154.264V-0.78418Z" fill="#3C9AFF"/>
<path d="M132.941 -110.227H131.432V132.264H132.941V-110.227Z" fill="#3C9AFF"/>
<path d="M110.92 -110.227H109.41V132.264H110.92V-110.227Z" fill="#3C9AFF"/>
<path d="M88.8633 -110.227H87.3535V132.264H88.8633V-110.227Z" fill="#3C9AFF"/>
<path d="M66.8047 -110.227H65.2949V132.264H66.8047V-110.227Z" fill="#3C9AFF"/>
<path d="M44.7832 -110.227H43.2734V132.264H44.7832V-110.227Z" fill="#3C9AFF"/>
<path d="M22.7266 -110.227H21.2168V132.264H22.7266V-110.227Z" fill="#3C9AFF"/>
<path d="M0.705109 -110.227H-0.804688V132.264H0.705109V-110.227Z" fill="#3C9AFF"/>
</svg>
