<svg width="175" height="18" viewBox="0 0 175 18" fill="none" xmlns="http://www.w3.org/2000/svg">
<g clip-path="url(#clip0_5617_94638)">
<path d="M99.8348 0.509434C99.6656 0.339623 99.6656 0.169811 99.3272 0.169811C98.4811 0.169811 97.6351 0.169811 96.6198 0.169811C96.2814 0.169811 96.1122 0.339623 96.1122 0.509434C95.4353 1.86792 94.9277 3.22642 94.2509 4.41509C92.2203 8.83019 90.1898 13.0755 88.1592 17.6604C87.99 17.4906 87.8208 17.3208 87.8208 17.1509C86.4671 15.283 85.1134 13.2453 83.7597 11.3774C83.5905 11.0377 83.5905 10.8679 83.9289 10.6981C86.8055 9.33962 88.1592 6.11321 86.8055 3.22642C85.7903 1.01887 83.7597 0 81.3908 0C78.345 0 75.2992 0 72.2533 0C71.9149 0 71.9149 0 71.9149 0.339623C71.9149 1.5283 71.9149 2.88679 71.9149 4.07547C71.9149 8.32076 71.9149 12.7359 71.9149 16.9811C71.9149 17.3208 72.0841 17.4906 72.4226 17.4906C73.2686 17.4906 73.9455 17.4906 74.7915 17.4906C75.1299 17.4906 75.2991 17.4906 75.2991 16.9811C75.2991 15.1132 75.2991 13.4151 75.2991 11.5472C75.2991 11.2075 75.2991 11.0377 75.8068 11.0377C77.1605 11.0377 78.345 11.0377 79.6986 11.0377C80.0371 11.0377 80.2063 11.2075 80.3755 11.3774C81.7292 13.2453 83.0829 15.1132 84.2674 16.9811C84.4366 17.1509 84.6058 17.3208 84.775 17.3208C86.9747 17.3208 89.1745 17.3208 91.3743 17.3208C91.5435 17.3208 91.7127 17.3208 91.8819 16.9811C92.3895 15.9623 92.8972 14.7736 93.4048 13.7547C93.574 13.5849 93.574 13.4151 93.9124 13.4151C96.789 13.4151 99.4964 13.4151 102.373 13.4151C102.711 13.4151 102.711 13.4151 102.881 13.7547C103.388 14.7736 103.896 15.9623 104.404 16.9811C104.404 17.1509 104.404 17.3208 104.742 17.3208C105.757 17.3208 106.942 17.3208 107.957 17.3208V17.1509C105.08 11.8868 102.542 6.11321 99.8348 0.509434ZM80.8831 8.49057C80.0371 8.49057 79.191 8.49057 78.345 8.49057C77.4989 8.49057 76.4836 8.49057 75.6376 8.49057C75.2992 8.49057 75.2991 8.49057 75.2991 8.15094C75.2991 6.62264 75.2991 5.09434 75.2991 3.39623C75.2991 3.22642 75.2992 3.0566 75.6376 3.0566C77.4989 3.0566 79.5294 3.0566 81.3908 3.0566C82.0676 3.0566 82.5752 3.22642 83.0829 3.56604C84.4366 4.58491 84.6058 6.45283 83.2521 7.64151C82.406 8.32076 81.7292 8.66038 80.8831 8.49057ZM94.7585 11.0377C95.7738 8.66038 96.9582 6.28302 97.9735 3.73585C98.9888 6.28302 100.173 8.66038 101.189 11.0377C98.9888 11.0377 96.9582 11.0377 94.7585 11.0377Z" fill="#27304C"/>
<path d="M30.1197 9.33962C29.9505 9 29.9505 8.83019 30.1197 8.66038C31.8118 6.62264 33.5039 4.41509 35.3652 2.20755C35.8729 1.5283 36.3805 0.849057 37.0573 0.169811C35.7037 0.169811 34.5192 0.169811 33.3347 0.169811C32.9963 0.169811 32.9963 0.339623 32.8271 0.509434C31.3041 2.54717 29.7812 4.41509 28.4275 6.28302C28.2583 6.62264 28.0891 6.62264 27.7507 6.28302C26.2278 4.24528 24.5357 2.37736 22.8436 0.339623C22.6744 0.169811 22.5051 0 22.1667 0C20.9822 0 19.7978 0 18.6133 0C18.4441 0 18.4441 0 18.2749 0.169811L18.4441 0.339623C20.6438 2.88679 22.8436 5.60377 25.2125 8.15094C25.3817 8.49057 25.551 8.66038 25.2125 8.83019C24.3665 10.0189 23.6896 11.0377 22.8436 11.8868C21.6591 13.5849 20.3054 15.1132 18.9517 16.6415C18.7825 16.4717 18.7825 16.3019 18.7825 16.1321C16.4135 11.0377 14.0446 5.77358 11.5064 0.509434C11.5064 0.339623 11.3372 0.169811 10.9987 0.169811C10.1527 0.169811 9.30663 0.169811 8.46057 0.169811C8.12215 0.169811 8.12215 0.169811 7.95294 0.509434C5.41476 6.11321 2.70737 11.717 0.169199 17.3208C0.169199 17.4906 -1.23521e-05 17.4906 0.169199 17.6604C1.18447 17.6604 2.19974 17.6604 3.21501 17.6604C3.55343 17.6604 3.55343 17.4906 3.55343 17.3208C3.89186 16.3019 4.39949 15.283 4.90713 14.2642C5.07634 13.9245 5.07634 13.9245 5.41476 13.9245C8.29136 13.9245 10.9987 13.9245 13.8753 13.9245C14.2138 13.9245 14.2138 14.0943 14.383 14.2642C14.8906 15.283 15.3983 16.3019 15.7367 17.4906C15.9059 17.6604 15.9059 17.8302 16.2443 17.8302C18.1056 17.8302 19.7978 17.8302 21.6591 17.8302C21.9975 17.8302 22.1667 17.6604 22.3359 17.4906C23.8588 15.4528 25.551 13.5849 27.0739 11.5472C27.2431 11.2075 27.4123 11.2075 27.5815 11.5472C29.2736 13.5849 30.9657 15.6226 32.4886 17.6604C32.6578 17.8302 32.8271 18 33.1655 18C33.8423 18 34.6884 18 35.3652 18C35.8729 18 36.3805 18 37.0573 18C36.8881 17.8302 36.8881 17.6604 36.7189 17.6604C34.6884 14.7736 32.3194 12.0566 30.1197 9.33962ZM12.5217 11.0377C10.6603 11.0377 8.62978 11.0377 6.76846 11.0377C6.59924 11.0377 6.43003 11.0377 6.59924 10.6981C7.61451 8.49057 8.62978 6.28302 9.64505 3.73585C10.6603 6.28302 11.6756 8.49057 12.6909 10.6981C12.8601 11.0377 12.8601 11.0377 12.5217 11.0377Z" fill="#27304C"/>
<path d="M173.611 0.169922C172.765 0.169922 172.088 0.169922 171.242 0.169922C171.073 0.169922 170.904 0.169922 170.735 0.509545C169.719 1.86804 168.704 3.22653 167.689 4.58502C166.504 6.11332 165.32 7.64162 164.135 9.16992C163.966 9.00011 163.797 8.8303 163.797 8.66049C161.766 5.94351 159.736 3.22653 157.705 0.509545C157.536 0.169922 157.367 0.169922 157.028 0.169922C156.352 0.169922 155.675 0.169922 154.829 0.169922C154.49 0.169922 154.321 0.339733 154.321 0.679356C154.321 4.58502 154.321 8.66049 154.321 12.5661C154.321 14.0945 154.321 15.7926 154.321 17.3209C154.321 17.6605 154.49 17.6605 154.659 17.6605C155.506 17.6605 156.352 17.6605 157.198 17.6605C157.367 17.6605 157.536 17.6605 157.536 17.3209C157.536 16.8114 157.536 16.302 157.536 15.9624C157.536 13.0756 157.536 10.1888 157.367 7.302C157.367 6.62275 157.367 6.11332 157.198 5.43407C158.89 7.64162 160.751 9.84917 162.274 12.0567C162.782 12.9058 163.458 13.2454 164.305 13.0756C164.474 13.0756 164.812 13.0756 164.812 12.736C165.827 11.3775 167.012 9.84917 168.196 8.49068C169.042 7.47181 169.719 6.45294 170.565 5.43407C170.565 5.60388 170.565 5.60388 170.565 5.60388C170.227 9.50955 170.396 13.4152 170.396 17.4907C170.396 17.8303 170.396 17.8303 170.735 17.8303C171.581 17.8303 172.427 17.8303 173.273 17.8303C173.611 17.8303 173.611 17.6605 173.611 17.4907C173.611 11.8869 173.611 6.28313 173.611 0.679356C174.119 0.169922 173.95 0.169922 173.611 0.169922Z" fill="#27304C"/>
<path d="M53.3017 4.58502C52.794 2.03785 50.4251 0.169922 47.7177 0.169922C44.6719 0.169922 41.6261 0.169922 38.5803 0.169922C38.2418 0.169922 38.0726 0.339733 38.0726 0.679356C38.0726 3.39634 38.0726 6.28313 38.0726 9.00011C38.0726 11.7171 38.0726 14.6039 38.0726 17.3209C38.0726 17.6605 38.2418 17.6605 38.4111 17.6605C39.2571 17.6605 40.1032 17.6605 40.78 17.6605C41.1184 17.6605 41.2877 17.4907 41.2877 17.1511C41.2877 15.2831 41.2877 13.585 41.2877 11.7171C41.2877 11.3775 41.4569 11.3775 41.6261 11.3775C43.4874 11.3775 45.1795 11.3775 47.0409 11.3775C47.5485 11.3775 48.0561 11.3775 48.5638 11.2077C51.7788 10.6982 53.8093 7.64162 53.3017 4.58502ZM49.4098 7.302C48.733 8.15105 47.7177 8.49068 46.8716 8.49068C45.1795 8.49068 43.4874 8.49068 41.7953 8.49068C41.4569 8.49068 41.4569 8.49068 41.4569 8.15105C41.4569 6.62275 41.4569 5.09445 41.4569 3.56615C41.4569 3.22653 41.6261 3.22653 41.7953 3.22653C42.6413 3.22653 43.6566 3.22653 44.5027 3.22653C45.3487 3.22653 46.1948 3.22653 47.0409 3.22653C47.7177 3.22653 48.2253 3.39634 48.733 3.73596C50.0867 4.58502 50.2559 6.11332 49.4098 7.302Z" fill="#27304C"/>
<path d="M63.116 0.679466C62.9468 0.339844 62.7776 0.339844 62.4392 0.339844C61.5931 0.339844 60.9163 0.339844 60.0702 0.339844C59.7318 0.339844 59.5626 0.509655 59.3933 0.849278C57.1936 5.77381 54.8246 10.6983 52.6249 15.6229C52.2865 16.3021 51.948 17.1512 51.6096 17.8304C52.6249 17.8304 53.6402 17.8304 54.6554 17.8304C54.9938 17.8304 54.9938 17.6606 55.1631 17.4908C55.6707 16.4719 56.1783 15.453 56.686 14.2644C56.8552 14.0946 56.8552 13.9247 57.1936 13.9247C60.0702 13.9247 62.7776 13.9247 65.6542 13.9247C65.9926 13.9247 65.9926 13.9247 66.1618 14.2644C66.6694 15.2832 67.1771 16.4719 67.6847 17.4908C67.6847 17.6606 67.8539 17.8304 68.0231 17.8304C69.0384 17.8304 70.0537 17.8304 71.2382 17.8304C70.5613 16.3021 69.8845 14.7738 69.0384 13.2455C67.0079 9.00022 65.1465 4.75494 63.116 0.679466ZM63.9621 11.038C61.9315 11.038 59.901 11.038 57.8704 11.038C58.8857 8.6606 60.0702 6.28324 61.0855 3.73607C62.1007 6.11343 63.2852 8.49079 64.3005 10.6983C64.4697 11.038 64.4697 11.038 63.9621 11.038Z" fill="#27304C"/>
<path d="M123.863 3.22641C126.063 3.22641 127.924 3.90566 129.447 5.26415C129.785 5.60377 129.955 5.43396 130.124 5.09434C130.631 4.41509 130.97 3.90566 131.477 3.22641C131.647 2.88679 131.647 2.71698 131.477 2.54717C129.278 0.849057 126.909 0 125.047 0C122.34 0 120.817 0.339623 119.294 1.18868C113.203 4.24528 112.695 12.566 118.279 16.3019C120.817 18 123.525 18.3396 126.57 17.8302C128.432 17.4906 130.124 16.6415 131.647 15.6226C131.477 15.283 131.647 15.283 131.308 14.9434C130.97 14.434 130.631 13.9245 130.293 13.4151C129.785 12.7358 129.785 12.7358 129.109 13.2453C128.939 13.4151 128.77 13.4151 128.77 13.5849C126.232 15.283 123.525 15.6226 120.648 14.2641C116.756 12.566 116.756 8.32075 118.279 6.11321C119.633 4.07547 121.494 3.22641 123.863 3.22641Z" fill="#27304C"/>
<path d="M112.695 14.0947C112.357 14.0947 112.187 14.0947 111.68 14.0947C111.341 14.0947 110.834 14.0947 110.495 14.2645C109.818 14.6042 109.311 15.2834 109.311 16.1325C109.311 16.9815 109.649 17.6608 110.495 17.8306C111.341 18.1702 112.187 18.1702 113.033 17.8306C113.879 17.491 114.387 16.6419 114.387 15.623C114.218 14.9438 113.71 14.2645 112.695 14.0947Z" fill="#27304C"/>
<path d="M150.768 5.60377C149.414 2.37736 146.199 0 142.476 0C138.077 0 134.354 3.22642 133.677 7.64151C133.677 8.15094 133.508 8.49057 133.508 9C133.508 9.50943 133.508 10.0189 133.677 10.5283C135.708 9 137.907 7.64151 140.276 6.79245C143.491 5.60377 147.045 5.09434 150.768 5.60377Z" fill="#2C91FF"/>
<path d="M150.768 5.60352C148.399 5.94314 146.03 6.7922 144.168 8.15069C141.461 10.1884 139.43 13.0752 138.754 16.4714C138.754 16.6412 138.754 16.8111 138.584 16.9809C139.769 17.4903 141.123 17.8299 142.476 17.8299C145.184 17.8299 147.553 16.6412 149.245 14.7733C150.598 13.245 151.444 11.2073 151.444 8.82993C151.275 7.81106 151.106 6.62238 150.768 5.60352Z" fill="#95C9FC"/>
<path d="M149.075 14.943C147.383 16.8109 145.014 17.9996 142.307 17.9996C140.953 17.9996 139.6 17.6599 138.415 17.1505C138.415 16.9807 138.415 16.8109 138.584 16.6411C139.261 13.2448 141.292 10.358 143.999 8.32031C146.537 9.6788 148.399 12.0562 149.075 14.943Z" fill="#2C91FF"/>
</g>
<defs>
<clipPath id="clip0_5617_94638">
<rect width="174.119" height="18" fill="white"/>
</clipPath>
</defs>
</svg>
