<svg width="319" height="373" viewBox="0 0 319 373" fill="none" xmlns="http://www.w3.org/2000/svg">
<path d="M-23.0542 200.453C-82.3495 232.313 -125.715 271.254 -154.477 302.671C-157.575 292.051 -160.672 277.891 -161.557 261.076C-167.31 170.363 -107.572 34.5149 26.5061 5.30975C138.902 -19.0279 254.837 41.1524 299.973 149.123C246.872 140.715 113.679 127.44 -23.0542 200.453Z" fill="#58A9FF"/>
<path d="M261.917 395.154C249.085 411.969 233.597 425.687 216.34 437.635C169.877 470.38 118.104 484.097 61.4637 481C31.8161 479.23 3.49591 471.707 -23.4967 459.317C-27.0368 457.547 -27.4793 456.22 -26.5942 452.68C-10.2217 382.764 22.966 321.699 71.6413 269.926C87.5714 253.111 104.386 238.066 122.972 223.906C124.299 223.021 125.627 221.251 127.397 221.251C127.839 223.021 129.167 223.906 130.494 224.791C148.194 238.066 165.009 253.111 180.497 269.484C207.932 298.689 230.5 330.992 248.642 366.392C253.51 375.684 257.492 385.419 261.917 395.154Z" fill="#58A9FF"/>
<path d="M261.917 395.154C257.492 385.419 253.067 376.127 248.642 366.392C230.942 330.549 208.374 298.246 180.497 269.484C165.009 253.111 148.637 238.509 130.494 224.791C129.166 223.906 127.839 223.021 127.396 221.251C135.804 213.286 145.539 207.976 154.832 202.223C174.302 190.718 193.772 180.541 214.127 172.576C242.005 161.513 264.572 156.203 273.422 153.991C284.042 151.778 293.335 150.008 299.972 149.123C306.167 161.071 309.265 173.903 312.362 187.178C315.903 202.666 318.115 218.596 318.558 234.526C319 269.926 312.805 303.999 298.645 336.744C289.795 356.657 278.29 375.242 264.572 392.499C264.13 393.384 262.802 394.269 261.917 395.154Z" fill="#94C8FB"/>
</svg>
